
M48
METRIC,LZ,000.000
T01C0.4
%
M71
G90
T01
X1042Y-109676
X101727Y-110744
X100457Y-128016
Y-110744
X097917Y-128016
Y-110744
X097264Y-128954
X097003Y-131401
X095377Y-128016
Y-110744
X092837Y-128016
Y-110744
X092204Y-106576
X091935Y-102618
X091904Y-10785
X091567Y-128016
Y-110744
X090297Y-128016
Y-110744
X089967Y-104737
X089961Y-101627
X089959Y-10373
X08995Y-105542
X089947Y-106415
X089027Y-128016
Y-110744
X087757Y-128016
Y-110744
X086487Y-128016
Y-110744
X085217Y-128016
Y-110744
X083947Y-128016
Y-110744
X082677Y-128016
Y-110744
X081407Y-128016
Y-110744
X080137Y-128016
Y-110744
X078867Y-128016
Y-110744
X077597Y-128016
Y-110744
X076327Y-128016
Y-110744
X072603Y-101477
M30
