G04 Output by CAMMaster V11.2.74  PentaLogix*
G04 Tue Aug 09 11:47:32 2016*
%FSLAX25Y25*%
%MOIN*%
%IPPOS*%
%ADD11C,0.005906*%
%ADD12C,0.011811*%
%ADD13C,0.015748*%
%ADD102C,0.007874*%
%ADD103C,0.005543*%
%ADD104C,0.027717*%
%ADD105C,0.006652*%

%LPD*%
X0Y0D2*D11*G1X1027568Y-753965D2*Y-779556D1*X775599Y-753965D2*Y-765776D1*X983136Y-687739D2*Y-684646D1*X982855Y-684083*X982292Y-683802*X981448*X980886Y-684083*X980605Y-684646*Y-687739D2*Y-684646D1*X980324Y-684083*X979761Y-683802*X978918*X978355Y-684083*X978074Y-684365*Y-687739D2*Y-683802D1*X975262Y-687739D2*Y-684646D1*X974981Y-684083*X974418Y-683802*X973574*X973012Y-684083*X972731Y-684646*Y-687739D2*Y-684646D1*X972450Y-684083*X971887Y-683802*X971044*X970481Y-684083*X970200Y-684365*Y-687739D2*Y-683802D1*X967669Y-687739D2*X964013D1*X967388Y-684365*X967669Y-683521*Y-682959*X967388Y-682396*X967107Y-682115*X966544Y-681834*X965138*X964576Y-682115*X964294Y-682396*X961482Y-688583D2*X961763Y-688302D1*X962045Y-687739*Y-687458*X957264Y-681834D2*X956702Y-682115D1*X956420Y-682396*X956139Y-682959*X955858Y-684083*Y-685490*X956139Y-686614*X956420Y-687177*X956702Y-687458*X957264Y-687739*X957826*X958389Y-687458*X958670Y-687177*X958951Y-686614*X959233Y-685490*Y-684083*X958951Y-682959*X958670Y-682396*X958389Y-682115*X957826Y-681834*X957264*X948828Y-685208D2*X948265Y-685490D1*X946859*X946297Y-685771*X946015Y-686333*Y-686896*X946297Y-687458*X946859Y-687739*X948265*X948828Y-687458*X946297Y-684083D2*X946859Y-683802D1*X947984*X948546Y-684083*X948828Y-684646*Y-687739*X944328Y-683802D2*X943766D1*X943203Y-684083*X942922Y-684365*X942641Y-684927*Y-687739D2*Y-683802D1*X939829Y-685208D2*X939266Y-685490D1*X937860*X937298Y-685771*X937017Y-686333*Y-686896*X937298Y-687458*X937860Y-687739*X939266*X939829Y-687458*X937298Y-684083D2*X937860Y-683802D1*X938985*X939547Y-684083*X939829Y-684646*Y-687739*X931955Y-687458D2*X932517Y-687739D1*X933642*X934204Y-687458*X934486Y-687177*X934767Y-686614*Y-684927*X934486Y-684365*X934204Y-684083*X933642Y-683802*X932517*X931955Y-684083*Y-683802D2*Y-689708D1*X921550Y-687177D2*X921831Y-687458D1*X922393Y-687739*X923799*X924362Y-687458*X924643Y-687177*X924924Y-686614*Y-685208*X924643Y-684646*X924362Y-684365*X923799Y-684083*X922393*X921831Y-684365*X921550Y-684646*X921831Y-681834*X924643*X915925Y-683521D2*X916488Y-683240D1*X917050Y-682677*X917613Y-681834*Y-687739*X919300D2*X915925D1*X913113Y-688583D2*X913394Y-688302D1*X913676Y-687739*Y-687458*X908895Y-681834D2*X908333Y-682115D1*X908051Y-682396*X907770Y-682959*X907489Y-684083*Y-685490*X907770Y-686614*X908051Y-687177*X908333Y-687458*X908895Y-687739*X909457*X910020Y-687458*X910301Y-687177*X910582Y-686614*X910864Y-685490*Y-684083*X910582Y-682959*X910301Y-682396*X910020Y-682115*X909457Y-681834*X908895*X897928Y-685771D2*X900740Y-685208D1*Y-684646*X900459Y-684083*X899896Y-683802*X898771*X898209Y-684083*X897928Y-684646*Y-686896*X898209Y-687458*X898771Y-687739*X899896*X900459Y-687458*X895397Y-684083D2*X894834Y-683802D1*X893709*X893147Y-684083*X892866Y-684365*X892585Y-684927*Y-686614*X892866Y-687177*X893147Y-687458*X893709Y-687739*X894834*X895397Y-687458*Y-687739D2*Y-681834D1*X883867Y-687739D2*X884711D1*X885273Y-687458*X885554Y-687177*X885835Y-686614*Y-684927*X885554Y-684365*X885273Y-684083*X884711Y-683802*X883867*X883304Y-684083*X883023Y-684365*X882742Y-684927*Y-686614*X883023Y-687177*X883304Y-687458*X883867Y-687739*X880211Y-681834D2*X879930Y-682115D1*X879367Y-682396*X878243Y-681834*X877680Y-682115*X877399Y-682396*X880211Y-685208D2*X879649Y-685490D1*X878243*X877680Y-685771*X877399Y-686333*Y-686896*X877680Y-687458*X878243Y-687739*X879649*X880211Y-687458*X877680Y-684083D2*X878243Y-683802D1*X879367*X879930Y-684083*X880211Y-684646*Y-687739*X873181Y-689708D2*X874024D1*X874587Y-689427*X874868Y-688864*X874587Y-688302*X874024Y-688020*X875149Y-684083D2*X874587Y-683802D1*X873462*X872900Y-684083*X872618Y-684365*X872337Y-684927*Y-686614*X872618Y-687177*X872900Y-687458*X873462Y-687739*X874587*X875149Y-687458*X869806Y-685208D2*X869244Y-685490D1*X867838*X867275Y-685771*X866994Y-686333*Y-686896*X867275Y-687458*X867838Y-687739*X869244*X869806Y-687458*X867275Y-684083D2*X867838Y-683802D1*X868963*X869525Y-684083*X869806Y-684646*Y-687739*X864182Y-681834D2*Y-686896D1*X864463Y-687458*X865026Y-687739*X859682D2*X860526D1*X861089Y-687458*X861370Y-687177*X861651Y-686614*Y-684927*X861370Y-684365*X861089Y-684083*X860526Y-683802*X859682*X859120Y-684083*X858839Y-684365*X858558Y-684927*Y-686614*X858839Y-687177*X859120Y-687458*X859682Y-687739*X856027Y-684083D2*X855464Y-683802D1*X854621*X854058Y-684083*X853777Y-684646*Y-684927*X854058Y-685490*X854621Y-685771*X855464*X856027Y-686052*X856308Y-686614*Y-686896*X856027Y-687458*X855464Y-687739*X854339*X853777Y-687458*X851246Y-682396D2*Y-681834D1*X851527Y-682115*X851246Y-682396*X850965Y-682115*X851246Y-681834*Y-687739D2*Y-683802D1*X843934Y-684646D2*Y-684083D1*X843653Y-684365*X843934Y-684646*X844216Y-684365*X843934Y-684083*X843653Y-688583D2*X843934Y-688302D1*X844216Y-687739*Y-687458*X841122Y-684083D2*X840560Y-683802D1*X839716*X839154Y-684083*X838873Y-684646*Y-684927*X839154Y-685490*X839716Y-685771*X840560*X841122Y-686052*X841403Y-686614*Y-686896*X841122Y-687458*X840560Y-687739*X839435*X838873Y-687458*X836342Y-685208D2*X835779Y-685490D1*X834373*X833811Y-685771*X833529Y-686333*Y-686896*X833811Y-687458*X834373Y-687739*X835779*X836342Y-687458*X833811Y-684083D2*X834373Y-683802D1*X835498*X836060Y-684083*X836342Y-684646*Y-687739*X830999Y-682396D2*Y-681834D1*X831280Y-682115*X830999Y-682396*X830717Y-682115*X830999Y-681834*Y-687739D2*Y-683802D1*X828749D2*X827343Y-687739D1*X825937Y-683802*X816657Y-685771D2*X819469Y-685208D1*Y-684646*X819188Y-684083*X818625Y-683802*X817500*X816938Y-684083*X816657Y-684646*Y-686896*X816938Y-687458*X817500Y-687739*X818625*X819188Y-687458*X809626Y-684083D2*X809064Y-683802D1*X808220*X807658Y-684083*X807376Y-684646*Y-684927*X807658Y-685490*X808220Y-685771*X809064*X809626Y-686052*X809907Y-686614*Y-686896*X809626Y-687458*X809064Y-687739*X807939*X807376Y-687458*X804846Y-685208D2*X804283Y-685490D1*X802877*X802315Y-685771*X802033Y-686333*Y-686896*X802315Y-687458*X802877Y-687739*X804283*X804846Y-687458*X802315Y-684083D2*X802877Y-683802D1*X804002*X804564Y-684083*X804846Y-684646*Y-687739*X800346D2*X799784D1*X799221Y-687458*X798940Y-686896*Y-681834*X798096Y-683802D2*X800346D1*X796128Y-684083D2*X795565Y-683802D1*X794722*X794159Y-684083*X793878Y-684646*Y-684927*X794159Y-685490*X794722Y-685771*X795565*X796128Y-686052*X796409Y-686614*Y-686896*X796128Y-687458*X795565Y-687739*X794441*X793878Y-687458*X791347Y-682396D2*Y-681834D1*X791628Y-682115*X791347Y-682396*X791066Y-682115*X791347Y-681834*Y-687739D2*Y-683802D1*X785442Y-684927D2*X787691D1*X788254Y-684646*X788535Y-684365*X788816Y-683802*Y-682959*X788535Y-682396*X788254Y-682115*X787691Y-681834*X785442*Y-687739*X778130Y-684083D2*X777568Y-683802D1*X776724*X776162Y-684083*X775880Y-684646*Y-684927*X776162Y-685490*X776724Y-685771*X777568*X778130Y-686052*X778411Y-686614*Y-686896*X778130Y-687458*X777568Y-687739*X776443*X775880Y-687458*X773349Y-685208D2*X772787Y-685490D1*X771381*X770819Y-685771*X770537Y-686333*Y-686896*X770819Y-687458*X771381Y-687739*X772787*X773349Y-687458*X770819Y-684083D2*X771381Y-683802D1*X772506*X773068Y-684083*X773349Y-684646*Y-687739*X768006Y-684083D2*X767444Y-683802D1*X766319*X765757Y-684083*X765475Y-684365*X765194Y-684927*Y-686614*X765475Y-687177*X765757Y-687458*X766319Y-687739*X767444*X768006Y-687458*Y-687739D2*Y-681834D1*X756477Y-687739D2*X757320D1*X757883Y-687458*X758164Y-687177*X758445Y-686614*Y-684927*X758164Y-684365*X757883Y-684083*X757320Y-683802*X756477*X755914Y-684083*X755633Y-684365*X755352Y-684927*Y-686614*X755633Y-687177*X755914Y-687458*X756477Y-687739*X752821Y-681834D2*X752540Y-682115D1*X751977Y-682396*X750852Y-681834*X750290Y-682115*X750009Y-682396*X752821Y-685208D2*X752258Y-685490D1*X750852*X750290Y-685771*X750009Y-686333*Y-686896*X750290Y-687458*X750852Y-687739*X752258*X752821Y-687458*X750290Y-684083D2*X750852Y-683802D1*X751977*X752540Y-684083*X752821Y-684646*Y-687739*X745790Y-689708D2*X746634D1*X747196Y-689427*X747478Y-688864*X747196Y-688302*X746634Y-688020*X747759Y-684083D2*X747196Y-683802D1*X746072*X745509Y-684083*X745228Y-684365*X744947Y-684927*Y-686614*X745228Y-687177*X745509Y-687458*X746072Y-687739*X747196*X747759Y-687458*X742416Y-685208D2*X741853Y-685490D1*X740447*X739885Y-685771*X739604Y-686333*Y-686896*X739885Y-687458*X740447Y-687739*X741853*X742416Y-687458*X739885Y-684083D2*X740447Y-683802D1*X741572*X742135Y-684083*X742416Y-684646*Y-687739*X737916Y-683802D2*X737354D1*X736792Y-684083*X736510Y-684365*X736229Y-684927*Y-687739D2*Y-683802D1*X730886Y-685771D2*X733698Y-685208D1*Y-684646*X733417Y-684083*X732855Y-683802*X731730*X731167Y-684083*X730886Y-684646*Y-686896*X731167Y-687458*X731730Y-687739*X732855*X733417Y-687458*X729199Y-687739D2*X728636D1*X728074Y-687458*X727793Y-686896*Y-681834*X726949Y-683802D2*X729199D1*X724699Y-681834D2*Y-686896D1*X724981Y-687458*X725543Y-687739*X722731D2*X720762Y-681834D1*X718794Y-687739*X719356Y-686052D2*X722168D1*X707826Y-685490D2*X712326D1*X705296Y-687739D2*X701640D1*X705014Y-684365*X705296Y-683521*Y-682959*X705014Y-682396*X704733Y-682115*X704171Y-681834*X702765*X702202Y-682115*X701921Y-682396*X812157Y-695894D2*X811595Y-695613D1*X810751*X810189Y-695894*X809907Y-696457*Y-696738*X810189Y-697301*X810751Y-697582*X811595*X812157Y-697863*X812438Y-698425*Y-698707*X812157Y-699269*X811595Y-699550*X810470*X809907Y-699269*X805689Y-699550D2*X806533D1*X807095Y-699269*X807376Y-698988*X807658Y-698425*Y-696738*X807376Y-696176*X807095Y-695894*X806533Y-695613*X805689*X805127Y-695894*X804846Y-696176*X804564Y-696738*Y-698425*X804846Y-698988*X805127Y-699269*X805689Y-699550*X802033Y-693645D2*X801752Y-693926D1*X801190Y-694207*X800065Y-693645*X799502Y-693926*X799221Y-694207*X802033Y-697019D2*X801471Y-697301D1*X800065*X799502Y-697582*X799221Y-698144*Y-698707*X799502Y-699269*X800065Y-699550*X801471*X802033Y-699269*X799502Y-695894D2*X800065Y-695613D1*X801190*X801752Y-695894*X802033Y-696457*Y-699550*X795003Y-701519D2*X795847D1*X796409Y-701238*X796690Y-700675*X796409Y-700113*X795847Y-699831*X796972Y-695894D2*X796409Y-695613D1*X795284*X794722Y-695894*X794441Y-696176*X794159Y-696738*Y-698425*X794441Y-698988*X794722Y-699269*X795284Y-699550*X796409*X796972Y-699269*X791628Y-697019D2*X791066Y-697301D1*X789660*X789098Y-697582*X788816Y-698144*Y-698707*X789098Y-699269*X789660Y-699550*X791066*X791628Y-699269*X789098Y-695894D2*X789660Y-695613D1*X790785*X791347Y-695894*X791628Y-696457*Y-699550*X786285Y-695894D2*X785723Y-695613D1*X784598*X784036Y-695894*X783754Y-696176*X783473Y-696738*Y-698425*X783754Y-698988*X784036Y-699269*X784598Y-699550*X785723*X786285Y-699269*X783754Y-701238D2*X784317Y-701519D1*X785161*X785723Y-701238*X786004Y-700956*X786285Y-700394*Y-695613*X780942Y-694207D2*Y-693645D1*X781224Y-693926*X780942Y-694207*X780661Y-693926*X780942Y-693645*Y-699550D2*Y-695613D1*X777849Y-693645D2*Y-698707D1*X778130Y-699269*X778693Y-699550*X770537Y-695894D2*X769975Y-695613D1*X769131*X768569Y-695894*X768288Y-696457*Y-696738*X768569Y-697301*X769131Y-697582*X769975*X770537Y-697863*X770819Y-698425*Y-698707*X770537Y-699269*X769975Y-699550*X768850*X768288Y-699269*X765757Y-697019D2*X765194Y-697301D1*X763788*X763226Y-697582*X762945Y-698144*Y-698707*X763226Y-699269*X763788Y-699550*X765194*X765757Y-699269*X763226Y-695894D2*X763788Y-695613D1*X764913*X765475Y-695894*X765757Y-696457*Y-699550*X760414Y-695894D2*X759851Y-695613D1*X758726*X758164Y-695894*X757883Y-696176*X757601Y-696738*Y-698425*X757883Y-698988*X758164Y-699269*X758726Y-699550*X759851*X760414Y-699269*Y-699550D2*Y-693645D1*X748884Y-699550D2*X749727D1*X750290Y-699269*X750571Y-698988*X750852Y-698425*Y-696738*X750571Y-696176*X750290Y-695894*X749727Y-695613*X748884*X748321Y-695894*X748040Y-696176*X747759Y-696738*Y-698425*X748040Y-698988*X748321Y-699269*X748884Y-699550*X745228Y-693645D2*X744947Y-693926D1*X744384Y-694207*X743259Y-693645*X742697Y-693926*X742416Y-694207*X745228Y-697019D2*X744666Y-697301D1*X743259*X742697Y-697582*X742416Y-698144*Y-698707*X742697Y-699269*X743259Y-699550*X744666*X745228Y-699269*X742697Y-695894D2*X743259Y-695613D1*X744384*X744947Y-695894*X745228Y-696457*Y-699550*X739885Y-695894D2*X739322Y-695613D1*X738479*X737916Y-695894*X737635Y-696457*Y-696738*X737916Y-697301*X738479Y-697582*X739322*X739885Y-697863*X740166Y-698425*Y-698707*X739885Y-699269*X739322Y-699550*X738198*X737635Y-699269*X735104Y-694207D2*Y-693645D1*X735385Y-693926*X735104Y-694207*X734823Y-693926*X735104Y-693645*Y-699550D2*Y-695613D1*X732855D2*X731448Y-699550D1*X730042Y-695613*X725262Y-697582D2*X728074Y-697019D1*Y-696457*X727793Y-695894*X727230Y-695613*X726105*X725543Y-695894*X725262Y-696457*Y-698707*X725543Y-699269*X726105Y-699550*X727230*X727793Y-699269*X719637Y-696738D2*X721887D1*X722450Y-696457*X722731Y-696176*X723012Y-695613*Y-694770*X722731Y-694207*X722450Y-693926*X721887Y-693645*X719637*Y-699550*X723012D2*X721044Y-696738D1*X707826Y-697301D2*X712326D1*X701921Y-695332D2*X702483Y-695051D1*X703046Y-694488*X703608Y-693645*Y-699550*X705296D2*X701921D1*X726668Y-720079D2*Y-719517D1*X726387Y-719798*X726668Y-720079*X726949Y-719798*X726668Y-719517*Y-723172D2*Y-722610D1*X726387Y-722891*X726668Y-723172*X726949Y-722891*X726668Y-722610*X724699Y-723172D2*X724137D1*X723574Y-722891*X723293Y-722329*Y-717267*X722450Y-719235D2*X724699D1*X717950Y-721204D2*X720762Y-720641D1*Y-720079*X720481Y-719517*X719919Y-719235*X718794*X718231Y-719517*X717950Y-720079*Y-722329*X718231Y-722891*X718794Y-723172*X719919*X720481Y-722891*X712888Y-721204D2*X715700Y-720641D1*Y-720079*X715419Y-719517*X714857Y-719235*X713732*X713170Y-719517*X712888Y-720079*Y-722329*X713170Y-722891*X713732Y-723172*X714857*X715419Y-722891*X707826Y-719798D2*X708108Y-719517D1*X708670Y-719235*X709514*X710076Y-719517*X710357Y-720079*Y-723172*X707826D2*Y-717267D1*X705296Y-717548D2*X704452Y-717267D1*X703046*X702483Y-717548*X702202Y-717829*X701921Y-718392*Y-718954*X702202Y-719517*X702483Y-719798*X703046Y-720079*X704171Y-720360*X704733Y-720641*X705014Y-720923*X705296Y-721485*Y-722047*X705014Y-722610*X704733Y-722891*X704171Y-723172*X702765*X701921Y-722891*X696859Y-714595D2*X1122056D1*X878243Y-733521D2*X878805Y-733802D1*X879930*X880492Y-733521*X880774Y-733240*X881055Y-732677*Y-730990*X880774Y-730428*X880492Y-730146*X879930Y-729865*X878805*X878243Y-730146*Y-733802D2*Y-727897D1*X875712Y-730146D2*X875149Y-729865D1*X874024*X873462Y-730146*X873181Y-730428*X872900Y-730990*Y-732677*X873181Y-733240*X873462Y-733521*X874024Y-733802*X875149*X875712Y-733521*X867838D2*X868400Y-733802D1*X869525*X870087Y-733521*X870369Y-733240*X870650Y-732677*Y-730990*X870369Y-730428*X870087Y-730146*X869525Y-729865*X868400*X867838Y-730146*Y-729865D2*Y-735771D1*X861932Y-734365D2*X866432D1*X860526Y-730146D2*X859964Y-729865D1*X858839*X858276Y-730146*X857995Y-730428*X857714Y-730990*Y-732677*X857995Y-733240*X858276Y-733521*X858839Y-733802*X859964*X860526Y-733521*Y-733802D2*Y-727897D1*X855183Y-731271D2*X854621Y-731553D1*X853215*X852652Y-731834*X852371Y-732396*Y-732959*X852652Y-733521*X853215Y-733802*X854621*X855183Y-733521*X852652Y-730146D2*X853215Y-729865D1*X854339*X854902Y-730146*X855183Y-730709*Y-733802*X850121Y-730146D2*X849559Y-729865D1*X848434*X847871Y-730146*X847590Y-730428*X847309Y-730990*Y-732677*X847590Y-733240*X847871Y-733521*X848434Y-733802*X849559*X850121Y-733521*X844778Y-728459D2*Y-727897D1*X845059Y-728178*X844778Y-728459*X844497Y-728178*X844778Y-727897*Y-733802D2*Y-729865D1*X842247D2*X839997Y-732115D1*X840560Y-731553D2*X842247Y-733802D1*X839997D2*Y-727897D1*X837185Y-733802D2*Y-733240D1*X836904Y-733521*X837185Y-733802*X837466Y-733521*X837185Y-733240*X834373Y-727897D2*Y-733802D1*X830999Y-727897*Y-733802*X825937Y-727897D2*X825374Y-728178D1*X824812Y-728740*X824531Y-729865*Y-731834*X824812Y-732959*X825374Y-733521*X825937Y-733802*X827062*X827624Y-733521*X828186Y-732959*X828468Y-731834*Y-729865*X828186Y-728740*X827624Y-728178*X827062Y-727897*X825937*X822000Y-733802D2*Y-727897D1*X818344Y-733802D2*Y-727897D1*X816657D2*X820031D1*X814688D2*Y-732677D1*X814407Y-733240*X814126Y-733521*X813563Y-733802*X812438*X811876Y-733521*X811595Y-733240*X811314Y-732677*Y-727897*X806533D2*Y-733802D1*X809345*X801471Y-727897D2*X800909Y-728178D1*X800346Y-728740*X800065Y-729865*Y-731834*X800346Y-732959*X800909Y-733521*X801471Y-733802*X802596*X803158Y-733521*X803721Y-732959*X804002Y-731834*Y-729865*X803721Y-728740*X803158Y-728178*X802596Y-727897*X801471*X798378D2*X796409Y-733802D1*X794441Y-727897*X792753D2*X789941D1*Y-733802*X792753*X789941Y-730709D2*X791910D1*X784036Y-730990D2*X786285D1*X786848Y-730709*X787129Y-730428*X787410Y-729865*Y-729022*X787129Y-728459*X786848Y-728178*X786285Y-727897*X784036*Y-733802*X787410D2*X785442Y-730990D1*X778130Y-734365D2*X782630D1*X777005Y-728178D2*X776162Y-727897D1*X774756*X774193Y-728178*X773912Y-728459*X773631Y-729022*Y-729584*X773912Y-730146*X774193Y-730428*X774756Y-730709*X775880Y-730990*X776443Y-731271*X776724Y-731553*X777005Y-732115*Y-732677*X776724Y-733240*X776443Y-733521*X775880Y-733802*X774474*X773631Y-733521*X768850Y-727897D2*X768288Y-728178D1*X767725Y-728740*X767444Y-729865*Y-731834*X767725Y-732959*X768288Y-733521*X768850Y-733802*X769975*X770537Y-733521*X771100Y-732959*X771381Y-731834*Y-729865*X771100Y-728740*X770537Y-728178*X769975Y-727897*X768850*X764913Y-733802D2*Y-727897D1*X759008Y-730709D2*X760976D1*X761538Y-730428*X761820Y-730146*X762101Y-729584*Y-729022*X761820Y-728459*X761538Y-728178*X760976Y-727897*X759008*Y-733802*X761257*X761820Y-733521*X762101Y-733240*X762382Y-732677*Y-731834*X762101Y-731271*X761820Y-730990*X760976Y-730709*X753102Y-734365D2*X757601D1*X751696Y-733802D2*Y-727897D1*X749727Y-732115*X747759Y-727897*Y-733802*X745790D2*X743822Y-727897D1*X741853Y-733802*X742416Y-732115D2*X745228D1*X740166Y-727897D2*X737354D1*Y-733802*X740166*X737354Y-730709D2*X739322D1*X731448Y-730990D2*X733698D1*X734261Y-730709*X734542Y-730428*X734823Y-729865*Y-729022*X734542Y-728459*X734261Y-728178*X733698Y-727897*X731448*Y-733802*X734823D2*X732855Y-730990D1*X725543Y-733802D2*X726949D1*X727793Y-733521*X728355Y-732959*X728636Y-732396*X728918Y-731271*Y-730428*X728636Y-729303*X728355Y-728740*X727793Y-728178*X726949Y-727897*X725543*Y-733802*X718231Y-730709D2*Y-730146D1*X717950Y-730428*X718231Y-730709*X718513Y-730428*X718231Y-730146*Y-733802D2*Y-733240D1*X717950Y-733521*X718231Y-733802*X718513Y-733521*X718231Y-733240*X712888Y-731834D2*X715700Y-731271D1*Y-730709*X715419Y-730146*X714857Y-729865*X713732*X713170Y-730146*X712888Y-730709*Y-732959*X713170Y-733521*X713732Y-733802*X714857*X715419Y-733521*X710076Y-727897D2*Y-732959D1*X710357Y-733521*X710920Y-733802*X707264Y-728459D2*Y-727897D1*X707545Y-728178*X707264Y-728459*X706983Y-728178*X707264Y-727897*Y-733802D2*Y-729865D1*X705014Y-727897D2*X702202D1*Y-733802*X704171Y-730709D2*X702202D1*X696859Y-738217D2*X1122056D1*X1063844Y-769741D2*X1064407Y-769460D1*X1064969Y-768898*X1065532Y-768054*Y-773960*X1067219D2*X1063844D1*X1062157Y-767773D2*X1057095Y-775366D1*X1052033Y-769741D2*X1052596Y-769460D1*X1053158Y-768898*X1053721Y-768054*Y-773960*X1055408D2*X1052033D1*X1045003Y-770866D2*Y-770304D1*X1044722Y-770585*X1045003Y-770866*X1045284Y-770585*X1045003Y-770304*Y-773960D2*Y-773397D1*X1044722Y-773679*X1045003Y-773960*X1045284Y-773679*X1045003Y-773397*X1042191Y-770304D2*X1041628Y-770023D1*X1040504*X1039941Y-770304*X1039660Y-770585*X1039379Y-771148*Y-772835*X1039660Y-773397*X1039941Y-773679*X1040504Y-773960*X1041628*X1042191Y-773679*Y-773960D2*Y-768054D1*X1036848Y-773960D2*Y-768054D1*X736229Y-760968D2*X732573D1*X733979Y-756749*X735385Y-758999D2*Y-762936D1*X730886D2*X728918Y-757031D1*X726949Y-762936*X727511Y-761249D2*X730324D1*X720481Y-759843D2*Y-759280D1*X720200Y-759562*X720481Y-759843*X720762Y-759562*X720481Y-759280*Y-762936D2*Y-762374D1*X720200Y-762655*X720481Y-762936*X720762Y-762655*X720481Y-762374*X715138Y-760968D2*X717950Y-760405D1*Y-759843*X717669Y-759280*X717107Y-758999*X715982*X715419Y-759280*X715138Y-759843*Y-762092*X715419Y-762655*X715982Y-762936*X717107*X717669Y-762655*X713170Y-762936D2*X710076D1*X713170Y-758999*X710076*X707826Y-757593D2*Y-757031D1*X708108Y-757312*X707826Y-757593*X707545Y-757312*X707826Y-757031*Y-762936D2*Y-758999D1*X705296Y-757312D2*X704452Y-757031D1*X703046*X702483Y-757312*X702202Y-757593*X701921Y-758155*Y-758718*X702202Y-759280*X702483Y-759562*X703046Y-759843*X704171Y-760124*X704733Y-760405*X705014Y-760686*X705296Y-761249*Y-761811*X705014Y-762374*X704733Y-762655*X704171Y-762936*X702765*X701921Y-762655*X696859Y-753965D2*X1122056D1*X696859Y-765776D2*X1122056D1*X871775Y-759562D2*X872337Y-759843D1*X872618Y-760124*X872900Y-760686*Y-761811*X872618Y-762374*X872337Y-762655*X871775Y-762936*X870650*X870087Y-762655*X869806Y-762374*X869525Y-761811*Y-760686*X869806Y-760124*X870087Y-759843*X870650Y-759562*X871775*X872337Y-759280*X872618Y-758999*X872900Y-758437*Y-758155*X872618Y-757593*X872337Y-757312*X871775Y-757031*X870650*X870087Y-757312*X869806Y-757593*X869525Y-758155*Y-758437*X869806Y-758999*X870087Y-759280*X870650Y-759562*X865307Y-757031D2*X864744Y-757312D1*X864463Y-757593*X864182Y-758155*X863901Y-759280*Y-760686*X864182Y-761811*X864463Y-762374*X864744Y-762655*X865307Y-762936*X865869*X866432Y-762655*X866713Y-762374*X866994Y-761811*X867275Y-760686*Y-759280*X866994Y-758155*X866713Y-757593*X866432Y-757312*X865869Y-757031*X865307*X856870Y-760686D2*X861370D1*X853214Y-759562D2*X853777Y-759843D1*X854058Y-760124*X854339Y-760686*Y-761811*X854058Y-762374*X853777Y-762655*X853214Y-762936*X852090*X851527Y-762655*X851246Y-762374*X850965Y-761811*Y-760686*X851246Y-760124*X851527Y-759843*X852090Y-759562*X853214*X853777Y-759280*X854058Y-758999*X854339Y-758437*Y-758155*X854058Y-757593*X853777Y-757312*X853214Y-757031*X852090*X851527Y-757312*X851246Y-757593*X850965Y-758155*Y-758437*X851246Y-758999*X851527Y-759280*X852090Y-759562*X846747Y-757031D2*X846184Y-757312D1*X845903Y-757593*X845622Y-758155*X845340Y-759280*Y-760686*X845622Y-761811*X845903Y-762374*X846184Y-762655*X846747Y-762936*X847309*X847871Y-762655*X848153Y-762374*X848434Y-761811*X848715Y-760686*Y-759280*X848434Y-758155*X848153Y-757593*X847871Y-757312*X847309Y-757031*X846747*X838310Y-760686D2*X842810D1*X832405Y-760405D2*X832686Y-759843D1*X832967Y-759562*X833529Y-759280*X834654*X835217Y-759562*X835498Y-759843*X835779Y-760405*Y-761811*X835498Y-762374*X835217Y-762655*X834654Y-762936*X833529*X832967Y-762655*X832686Y-762374*X832405Y-761811*Y-759562*X832686Y-758437*X833248Y-757593*X833529Y-757312*X834092Y-757031*X835217*X826780Y-758718D2*X827343Y-758437D1*X827905Y-757874*X828468Y-757031*Y-762936*X830155D2*X826780D1*X822562Y-757031D2*X822000Y-757312D1*X821718Y-757593*X821437Y-758155*X821156Y-759280*Y-760686*X821437Y-761811*X821718Y-762374*X822000Y-762655*X822562Y-762936*X823125*X823687Y-762655*X823968Y-762374*X824249Y-761811*X824531Y-760686*Y-759280*X824249Y-758155*X823968Y-757593*X823687Y-757312*X823125Y-757031*X822562*X818906Y-762936D2*X815251D1*X818625Y-759562*X818906Y-758718*Y-758155*X818625Y-757593*X818344Y-757312*X817781Y-757031*X816375*X815813Y-757312*X815532Y-757593*X808501Y-759843D2*Y-759280D1*X808220Y-759562*X808501Y-759843*X808783Y-759562*X808501Y-759280*Y-762936D2*Y-762374D1*X808220Y-762655*X808501Y-762936*X808783Y-762655*X808501Y-762374*X803158Y-760968D2*X805970Y-760405D1*Y-759843*X805689Y-759280*X805127Y-758999*X804002*X803439Y-759280*X803158Y-759843*Y-762092*X803439Y-762655*X804002Y-762936*X805127*X805689Y-762655*X801471Y-762936D2*X800909D1*X800346Y-762655*X800065Y-762092*Y-757031*X799221Y-758999D2*X801471D1*X797253Y-760405D2*X796690Y-760686D1*X795284*X794722Y-760968*X794441Y-761530*Y-762092*X794722Y-762655*X795284Y-762936*X796690*X797253Y-762655*X794722Y-759280D2*X795284Y-758999D1*X796409*X796972Y-759280*X797253Y-759843*Y-762936*X788816D2*X790222D1*X791066Y-762655*X791628Y-762092*X791910Y-761530*X792191Y-760405*Y-759562*X791910Y-758437*X791628Y-757874*X791066Y-757312*X790222Y-757031*X788816*Y-762936*X1124652Y-730662D2*X1125871D1*X1126602Y-730418*X1127090Y-729931*X1127333Y-729443*X1127577Y-728468*Y-727737*X1127333Y-726762*X1127090Y-726275*X1126602Y-725787*X1125871Y-725544*X1124652*Y-730662*X1127577Y-529181D2*X1127333Y-528937D1*X1126602Y-528693*X1126115*X1125384Y-528937*X1124896Y-529424*X1124652Y-529912*X1124409Y-530887*Y-531618*X1124652Y-532593*X1124896Y-533080*X1125384Y-533568*X1126115Y-533811*X1126602*X1127333Y-533568*X1127577Y-533324*X1124652Y-334280D2*X1126359D1*X1126846Y-334036*X1127090Y-333793*X1127333Y-333305*Y-332818*X1127090Y-332330*X1126846Y-332087*X1126359Y-331843*X1124652*Y-336961*X1126602*X1127090Y-336717*X1127333Y-336474*X1127577Y-335986*Y-335255*X1127333Y-334768*X1127090Y-334524*X1126359Y-334280*X1127699Y-140111D2*X1125993Y-134993D1*X1124287Y-140111*X1124774Y-138648D2*X1127211D1*X1129930Y-629921D2*X1122056D1*X1129930Y-433071D2*X1122056D1*X1129930Y-236220D2*X1122056D1*X41967Y-730662D2*X43185D1*X43916Y-730418*X44404Y-729931*X44648Y-729443*X44891Y-728468*Y-727737*X44648Y-726762*X44404Y-726275*X43916Y-725787*X43185Y-725544*X41967*Y-730662*X44891Y-529181D2*X44648Y-528937D1*X43916Y-528693*X43429*X42698Y-528937*X42210Y-529424*X41967Y-529912*X41723Y-530887*Y-531618*X41967Y-532593*X42210Y-533080*X42698Y-533568*X43429Y-533811*X43916*X44648Y-533568*X44891Y-533324*X41967Y-334280D2*X43673D1*X44160Y-334036*X44404Y-333793*X44648Y-333305*Y-332818*X44404Y-332330*X44160Y-332087*X43673Y-331843*X41967*Y-336961*X43916*X44404Y-336717*X44648Y-336474*X44891Y-335986*Y-335255*X44648Y-334768*X44404Y-334524*X43673Y-334280*X45013Y-140111D2*X43307Y-134993D1*X41601Y-140111*X42089Y-138648D2*X44526D1*X39370Y-629921D2*X47244D1*X39370Y-433071D2*X47244D1*X39370Y-236220D2*X47244D1*X1123022Y-783615D2*X1123266Y-783127D1*X1123510Y-782884*X1123997Y-782640*X1124972*X1125459Y-782884*X1125703Y-783127*X1125947Y-783615*Y-784833*X1125703Y-785321*X1125459Y-785565*X1124972Y-785808*X1123997*X1123510Y-785565*X1123266Y-785321*X1123022Y-784833*Y-782884*X1123266Y-781909*X1123753Y-781178*X1123997Y-780934*X1124484Y-780690*X1125459*X926172Y-785321D2*X926415Y-785565D1*X926903Y-785808*X928121*X928609Y-785565*X928853Y-785321*X929096Y-784833*Y-783615*X928853Y-783127*X928609Y-782884*X928121Y-782640*X926903*X926415Y-782884*X926172Y-783127*X926415Y-780690*X928853*X732490Y-784102D2*X729321D1*X730540Y-780446*X731759Y-782396D2*Y-785808D1*X532227Y-785321D2*X532471Y-785565D1*X532958Y-785808*X534421*X534908Y-785565*X535152Y-785321*X535396Y-784833*Y-783615*X535152Y-783127*X534908Y-782884*X534421Y-782640*X533690*X535396Y-780690*X532227*X338545Y-785808D2*X335377D1*X338301Y-782884*X338545Y-782152*Y-781665*X338301Y-781178*X338058Y-780934*X337570Y-780690*X336352*X335864Y-780934*X335621Y-781178*X138770Y-782152D2*X139258Y-781909D1*X139745Y-781421*X140232Y-780690*Y-785808*X141695D2*X138770D1*X1023622Y-779556D2*Y-787430D1*X826772Y-779556D2*Y-787430D1*X629921Y-779556D2*Y-787430D1*X433071Y-779556D2*Y-787430D1*X236220Y-779556D2*Y-787430D1*X1123022Y-43429D2*X1123266Y-42941D1*X1123510Y-42698*X1123997Y-42454*X1124972*X1125459Y-42698*X1125703Y-42941*X1125947Y-43429*Y-44648*X1125703Y-45135*X1125459Y-45379*X1124972Y-45622*X1123997*X1123510Y-45379*X1123266Y-45135*X1123022Y-44648*Y-42698*X1123266Y-41723*X1123753Y-40992*X1123997Y-40748*X1124484Y-40504*X1125459*X926172Y-45135D2*X926415Y-45379D1*X926903Y-45622*X928121*X928609Y-45379*X928853Y-45135*X929096Y-44648*Y-43429*X928853Y-42941*X928609Y-42698*X928121Y-42454*X926903*X926415Y-42698*X926172Y-42941*X926415Y-40504*X928853*X732490Y-43916D2*X729321D1*X730540Y-40261*X731759Y-42210D2*Y-45622D1*X532227Y-45135D2*X532471Y-45379D1*X532958Y-45622*X534421*X534908Y-45379*X535152Y-45135*X535396Y-44648*Y-43429*X535152Y-42941*X534908Y-42698*X534421Y-42454*X533690*X535396Y-40504*X532227*X338545Y-45622D2*X335377D1*X338301Y-42698*X338545Y-41967*Y-41479*X338301Y-40992*X338058Y-40748*X337570Y-40504*X336352*X335864Y-40748*X335621Y-40992*X138770Y-41967D2*X139258Y-41723D1*X139745Y-41235*X140232Y-40504*Y-45622*X141695D2*X138770D1*X1023622Y-47244D2*Y-39370D1*X826772Y-47244D2*Y-39370D1*X629921Y-47244D2*Y-39370D1*X433071Y-47244D2*Y-39370D1*X236220Y-47244D2*Y-39370D1*X47244Y-47244D2*X1122056D1*Y-779556*X47244*Y-47244*X39370Y-39370D2*X1129930D1*Y-787430*X39370*Y-39370*X696859Y-653572D2*X1122056D1*Y-779556*X696859*Y-653572*D12*X913170Y-93766D2*Y-99672D1*X909795Y-93766*Y-99672*X904733Y-93766D2*X904171Y-94047D1*X903609Y-94610*X903327Y-95735*Y-97703*X903609Y-98828*X904171Y-99390*X904733Y-99672*X905858*X906421Y-99390*X906983Y-98828*X907264Y-97703*Y-95735*X906983Y-94610*X906421Y-94047*X905858Y-93766*X904733*X901078Y-94047D2*X900234Y-93766D1*X898828*X898265Y-94047*X897984Y-94328*X897703Y-94891*Y-95453*X897984Y-96016*X898265Y-96297*X898828Y-96578*X899953Y-96859*X900515Y-97141*X900796Y-97422*X901078Y-97984*Y-98547*X900796Y-99109*X900515Y-99390*X899953Y-99672*X898547*X897703Y-99390*X893204Y-93766D2*Y-99672D1*X896016*X890391D2*Y-93766D1*X888423Y-99672D2*X886454Y-93766D1*X884486Y-99672*X885048Y-97984D2*X887861D1*X880268Y-99672D2*X880830D1*X881674Y-99390*X882236Y-98828*X882517Y-97984*Y-93766*X981415Y-108766D2*Y-114672D1*X978041Y-108766*Y-114672*X972979Y-108766D2*X972416Y-109047D1*X971854Y-109610*X971573Y-110735*Y-112703*X971854Y-113828*X972416Y-114390*X972979Y-114672*X974104*X974666Y-114390*X975228Y-113828*X975510Y-112703*Y-110735*X975228Y-109610*X974666Y-109047*X974104Y-108766*X972979*X969042Y-114672D2*Y-108766D1*X965386Y-114672D2*Y-108766D1*X963699D2*X967073D1*X961730D2*Y-113547D1*X961449Y-114109*X961168Y-114390*X960605Y-114672*X959480*X958918Y-114390*X958637Y-114109*X958355Y-113547*Y-108766*X953575D2*Y-114672D1*X956387*X948513Y-108766D2*X947951Y-109047D1*X947388Y-109610*X947107Y-110735*Y-112703*X947388Y-113828*X947951Y-114390*X948513Y-114672*X949638*X950200Y-114390*X950763Y-113828*X951044Y-112703*Y-110735*X950763Y-109610*X950200Y-109047*X949638Y-108766*X948513*X945420D2*X943451Y-114672D1*X941483Y-108766*X939795D2*X936983D1*Y-114672*X939795*X936983Y-111578D2*X938952D1*X931078Y-111859D2*X933327D1*X933890Y-111578*X934171Y-111297*X934452Y-110735*Y-109891*X934171Y-109328*X933890Y-109047*X933327Y-108766*X931078*Y-114672*X934452D2*X932484Y-111859D1*X925172Y-115234D2*X929672D1*X924047Y-109047D2*X923204Y-108766D1*X921798*X921235Y-109047*X920954Y-109328*X920673Y-109891*Y-110453*X920954Y-111016*X921235Y-111297*X921798Y-111578*X922922Y-111859*X923485Y-112141*X923766Y-112422*X924047Y-112984*Y-113547*X923766Y-114109*X923485Y-114390*X922922Y-114672*X921516*X920673Y-114390*X915892Y-108766D2*X915330Y-109047D1*X914767Y-109610*X914486Y-110735*Y-112703*X914767Y-113828*X915330Y-114390*X915892Y-114672*X917017*X917579Y-114390*X918142Y-113828*X918423Y-112703*Y-110735*X918142Y-109610*X917579Y-109047*X917017Y-108766*X915892*X911955Y-114672D2*Y-108766D1*X906049Y-111578D2*X908018D1*X908580Y-111297*X908862Y-111016*X909143Y-110453*Y-109891*X908862Y-109328*X908580Y-109047*X908018Y-108766*X906049*Y-114672*X908299*X908862Y-114390*X909143Y-114109*X909424Y-113547*Y-112703*X909143Y-112141*X908862Y-111859*X908018Y-111578*X900144Y-115234D2*X904643D1*X898738Y-114672D2*Y-108766D1*X896769Y-112984*X894801Y-108766*Y-114672*X892832D2*X890864Y-108766D1*X888895Y-114672*X889458Y-112984D2*X892270D1*X887208Y-108766D2*X884396D1*Y-114672*X887208*X884396Y-111578D2*X886364D1*X878490Y-111859D2*X880740D1*X881303Y-111578*X881584Y-111297*X881865Y-110735*Y-109891*X881584Y-109328*X881303Y-109047*X880740Y-108766*X878490*Y-114672*X881865D2*X879896Y-111859D1*X872585Y-114672D2*X873991D1*X874835Y-114390*X875397Y-113828*X875678Y-113265*X875959Y-112141*Y-111297*X875678Y-110172*X875397Y-109610*X874835Y-109047*X873991Y-108766*X872585*Y-114672*X879781Y-126703D2*X876125D1*X877531Y-122485*X878937Y-124735D2*Y-128672D1*X871907Y-122766D2*X871344Y-123047D1*X871063Y-123328*X870782Y-123891*X870501Y-125016*Y-126422*X870782Y-127547*X871063Y-128109*X871344Y-128390*X871907Y-128672*X872469*X873031Y-128390*X873313Y-128109*X873594Y-127547*X873875Y-126422*Y-125016*X873594Y-123891*X873313Y-123328*X873031Y-123047*X872469Y-122766*X871907*X911375Y-125297D2*X911937Y-125578D1*X912218Y-125859*X912499Y-126422*Y-127547*X912218Y-128109*X911937Y-128390*X911375Y-128672*X910250*X909687Y-128390*X909406Y-128109*X909125Y-127547*Y-126422*X909406Y-125859*X909687Y-125578*X910250Y-125297*X911375*X911937Y-125016*X912218Y-124735*X912499Y-124172*Y-123891*X912218Y-123328*X911937Y-123047*X911375Y-122766*X910250*X909687Y-123047*X909406Y-123328*X909125Y-123891*Y-124172*X909406Y-124735*X909687Y-125016*X910250Y-125297*X904907Y-122766D2*X904344Y-123047D1*X904063Y-123328*X903782Y-123891*X903501Y-125016*Y-126422*X903782Y-127547*X904063Y-128109*X904344Y-128390*X904907Y-128672*X905469*X906031Y-128390*X906313Y-128109*X906594Y-127547*X906875Y-126422*Y-125016*X906594Y-123891*X906313Y-123328*X906031Y-123047*X905469Y-122766*X904907*X956749Y-126141D2*X957030Y-125578D1*X957312Y-125297*X957874Y-125016*X958999*X959561Y-125297*X959843Y-125578*X960124Y-126141*Y-127547*X959843Y-128109*X959561Y-128390*X958999Y-128672*X957874*X957312Y-128390*X957030Y-128109*X956749Y-127547*Y-125297*X957030Y-124172*X957593Y-123328*X957874Y-123047*X958436Y-122766*X959561*X951125Y-124453D2*X951687Y-124172D1*X952250Y-123610*X952812Y-122766*Y-128672*X954499D2*X951125D1*X946907Y-122766D2*X946344Y-123047D1*X946063Y-123328*X945782Y-123891*X945501Y-125016*Y-126422*X945782Y-127547*X946063Y-128109*X946344Y-128390*X946907Y-128672*X947469*X948031Y-128390*X948313Y-128109*X948594Y-127547*X948875Y-126422*Y-125016*X948594Y-123891*X948313Y-123328*X948031Y-123047*X947469Y-122766*X946907*X943251Y-128672D2*X939595D1*X942970Y-125297*X943251Y-124453*Y-123891*X942970Y-123328*X942688Y-123047*X942126Y-122766*X940720*X940157Y-123047*X939876Y-123328*X885969Y-167766D2*X882031Y-173672D1*Y-167766D2*X885969Y-173672D1*X838969Y-237766D2*X835031Y-243672D1*Y-237766D2*X838969Y-243672D1*X1000969Y-312766D2*X997031Y-318672D1*Y-312766D2*X1000969Y-318672D1*X904969Y-289766D2*X901031Y-295672D1*Y-289766D2*X904969Y-295672D1*X961906Y-360672D2*X958250D1*X961624Y-357297*X961906Y-356453*Y-355891*X961624Y-355328*X961343Y-355047*X960781Y-354766*X959375*X958812Y-355047*X958531Y-355328*X955719Y-361515D2*X956000Y-361234D1*X956281Y-360672*Y-360390*X951501Y-354766D2*X950938Y-355047D1*X950657Y-355328*X950376Y-355891*X950094Y-357016*Y-358422*X950376Y-359547*X950657Y-360109*X950938Y-360390*X951501Y-360672*X952063*X952625Y-360390*X952907Y-360109*X953188Y-359547*X953469Y-358422*Y-357016*X953188Y-355891*X952907Y-355328*X952625Y-355047*X952063Y-354766*X951501*X967343Y-375109D2*X967624Y-375390D1*X968187Y-375672*X969593*X970155Y-375390*X970436Y-375109*X970718Y-374547*Y-373141*X970436Y-372578*X970155Y-372297*X969593Y-372016*X968187*X967624Y-372297*X967343Y-372578*X967624Y-369766*X970436*X965093Y-375672D2*X961438D1*X964812Y-372297*X965093Y-371453*Y-370891*X964812Y-370328*X964531Y-370047*X963969Y-369766*X962562*X962000Y-370047*X961719Y-370328*X958907Y-376515D2*X959188Y-376234D1*X959469Y-375672*Y-375390*X954688Y-369766D2*X954126Y-370047D1*X953845Y-370328*X953564Y-370891*X953282Y-372016*Y-373422*X953564Y-374547*X953845Y-375109*X954126Y-375390*X954688Y-375672*X955251*X955813Y-375390*X956094Y-375109*X956376Y-374547*X956657Y-373422*Y-372016*X956376Y-370891*X956094Y-370328*X955813Y-370047*X955251Y-369766*X954688*X833969Y-400766D2*X830031Y-406672D1*Y-400766D2*X833969Y-406672D1*X909969Y-461766D2*X906031Y-467672D1*Y-461766D2*X909969Y-467672D1*X949969Y-501766D2*X946031Y-507672D1*Y-501766D2*X949969Y-507672D1*X1088495Y-512396D2*X1086526Y-506490D1*X1084558Y-512396*X1085120Y-510709D2*X1087933D1*X1079496Y-512396D2*X1080902D1*X1081746Y-512115*X1082308Y-511552*X1082589Y-510990*X1082871Y-509865*Y-509021*X1082589Y-507896*X1082308Y-507334*X1081746Y-506772*X1080902Y-506490*X1079496*Y-512396*X1074715Y-506490D2*Y-512396D1*X1077528*X1069654Y-506490D2*X1069091Y-506772D1*X1068529Y-507334*X1068247Y-508459*Y-510427*X1068529Y-511552*X1069091Y-512115*X1069654Y-512396*X1070778*X1071341Y-512115*X1071903Y-511552*X1072184Y-510427*Y-508459*X1071903Y-507334*X1071341Y-506772*X1070778Y-506490*X1069654*X1065998Y-506772D2*X1065154Y-506490D1*X1063748*X1063186Y-506772*X1062904Y-507053*X1062623Y-507615*Y-508178*X1062904Y-508740*X1063186Y-509021*X1063748Y-509303*X1064873Y-509584*X1065435Y-509865*X1065717Y-510146*X1065998Y-510709*Y-511271*X1065717Y-511834*X1065435Y-512115*X1064873Y-512396*X1063467*X1062623Y-512115*X1053343Y-506490D2*X1052781Y-506772D1*X1052218Y-507334*X1051937Y-508459*Y-510427*X1052218Y-511552*X1052781Y-512115*X1053343Y-512396*X1054468*X1055030Y-512115*X1055593Y-511552*X1055874Y-510427*Y-508459*X1055593Y-507334*X1055030Y-506772*X1054468Y-506490*X1053343*X1046313Y-512396D2*X1047719D1*X1048562Y-512115*X1049125Y-511552*X1049406Y-510990*X1049687Y-509865*Y-509021*X1049406Y-507896*X1049125Y-507334*X1048562Y-506772*X1047719Y-506490*X1046313*Y-512396*X1044344D2*X1042376Y-506490D1*X1040407Y-512396*X1040970Y-510709D2*X1043782D1*X1036470Y-506490D2*Y-512396D1*X1039282*X1024940Y-506490D2*X1021566Y-509865D1*X1024940Y-512396D2*X1022409Y-509021D1*X1021566Y-512396D2*Y-506490D1*X1016785D2*Y-512396D1*X1019597*X1013973D2*Y-506490D1*X1011442Y-506772D2*X1010598Y-506490D1*X1009192*X1008630Y-506772*X1008349Y-507053*X1008067Y-507615*Y-508178*X1008349Y-508740*X1008630Y-509021*X1009192Y-509303*X1010317Y-509584*X1010880Y-509865*X1011161Y-510146*X1011442Y-510709*Y-511271*X1011161Y-511834*X1010880Y-512115*X1010317Y-512396*X1008911*X1008067Y-512115*X1084558Y-500135D2*X1086808D1*X1087370Y-499854*X1087651Y-499573*X1087933Y-499010*Y-498166*X1087651Y-497604*X1087370Y-497323*X1086808Y-497042*X1084558*Y-502947*X1087933D2*X1085964Y-500135D1*X1081746Y-502947D2*Y-497042D1*X1078934Y-502947D2*Y-497042D1*X1076965Y-501260*X1074997Y-497042*Y-502947*X1072184D2*Y-497042D1*X1066279Y-500135D2*X1068529D1*X1069091Y-499854*X1069372Y-499573*X1069654Y-499010*Y-498166*X1069372Y-497604*X1069091Y-497323*X1068529Y-497042*X1066279*Y-502947*X1069654D2*X1067685Y-500135D1*X1060373D2*X1062623D1*X1063186Y-499854*X1063467Y-499573*X1063748Y-499010*Y-498166*X1063467Y-497604*X1063186Y-497323*X1062623Y-497042*X1060373*Y-502947*X1057561D2*Y-497042D1*X1055593Y-501260*X1053624Y-497042*Y-502947*X1050812D2*Y-497042D1*X1041251D2*X1040688Y-497323D1*X1040126Y-497885*X1039845Y-499010*Y-500979*X1040126Y-502104*X1040688Y-502666*X1041251Y-502947*X1042376*X1042938Y-502666*X1043501Y-502104*X1043782Y-500979*Y-499010*X1043501Y-497885*X1042938Y-497323*X1042376Y-497042*X1041251*X1037595Y-495073D2*X1037314Y-495354D1*X1036751Y-495636*X1035627Y-495073*X1035064Y-495354*X1034783Y-495636*X1038157Y-502947D2*X1036189Y-497042D1*X1034220Y-502947*X1034783Y-501260D2*X1037595D1*X1032252Y-497042D2*Y-502947D1*X1028877Y-497042*Y-502947*X1021566Y-499854D2*Y-499291D1*X1021285Y-499573*X1021566Y-499854*X1021847Y-499573*X1021566Y-499291*Y-502947D2*Y-502385D1*X1021285Y-502666*X1021566Y-502947*X1021847Y-502666*X1021566Y-502385*X1019035Y-497323D2*X1018191Y-497042D1*X1016785*X1016223Y-497323*X1015941Y-497604*X1015660Y-498166*Y-498729*X1015941Y-499291*X1016223Y-499573*X1016785Y-499854*X1017910Y-500135*X1018472Y-500416*X1018754Y-500697*X1019035Y-501260*Y-501822*X1018754Y-502385*X1018472Y-502666*X1017910Y-502947*X1016504*X1015660Y-502666*X1010036Y-499854D2*X1012004D1*X1012567Y-499573*X1012848Y-499291*X1013129Y-498729*Y-498166*X1012848Y-497604*X1012567Y-497323*X1012004Y-497042*X1010036*Y-502947*X1012286*X1012848Y-502666*X1013129Y-502385*X1013411Y-501822*Y-500979*X1013129Y-500416*X1012848Y-500135*X1012004Y-499854*X1004974Y-497042D2*X1004412Y-497323D1*X1003849Y-497885*X1003568Y-499010*Y-500979*X1003849Y-502104*X1004412Y-502666*X1004974Y-502947*X1006099*X1006661Y-502666*X1007224Y-502104*X1007505Y-500979*Y-499010*X1007224Y-497885*X1006661Y-497323*X1006099Y-497042*X1004974*X890969Y-521766D2*X887031Y-527672D1*Y-521766D2*X890969Y-527672D1*X273364Y-562491D2*X268924Y-564790D1*X273354Y-567108*X382494Y-562722D2*X386924Y-565040D1*X382484Y-567339*X387000Y-529250D2*X386902Y-575670D1*X269000Y-529000D2*X268902Y-575420D1*X268924Y-564790D2*X386924Y-565040D1*X342249Y-572932D2*X342256Y-569839D1*X341976Y-569276*X341414Y-568993*X340570Y-568991*X340007Y-569271*X339725Y-569833*X339718Y-572927D2*X339725Y-569833D1*X339445Y-569270*X338883Y-568988*X338039Y-568986*X337476Y-569266*X337194Y-569547*X337187Y-572921D2*X337196Y-568984D1*X334375Y-572915D2*X334382Y-569822D1*X334102Y-569259*X333540Y-568976*X332696Y-568975*X332133Y-569255*X331851Y-569817*X331844Y-572910D2*X331851Y-569817D1*X331571Y-569254*X331009Y-568971*X330165Y-568969*X329602Y-569249*X329320Y-569530*X329313Y-572905D2*X329322Y-568968D1*X320327Y-566980D2*X319764Y-567260D1*X319482Y-567541*X319200Y-568102*X318916Y-569227*X318913Y-570633*X319192Y-571758*X319472Y-572321*X319753Y-572603*X320314Y-572886*X320877Y-572887*X321440Y-572607*X321722Y-572326*X322004Y-571764*X322288Y-570640*X322291Y-569234*X322012Y-568108*X321732Y-567545*X321451Y-567264*X320889Y-566981*X320327Y-566980*X313004Y-572308D2*X313285Y-572589D1*X313847Y-572872*X315534Y-572875*X316097Y-572595*X316379Y-572315*X316661Y-571753*X316664Y-570347*X316384Y-569784*X316103Y-569502*X315542Y-569220*X314698Y-569218*X316671Y-566972*X313015Y-566964*X213441Y-524565D2*X215750Y-529000D1*X218059Y-524565*X213441Y-375935D2*X215750Y-371500D1*X218059Y-375935*X269000Y-371500D2*X205120D1*X269000Y-529000D2*X205120D1*X215750D2*Y-371500D1*X213107Y-433940D2*X210013D1*X209451Y-434221*X209170Y-434783*Y-435627*X209451Y-436189*X210013Y-436470*X213107D2*X210013D1*X209451Y-436752*X209170Y-437314*Y-438158*X209451Y-438720*X209732Y-439001*X213107D2*X209170D1*X213107Y-441814D2*X210013D1*X209451Y-442095*X209170Y-442657*Y-443501*X209451Y-444063*X210013Y-444344*X213107D2*X210013D1*X209451Y-444626*X209170Y-445188*Y-446032*X209451Y-446594*X209732Y-446875*X213107D2*X209170D1*X207201Y-451375D2*X207482Y-451937D1*X207764Y-452219*X208326Y-452500*X209451Y-452781*X210857*X211982Y-452500*X212544Y-452219*X212825Y-451937*X213107Y-451375*Y-450812*X212825Y-450250*X212544Y-449969*X211982Y-449688*X210857Y-449406*X209451*X208326Y-449688*X207764Y-449969*X207482Y-450250*X207201Y-450812*Y-451375*X213950Y-455593D2*X213669Y-455312D1*X213107Y-455031*X212825*X207201Y-459811D2*X207482Y-460374D1*X207764Y-460655*X208326Y-460936*X209451Y-461217*X210857*X211982Y-460936*X212544Y-460655*X212825Y-460374*X213107Y-459811*Y-459249*X212825Y-458686*X212544Y-458405*X211982Y-458124*X210857Y-457843*X209451*X208326Y-458124*X207764Y-458405*X207482Y-458686*X207201Y-459249*Y-459811*X211138Y-463186D2*Y-466842D1*X206920Y-465436*X209170Y-464030D2*X213107D1*X273185Y-322941D2*X268750Y-325250D1*X273185Y-327559*X410315Y-322941D2*X414750Y-325250D1*X410315Y-327559*X414750Y-371500D2*Y-314620D1*X268750Y-371500D2*Y-314620D1*Y-325250D2*X414750D1*X358060Y-322607D2*Y-319513D1*X357779Y-318951*X357217Y-318670*X356373*X355811Y-318951*X355530Y-319513*Y-322607D2*Y-319513D1*X355248Y-318951*X354686Y-318670*X353842*X353280Y-318951*X352999Y-319232*Y-322607D2*Y-318670D1*X350186Y-322607D2*Y-319513D1*X349905Y-318951*X349343Y-318670*X348499*X347937Y-318951*X347656Y-319513*Y-322607D2*Y-319513D1*X347374Y-318951*X346812Y-318670*X345968*X345406Y-318951*X345125Y-319232*Y-322607D2*Y-318670D1*X339219Y-318388D2*X339781Y-318107D1*X340344Y-317545*X340906Y-316701*Y-322607*X342594D2*X339219D1*X336407Y-323450D2*X336688Y-323169D1*X336969Y-322607*Y-322325*X331907Y-322607D2*X334438Y-316701D1*X330501*X324877Y-322044D2*X325158Y-322325D1*X325721Y-322607*X327408*X327970Y-322325*X328252Y-322044*X328533Y-321482*Y-320076*X328252Y-319513*X327970Y-319232*X327408Y-318951*X326564*X328533Y-316701*X324877*X452309Y-375935D2*X450000Y-371500D1*X447691Y-375935*X452309Y-504815D2*X450000Y-509250D1*X447691Y-504815*X414750Y-509250D2*X460630D1*X414750Y-371500D2*X460630D1*X450000D2*Y-509250D1*X452643Y-456685D2*X455737D1*X456299Y-456404*X456580Y-455842*Y-454998*X456299Y-454436*X455737Y-454155*X452643D2*X455737D1*X456299Y-453873*X456580Y-453311*Y-452467*X456299Y-451905*X456018Y-451624*X452643D2*X456580D1*X452643Y-448811D2*X455737D1*X456299Y-448530*X456580Y-447968*Y-447124*X456299Y-446562*X455737Y-446281*X452643D2*X455737D1*X456299Y-445999*X456580Y-445437*Y-444593*X456299Y-444031*X456018Y-443750*X452643D2*X456580D1*X458549Y-439250D2*X458268Y-438688D1*X457986Y-438406*X457424Y-438125*X456299Y-437844*X454893*X453768Y-438125*X453206Y-438406*X452925Y-438688*X452643Y-439250*Y-439813*X452925Y-440375*X453206Y-440656*X453768Y-440937*X454893Y-441219*X456299*X457424Y-440937*X457986Y-440656*X458268Y-440375*X458549Y-439813*Y-439250*X451800Y-435032D2*X452081Y-435313D1*X452643Y-435594*X452925*X453206Y-429408D2*X452925Y-429689D1*X452643Y-430251*Y-431657*X452925Y-432220*X453206Y-432501*X453768Y-432782*X455174*X455737Y-432501*X456018Y-432220*X456299Y-431657*Y-430251*X456018Y-429689*X455737Y-429408*X458549Y-429689*Y-432501*X453206Y-423502D2*X452925Y-423783D1*X452643Y-424346*Y-426033*X452925Y-426595*X453206Y-426877*X453768Y-427158*X455174*X455737Y-426877*X456018Y-426595*X456299Y-426033*Y-425189*X458549Y-427158*Y-423502*X292935Y-471941D2*X288500Y-474250D1*X292935Y-476559*X402565Y-471941D2*X407000Y-474250D1*X402565Y-476559*X407000Y-497500D2*Y-463620D1*X288500Y-497500D2*Y-463620D1*Y-474250D2*X407000D1*X364060Y-471607D2*Y-468513D1*X363779Y-467951*X363217Y-467670*X362373*X361811Y-467951*X361530Y-468513*Y-471607D2*Y-468513D1*X361248Y-467951*X360686Y-467670*X359842*X359280Y-467951*X358999Y-468232*Y-471607D2*Y-467670D1*X356186Y-471607D2*Y-468513D1*X355905Y-467951*X355343Y-467670*X354499*X353937Y-467951*X353656Y-468513*Y-471607D2*Y-468513D1*X353374Y-467951*X352812Y-467670*X351968*X351406Y-467951*X351125Y-468232*Y-471607D2*Y-467670D1*X345219Y-467388D2*X345781Y-467107D1*X346344Y-466545*X346906Y-465701*Y-471607*X348594D2*X345219D1*X342407Y-472450D2*X342688Y-472169D1*X342969Y-471607*Y-471325*X338189Y-465701D2*X337626Y-465982D1*X337345Y-466264*X337064Y-466826*X336783Y-467951*Y-469357*X337064Y-470482*X337345Y-471044*X337626Y-471325*X338189Y-471607*X338751*X339314Y-471325*X339595Y-471044*X339876Y-470482*X340157Y-469357*Y-467951*X339876Y-466826*X339595Y-466264*X339314Y-465982*X338751Y-465701*X338189*X330877Y-471044D2*X331158Y-471325D1*X331721Y-471607*X333408*X333970Y-471325*X334252Y-471044*X334533Y-470482*Y-469076*X334252Y-468513*X333970Y-468232*X333408Y-467951*X332564*X334533Y-465701*X330877*X249809Y-446935D2*X247500Y-442500D1*X245191Y-446935*X249809Y-493315D2*X247500Y-497750D1*X245191Y-493315*X288500Y-497750D2*X236870D1*X288500Y-442500D2*X236870D1*X247500D2*Y-497750D1*X239514Y-486435D2*X242607D1*X243169Y-486154*X243451Y-485592*Y-484748*X243169Y-484186*X242607Y-483905*X239514D2*X242607D1*X243169Y-483623*X243451Y-483061*Y-482217*X243169Y-481655*X242888Y-481374*X239514D2*X243451D1*X239514Y-478561D2*X242607D1*X243169Y-478280*X243451Y-477718*Y-476874*X243169Y-476312*X242607Y-476031*X239514D2*X242607D1*X243169Y-475749*X243451Y-475187*Y-474343*X243169Y-473781*X242888Y-473500*X239514D2*X243451D1*X245419Y-469000D2*X245138Y-468438D1*X244857Y-468156*X244294Y-467875*X243169Y-467594*X241763*X240638Y-467875*X240076Y-468156*X239795Y-468438*X239514Y-469000*Y-469563*X239795Y-470125*X240076Y-470406*X240638Y-470687*X241763Y-470969*X243169*X244294Y-470687*X244857Y-470406*X245138Y-470125*X245419Y-469563*Y-469000*X238670Y-464782D2*X238951Y-465063D1*X239514Y-465344*X239795*X241482Y-462813D2*Y-459158D1*X245700Y-460564*X243451Y-461970D2*X239514D1*X243732Y-453533D2*X244013Y-454096D1*X244575Y-454658*X245419Y-455221*X239514*Y-456908D2*Y-453533D1*X918843Y-207203D2*X919406Y-206922D1*X919968Y-206360*X920530Y-205516*Y-211422*X922218D2*X918843D1*X916031Y-212265D2*X916312Y-211984D1*X916593Y-211422*Y-211140*X911531Y-211422D2*X914062Y-205516D1*X910125*X904501Y-210859D2*X904782Y-211140D1*X905345Y-211422*X907032*X907594Y-211140*X907876Y-210859*X908157Y-210297*Y-208891*X907876Y-208328*X907594Y-208047*X907032Y-207766*X906188*X908157Y-205516*X904501*X988499D2*X987937Y-205797D1*X987656Y-206078*X987374Y-206641*X987093Y-207766*Y-209172*X987374Y-210297*X987656Y-210859*X987937Y-211140*X988499Y-211422*X989062*X989624Y-211140*X989905Y-210859*X990186Y-210297*X990468Y-209172*Y-207766*X990186Y-206641*X989905Y-206078*X989624Y-205797*X989062Y-205516*X988499*X984281Y-212265D2*X984562Y-211984D1*X984843Y-211422*Y-211140*X980063Y-205516D2*X979500Y-205797D1*X979219Y-206078*X978938Y-206641*X978657Y-207766*Y-209172*X978938Y-210297*X979219Y-210859*X979500Y-211140*X980063Y-211422*X980625*X981188Y-211140*X981469Y-210859*X981750Y-210297*X982031Y-209172*Y-207766*X981750Y-206641*X981469Y-206078*X981188Y-205797*X980625Y-205516*X980063*X976688Y-209453D2*X973032D1*X974438Y-205235*X975844Y-207485D2*Y-211422D1*X734542Y-705456D2*Y-711361D1*X731167Y-705456*Y-711361*X726105Y-705456D2*X725543Y-705737D1*X724981Y-706299*X724699Y-707424*Y-709393*X724981Y-710518*X725543Y-711080*X726105Y-711361*X727230*X727793Y-711080*X728355Y-710518*X728636Y-709393*Y-707424*X728355Y-706299*X727793Y-705737*X727230Y-705456*X726105*X722450Y-705737D2*X721606Y-705456D1*X720200*X719637Y-705737*X719356Y-706018*X719075Y-706581*Y-707143*X719356Y-707706*X719637Y-707987*X720200Y-708268*X721325Y-708549*X721887Y-708830*X722168Y-709112*X722450Y-709674*Y-710236*X722168Y-710799*X721887Y-711080*X721325Y-711361*X719919*X719075Y-711080*X714576Y-705456D2*Y-711361D1*X717388*X711763D2*Y-705456D1*X709795Y-711361D2*X707826Y-705456D1*X705858Y-711361*X706420Y-709674D2*X709233D1*X701640Y-711361D2*X702202D1*X703046Y-711080*X703608Y-710518*X703889Y-709674*Y-705456*X1052315Y-759843D2*Y-759280D1*X1052033Y-759562*X1052315Y-759843*X1052596Y-759562*X1052315Y-759280*Y-762936D2*Y-762374D1*X1052033Y-762655*X1052315Y-762936*X1052596Y-762655*X1052315Y-762374*X1050065Y-758999D2*X1048659Y-762936D1*X1047253Y-758999*X1042472Y-760968D2*X1045284Y-760405D1*Y-759843*X1045003Y-759280*X1044441Y-758999*X1043316*X1042753Y-759280*X1042472Y-759843*Y-762092*X1042753Y-762655*X1043316Y-762936*X1044441*X1045003Y-762655*X1036848Y-760124D2*X1039098D1*X1039660Y-759843*X1039941Y-759562*X1040222Y-758999*Y-758155*X1039941Y-757593*X1039660Y-757312*X1039098Y-757031*X1036848*Y-762936*X1040222D2*X1038254Y-760124D1*D13*X883679Y-740992D2*X882695Y-748866D1*X879180Y-740992*X878196Y-748866*X872431Y-740992D2*X871634Y-741367D1*X870790Y-742117*X870228Y-743617*X869900Y-746241*X870087Y-747741*X870744Y-748491*X871447Y-748866*X872946*X873743Y-748491*X874587Y-747741*X875149Y-746241*X875477Y-743617*X875290Y-742117*X874634Y-741367*X873931Y-740992*X872431*X866197Y-748866D2*X867182Y-740992D1*X861323Y-748866D2*X862307Y-740992D1*X860057D2*X864557D1*X857433D2*X856636Y-747366D1*X856167Y-748116*X855745Y-748491*X854949Y-748866*X853449*X852746Y-748491*X852418Y-748116*X852137Y-747366*X852933Y-740992*X846559D2*X845575Y-748866D1*X849324*X839810Y-740992D2*X839013Y-741367D1*X838170Y-742117*X837607Y-743617*X837279Y-746241*X837466Y-747741*X838123Y-748491*X838826Y-748866*X840326*X841122Y-748491*X841966Y-747741*X842528Y-746241*X842856Y-743617*X842669Y-742117*X842013Y-741367*X841310Y-740992*X839810*X835685D2*X832077Y-748866D1*X830436Y-740992*X828186D2*X824437D1*X823453Y-748866*X827202*X823968Y-744741D2*X826593D1*X816047Y-745116D2*X819047D1*X819844Y-744741*X820266Y-744367*X820734Y-743617*X820875Y-742492*X820594Y-741742*X820266Y-741367*X819562Y-740992*X816563*X815579Y-748866*X820078D2*X817922Y-745116D1*X807142Y-741367D2*X806064Y-740992D1*X804189*X803393Y-741367*X802971Y-741742*X802502Y-742492*X802408Y-743242*X802690Y-743992*X803018Y-744367*X803721Y-744741*X805174Y-745116*X805877Y-745491*X806205Y-745866*X806486Y-746616*X806392Y-747366*X805924Y-748116*X805502Y-748491*X804705Y-748866*X802830*X801752Y-748491*X796315Y-740992D2*X795519Y-741367D1*X794675Y-742117*X794113Y-743617*X793784Y-746241*X793972Y-747741*X794628Y-748491*X795331Y-748866*X796831*X797628Y-748491*X798471Y-747741*X799034Y-746241*X799362Y-743617*X799174Y-742117*X798518Y-741367*X797815Y-740992*X796315*X790082Y-748866D2*X791066Y-740992D1*X782723Y-744741D2*X785348D1*X786145Y-744367*X786567Y-743992*X787035Y-743242*X787129Y-742492*X786848Y-741742*X786520Y-741367*X785817Y-740992*X783192*X782208Y-748866*X785207*X786004Y-748491*X786426Y-748116*X786895Y-747366*X787035Y-746241*X786754Y-745491*X786426Y-745116*X785348Y-744741*X772459Y-748866D2*X773443Y-740992D1*X770116Y-746616*X768194Y-740992*X767210Y-748866*X764585D2*X762945Y-740992D1*X759336Y-748866*X760367Y-746616D2*X764116D1*X758070Y-740992D2*X754321D1*X753336Y-748866*X757086*X753852Y-744741D2*X756477D1*X745931Y-745116D2*X748931D1*X749727Y-744741*X750149Y-744367*X750618Y-743617*X750759Y-742492*X750477Y-741742*X750149Y-741367*X749446Y-740992*X746447*X745462Y-748866*X749962D2*X747806Y-745116D1*X737588Y-748866D2*X739463D1*X740635Y-748491*X741478Y-747741*X741947Y-746991*X742510Y-745491*X742650Y-744367*X742463Y-742867*X742182Y-742117*X741525Y-741367*X740447Y-740992*X738573*X737588Y-748866*X728355Y-744741D2*X728449Y-743992D1*X728027Y-744367*X728355Y-744741*X728777Y-744367*X728449Y-743992*X727840Y-748866D2*X727933Y-748116D1*X727511Y-748491*X727840Y-748866*X728261Y-748491*X727933Y-748116*X721044Y-746241D2*X724887Y-745491D1*X724981Y-744741*X724699Y-743992*X723996Y-743617*X722496*X721700Y-743992*X721231Y-744741*X720856Y-747741*X721137Y-748491*X721840Y-748866*X723340*X724137Y-748491*X717950Y-740992D2*X717107Y-747741D1*X717388Y-748491*X718091Y-748866*X714341D2*X713591D1*X712888Y-748491*X712607Y-747741*X713451Y-740992*X711998Y-743617D2*X714997D1*X709607Y-741742D2*X709701Y-740992D1*X710029Y-741367*X709607Y-741742*X709279Y-741367*X709701Y-740992*X708717Y-748866D2*X709373Y-743617D1*X703843Y-748866D2*X704827Y-740992D1*X702577D2*X707077D1*D102*X288500Y-497500D2*X407000D1*Y-442500*X288500*Y-497500*X853016Y-110766D2*Y-116672D1*X855828*X269000Y-529000D2*X387000D1*Y-509250*X414750*Y-371500*X269000*Y-529000*D103*X873377Y-199423D2*Y-211198D1*X824164*X873377Y-157305D2*Y-169230D1*X824315*X829312Y-480288D2*X828657Y-480506D1*X828220Y-480943*X827784Y-481598*X827566Y-482252*X827304Y-483082*Y-483736*X827566Y-484435*X827784Y-484653*X828220Y-484828*X828875*X829530Y-484653*X829966Y-484217*X830403Y-483562*X830621Y-482907*X830796Y-482034*Y-481336*X830621Y-480725*X830403Y-480506*X829966Y-480288*X829312*X828439Y-480943D2*X828002Y-481598D1*X827784Y-482252*X827566Y-483082*Y-483998*X827784Y-484435*X829748Y-484217D2*X830184Y-483562D1*X830403Y-482907*X830621Y-482034*Y-481161*X830403Y-480725*X829312Y-480288D2*X828875Y-480506D1*X828439Y-481161*X828220Y-481598*X828002Y-482252*X827784Y-483082*Y-484217*X828002Y-484653*X828220Y-484828*X828875D2*X829312Y-484653D1*X829748Y-483998*X829966Y-483562*X830184Y-482907*X830403Y-482034*Y-480943*X830184Y-480506*X829966Y-480288*X833415D2*X832105Y-484828D1*X833633Y-480288D2*X832323Y-484828D1*X833851Y-480288D2*X832542Y-484828D1*X832760Y-480288D2*X835160D1*X835815Y-480506*X836033Y-480943*Y-481336*X835815Y-482034*X835597Y-482252*X834942Y-482471*X835597Y-480506D2*X835815Y-480943D1*Y-481336*X835597Y-482034*X835379Y-482252*X835160Y-480288D2*X835379Y-480506D1*X835597Y-480943*Y-481336*X835379Y-482034*X834942Y-482471*X833240*X834942D2*X835379Y-482689D1*X835597Y-483082*Y-483562*X835379Y-484217*X834942Y-484653*X834069Y-484828*X831494*X835160Y-482689D2*X835379Y-483082D1*Y-483562*X835160Y-484217*X834724Y-484653*X834942Y-482471D2*X835160Y-482907D1*Y-483562*X834942Y-484217*X834506Y-484653*X834069Y-484828*X832978Y-480288D2*X833633Y-480506D1*X833240Y-480288D2*X833415Y-480725D1*X834069Y-480288D2*X833633Y-480725D1*X834287Y-480288D2*X833633Y-480506D1*X832323Y-484653D2*X831669Y-484828D1*X832323Y-484435D2*X831887Y-484828D1*X832542Y-484435D2*X832760Y-484828D1*X832323Y-484653D2*X832978Y-484828D1*X840791Y-480725D2*X841009D1*X841271Y-480288*X841009Y-481598*Y-481161*X840791Y-480725*X840616Y-480506*X839962Y-480288*X839045*X838434Y-480506*X837954Y-480943*Y-481598*X838216Y-482034*X838609Y-482471*X839962Y-483082*X840180Y-483562*Y-484217*X839962Y-484653*X838216Y-481598D2*X838434Y-482034D1*X839962Y-482907*X840180Y-483344*X838434Y-480506D2*X838216Y-480943D1*Y-481336*X838434Y-481816*X839700Y-482471*X840180Y-482907*X840355Y-483344*Y-483998*X840180Y-484435*X839962Y-484653*X839263Y-484828*X838434*X837779Y-484653*X837561Y-484435*X837299Y-483998*Y-483562*X837125Y-484828*X837299Y-484435*X837561*X843017Y-481816D2*X842799Y-482034D1*Y-482252*X843017Y-482471*X843235*X843454Y-482252*Y-482034*X843235Y-481816*X843017*Y-482034D2*Y-482252D1*X843235*Y-482034*X843017*X842362Y-484217D2*X842144Y-484435D1*Y-484653*X842362Y-484828*X842581*X842799Y-484653*Y-484435*X842581Y-484217*X842362*Y-484435D2*Y-484653D1*X842581*Y-484435*X842362*X1046454Y-460487D2*X1037329D1*Y-468707*X1046454*Y-460487*X912258Y-460367D2*Y-468587D1*X903133*Y-460367*X912258*X878799D2*X869674D1*Y-468587*X878799*Y-460367*X841105Y-460155D2*Y-468375D1*X831980*Y-460155*X841105*X1001594Y-460367D2*X992469D1*Y-468587*X1001594*Y-460367*X950376D2*X941251D1*Y-468587*X950376*Y-460367*X913759Y-463578D2*X916116D1*Y-461221D2*X913759D1*Y-466764*X844621D2*X842962Y-461221D1*X1026808Y-466764D2*Y-462094D1*X1027637Y-461221*X1029165*X1029994Y-462094*Y-466764*X1026808Y-464276D2*X1029994D1*X1025324Y-461221D2*X1022836D1*X1022007Y-462094*Y-465935*X1022836Y-466764*X1025324*X1017424D2*Y-461221D1*X1020610Y-466764*Y-461221*X1012666Y-466764D2*Y-462094D1*X1013495Y-461221*X1015023*X1015852Y-462094*Y-466764*X1012666Y-464276D2*X1015852D1*X1008127Y-466764D2*Y-461221D1*X1010309*X1011138Y-462094*Y-462923*X1010309Y-463753*X1008127*X1011138Y-466764D2*X1009480Y-463753D1*X1003194Y-466764D2*Y-461221D1*X1005682*X1006512Y-462094*Y-462923*X1005682Y-463578*X1006512Y-464276*Y-465935*X1005682Y-466764*X1003194*Y-463578D2*X1005682D1*X984382Y-466764D2*Y-462094D1*X986739Y-461221*X987568Y-462094*Y-466764*X984382Y-464276D2*X987568D1*X979668Y-466764D2*Y-461221D1*X982854D2*Y-466764D1*X979668Y-463578D2*X982854D1*X975085Y-461221D2*Y-466764D1*X978097*X973383D2*X970327D1*Y-461221*X973383*X970327Y-463578D2*X973383D1*X965613Y-466764D2*Y-461221D1*X967141Y-464276*X968669Y-461221*Y-466764*X960987D2*Y-461221D1*X963169*X963998Y-462094*Y-462923*X963169Y-463753*X960987*X963998Y-466764D2*X962340Y-463753D1*X959241Y-466764D2*X956185D1*Y-461221*X959241*X956185Y-463578D2*X959241D1*X951384Y-461221D2*X953043Y-466764D1*X954701Y-461221*X932528Y-466764D2*Y-462094D1*X933357Y-461221*X934885*X935714Y-462094*Y-466764*X932528Y-464276D2*X935714D1*X927901Y-461221D2*X931219D1*X929560Y-466764D2*Y-461221D1*X926243Y-466764D2*X923187D1*Y-461221*X926243*X923187Y-463578D2*X926243D1*X918561Y-466764D2*Y-461221D1*X920743*X921572Y-462094*Y-462923*X920743Y-463753*X918561*X921572Y-466764D2*X919914Y-463753D1*X916116Y-461221D2*X916946Y-462094D1*Y-462749*X916116Y-463578*X894947Y-461221D2*Y-466764D1*X897959*X890146Y-461221D2*Y-465935D1*X890975Y-466764*X892634*X893463Y-465935*Y-461221*X885519D2*X888574D1*X885519Y-466764*X888574*X880674D2*Y-462094D1*X881503Y-461221*X883031*X883860Y-462094*Y-466764*X880674Y-464276D2*X883860D1*X864961Y-466764D2*X861905D1*Y-461221*X864961*X861905Y-463578D2*X864961D1*X859461Y-466764D2*X857104D1*Y-461221*X859461*X860290Y-462094*Y-465935*X859461Y-466764*X852565D2*Y-461221D1*X854747*X855576Y-462094*Y-462923*X854747Y-463753*X852565*X855576Y-466764D2*X853918Y-463753D1*X850819Y-466764D2*X847763D1*Y-461221*X850819*X847763Y-463578D2*X850819D1*X846279Y-461221D2*X844621Y-466764D1*X977119Y-449294D2*Y-450123D1*Y-447112D2*Y-447941D1*X970790Y-450953D2*Y-445409D1*X972973*X973802Y-446282*Y-447112*X972973Y-447941*X970790*X973802Y-450953D2*X972143Y-447941D1*X965901Y-446282D2*X966731Y-445409D1*X968389*X969219Y-446282*Y-450123*X968389Y-450953*X966731*X965901Y-450123*Y-446282*X964417Y-445409D2*X961930D1*X961100Y-446282*Y-450123*X961930Y-450953*X964417*X951760D2*Y-446282D1*X952589Y-445409*X954117*X954946Y-446282*Y-450953*X951760Y-448465D2*X954946D1*X947220Y-450953D2*Y-445409D1*X949403*X950232Y-446282*Y-447112*X949403Y-447941*X947220*X950232Y-450953D2*X948573Y-447941D1*X942332Y-450953D2*Y-446282D1*X943161Y-445409*X944689*X945518Y-446282*Y-450953*X942332Y-448465D2*X945518D1*X940848Y-445409D2*X938360D1*X937530Y-446282*Y-450123*X938360Y-450953*X940848*X936090Y-445409D2*X933864D1*X933034Y-446282*Y-446806*X933864Y-447635*X935261*X936090Y-448465*Y-450123*X935261Y-450953*X933034*X928190D2*Y-446282D1*X929019Y-445409*X930547*X931376Y-446282*Y-450953*X928190Y-448465D2*X931376D1*X923563Y-450953D2*Y-445409D1*X925091Y-448465*X926618Y-445409*Y-450953*X824405Y-453855D2*X1106254D1*X827766Y-544624D2*X824449D1*Y-546282D2*X827766D1*X832480Y-544624D2*X829163D1*Y-546282D2*X832480D1*X837194Y-544624D2*X833877D1*Y-546282D2*X837194D1*X841908Y-544624D2*X838591D1*Y-546282D2*X841908D1*X846622Y-544624D2*X843305D1*Y-546282D2*X846622D1*X851336Y-544624D2*X848019D1*Y-546282D2*X851336D1*X856050Y-544624D2*X852733D1*Y-546282D2*X856050D1*X860764Y-544624D2*X857447D1*Y-546282D2*X860764D1*X865478Y-544624D2*X862161D1*Y-546282D2*X865478D1*X870192Y-544624D2*X866875D1*Y-546282D2*X870192D1*X874906Y-544624D2*X871589D1*Y-546282D2*X874906D1*X879620Y-544624D2*X876303D1*Y-546282D2*X879620D1*X884334Y-544624D2*X881017D1*Y-546282D2*X884334D1*X889048Y-544624D2*X885731D1*Y-546282D2*X889048D1*X893762Y-544624D2*X890445D1*Y-546282D2*X893762D1*X898476Y-544624D2*X895159D1*Y-546282D2*X898476D1*X903190Y-544624D2*X899873D1*Y-546282D2*X903190D1*X907904Y-544624D2*X904587D1*Y-546282D2*X907904D1*X912618Y-544624D2*X909301D1*Y-546282D2*X912618D1*X917332Y-544624D2*X914015D1*Y-546282D2*X917332D1*X922046Y-544624D2*X918729D1*Y-546282D2*X922046D1*X926760Y-544624D2*X923443D1*Y-546282D2*X926760D1*X931474Y-544624D2*X928157D1*Y-546282D2*X931474D1*X936188Y-544624D2*X932871D1*Y-546282D2*X936188D1*X940902Y-544624D2*X937585D1*Y-546282D2*X940902D1*X945616Y-544624D2*X942299D1*Y-546282D2*X945616D1*X950330Y-544624D2*X947013D1*Y-546282D2*X950330D1*X955044Y-544624D2*X951727D1*Y-546282D2*X955044D1*X959758Y-544624D2*X956441D1*Y-546282D2*X959758D1*X964472Y-544624D2*X961155D1*Y-546282D2*X964472D1*X969186Y-544624D2*X965869D1*Y-546282D2*X969186D1*X973900Y-544624D2*X970583D1*Y-546282D2*X973900D1*X978614Y-544624D2*X975297D1*Y-546282D2*X978614D1*X983328Y-544624D2*X980011D1*X988042D2*X984725D1*Y-546282D2*X988042D1*X992756Y-544624D2*X989439D1*Y-546282D2*X992756D1*X997470Y-544624D2*X994153D1*Y-546282D2*X997470D1*X1002184Y-544624D2*X998867D1*Y-546282D2*X1002184D1*X1006898Y-544624D2*X1003581D1*Y-546282D2*X1006898D1*X1011612Y-544624D2*X1008295D1*Y-546282D2*X1011612D1*X1016326Y-544624D2*X1013009D1*Y-546282D2*X1016326D1*X1021040Y-544624D2*X1017723D1*Y-546282D2*X1021040D1*X1025754Y-544624D2*X1022437D1*Y-546282D2*X1025754D1*X1030468Y-544624D2*X1027151D1*Y-546282D2*X1030468D1*X1035182Y-544624D2*X1031865D1*Y-546282D2*X1035182D1*X1039896Y-544624D2*X1036579D1*Y-546282D2*X1039896D1*X1044610Y-544624D2*X1041293D1*Y-546282D2*X1044610D1*X1049324Y-544624D2*X1046006D1*Y-546282D2*X1049324D1*X1054038Y-544624D2*X1050720D1*Y-546282D2*X1054038D1*X1058752Y-544624D2*X1055434D1*Y-546282D2*X1058752D1*X1063466Y-544624D2*X1060148D1*Y-546282D2*X1063466D1*X1068180Y-544624D2*X1064862D1*Y-546282D2*X1068180D1*X1072894Y-544624D2*X1069576D1*Y-546282D2*X1072894D1*X1077608Y-544624D2*X1074290D1*Y-546282D2*X1077608D1*X1082322Y-544624D2*X1079004D1*Y-546282D2*X1082322D1*X1087036Y-544624D2*X1083718D1*Y-546282D2*X1087036D1*X827591Y-514743D2*X824536D1*X832305D2*X829250D1*X837019D2*X833964D1*X841733D2*X838678D1*X846447D2*X843392D1*X851161D2*X848106D1*X855875D2*X852820D1*X860589D2*X857534D1*X865303D2*X862248D1*X870017D2*X866962D1*X874731D2*X871676D1*X879445D2*X876390D1*X884159D2*X881104D1*X888873D2*X885818D1*X893587D2*X890532D1*X898301D2*X895246D1*X903015D2*X899960D1*X907729D2*X904674D1*X912443D2*X909388D1*X917157D2*X914102D1*X921871D2*X918816D1*X926585D2*X923530D1*X931299D2*X928244D1*X936013D2*X932958D1*X940727D2*X937672D1*X945441D2*X942386D1*X950155D2*X947100D1*X954869D2*X951814D1*X959583D2*X956528D1*X964297D2*X961242D1*X969011D2*X965956D1*X973725D2*X970670D1*X978439D2*X975384D1*X983153D2*X980098D1*X987867D2*X984812D1*X992581D2*X989526D1*X997295D2*X994240D1*X1002009D2*X998954D1*X1006723D2*X1003668D1*X1011437D2*X1008382D1*X1016151D2*X1013096D1*X1020865D2*X1017810D1*X1025579D2*X1022524D1*X1030293D2*X1027238D1*X1035007D2*X1031952D1*X1039721D2*X1036666D1*X1044435D2*X1041380D1*X1049149D2*X1046094D1*X1053863D2*X1050808D1*X1058577D2*X1055522D1*X1063291D2*X1060236D1*X1068005D2*X1064950D1*X1072719D2*X1069664D1*X1077433D2*X1074378D1*X1082147D2*X1079092D1*X1086861D2*X1083806D1*X943030Y-500575D2*Y-508795D1*X952155*Y-500575*X981590D2*Y-508795D1*X972465*Y-500575*X889172Y-508330D2*X887514Y-506671D1*X886815Y-502786D2*X885986Y-503659D1*Y-507500*X886815Y-508330*X888343*X889172Y-507500*Y-503659*X888343Y-502786*X886815*X894017D2*Y-507500D1*X893188Y-508330*X891529*X890700Y-507500*Y-502786*X895371Y-505842D2*X898557D1*Y-508330D2*Y-503659D1*X897727Y-502786*X896200*X895371Y-503659*Y-508330*X903314Y-502786D2*Y-508330D1*X900128Y-502786*Y-508330*X906544D2*Y-502786D1*X904886D2*X908203D1*X911127Y-508330D2*X909469D1*X910298D2*Y-502786D1*X911127D2*X909469D1*X916583Y-508330D2*X917413Y-507500D1*Y-503659*X916583Y-502786*X914226*Y-508330*X916583*X918940Y-505842D2*X922127D1*Y-508330D2*Y-503659D1*X921297Y-502786*X919770*X918940Y-503659*Y-508330*X926011D2*X926841Y-507500D1*Y-503659*X926011Y-502786*X923654*Y-508330*X926011*X928456Y-505143D2*X931511D1*Y-502786D2*X928456D1*Y-508330*X931511*X934872Y-504489D2*Y-505318D1*Y-506671D2*Y-507500D1*X984191Y-502389D2*X985020Y-501516D1*X986548*X987377Y-502389*Y-504047*X984191Y-507059*X987377*X957092D2*X955433D1*X956263D2*Y-501516D1*X955433Y-502389*X840206Y-501130D2*X838547D1*X876303Y-496459D2*Y-501130D1*X879489D2*Y-496459D1*X872374Y-501130D2*Y-495586D1*X873204Y-501130D2*X871545D1*X866918Y-500300D2*X867748Y-501130D1*X869974*Y-498642*X865478Y-500300D2*X864649Y-501130D1*X862990*X862161Y-500300*X857578Y-495586D2*Y-501130D1*X860589*X856050Y-500300D2*X855221Y-501130D1*X853562*X852733Y-500300*X847975Y-495586D2*Y-501130D1*X851292Y-500300D2*X850463Y-501130D1*X847975*X843392Y-495586D2*Y-501130D1*X846447D2*Y-495586D1*X839376Y-501130D2*Y-495586D1*X837063Y-500300D2*X836234Y-501130D1*X834008*X827766Y-490741D2*X824449D1*Y-492400D2*X827766D1*X832480Y-490741D2*X829163D1*Y-492400D2*X832480D1*X837194Y-490741D2*X833877D1*Y-492400D2*X837194D1*X841908Y-490741D2*X838591D1*Y-492400D2*X841908D1*X846622Y-490741D2*X843305D1*Y-492400D2*X846622D1*X851336Y-490741D2*X848019D1*X856050D2*X852733D1*Y-492400D2*X856050D1*X860764Y-490741D2*X857447D1*Y-492400D2*X860764D1*X865478Y-490741D2*X862161D1*Y-492400D2*X865478D1*X870192Y-490741D2*X866875D1*Y-492400D2*X870192D1*X874906Y-490741D2*X871589D1*Y-492400D2*X874906D1*X879620Y-490741D2*X876303D1*Y-492400D2*X879620D1*X884334Y-490741D2*X881017D1*Y-492400D2*X884334D1*X889048Y-490741D2*X885731D1*Y-492400D2*X889048D1*X893762Y-490741D2*X890445D1*Y-492400D2*X893762D1*X898476Y-490741D2*X895159D1*Y-492400D2*X898476D1*X903190Y-490741D2*X899873D1*Y-492400D2*X903190D1*X907904Y-490741D2*X904587D1*Y-492400D2*X907904D1*X912618Y-490741D2*X909301D1*Y-492400D2*X912618D1*X917332Y-490741D2*X914015D1*Y-492400D2*X917332D1*X922046Y-490741D2*X918729D1*Y-492400D2*X922046D1*X926760Y-490741D2*X923443D1*Y-492400D2*X926760D1*X931474Y-490741D2*X928157D1*Y-492400D2*X931474D1*X936188Y-490741D2*X932871D1*Y-492400D2*X936188D1*X940902Y-490741D2*X937585D1*Y-492400D2*X940902D1*X945616Y-490741D2*X942299D1*Y-492400D2*X945616D1*X950330Y-490741D2*X947013D1*Y-492400D2*X950330D1*X955044Y-490741D2*X951727D1*Y-492400D2*X955044D1*X959758Y-490741D2*X956441D1*Y-492400D2*X959758D1*X964472Y-490741D2*X961155D1*Y-492400D2*X964472D1*X969186Y-490741D2*X965869D1*Y-492400D2*X969186D1*X973900Y-490741D2*X970583D1*Y-492400D2*X973900D1*X978614Y-490741D2*X975297D1*Y-492400D2*X978614D1*X983328Y-490741D2*X980011D1*Y-492400D2*X983328D1*X988042Y-490741D2*X984725D1*Y-492400D2*X988042D1*X992756Y-490741D2*X989439D1*Y-492400D2*X992756D1*X997470Y-490741D2*X994153D1*Y-492400D2*X997470D1*X1002184Y-490741D2*X998867D1*Y-492400D2*X1002184D1*X1006898Y-490741D2*X1003581D1*Y-492400D2*X1006898D1*X1011612Y-490741D2*X1008295D1*Y-492400D2*X1011612D1*X1016326Y-490741D2*X1013009D1*Y-492400D2*X1016326D1*X1021040Y-490741D2*X1017723D1*Y-492400D2*X1021040D1*X1025754Y-490741D2*X1022437D1*Y-492400D2*X1025754D1*X1030468Y-490741D2*X1027151D1*Y-492400D2*X1030468D1*X1035182Y-490741D2*X1031865D1*Y-492400D2*X1035182D1*X1039896Y-490741D2*X1036579D1*Y-492400D2*X1039896D1*X1044610Y-490741D2*X1041293D1*Y-492400D2*X1044610D1*X1049324Y-490741D2*X1046006D1*Y-492400D2*X1049324D1*X1054038Y-490741D2*X1050720D1*Y-492400D2*X1054038D1*X1058752Y-490741D2*X1055434D1*Y-492400D2*X1058752D1*X1063466Y-490741D2*X1060148D1*Y-492400D2*X1063466D1*X1068180Y-490741D2*X1064862D1*Y-492400D2*X1068180D1*X1072894Y-490741D2*X1069576D1*Y-492400D2*X1072894D1*X1077608Y-490741D2*X1074290D1*Y-492400D2*X1077608D1*X1082322Y-490741D2*X1079004D1*Y-492400D2*X1082322D1*X1087036Y-490741D2*X1083718D1*Y-492400D2*X1087036D1*X1091750Y-490741D2*X1088432D1*Y-492400D2*X1091750D1*X1096464Y-490741D2*X1093146D1*Y-492400D2*X1096464D1*X1101178Y-490741D2*X1097860D1*Y-492400D2*X1101178D1*X1105892Y-490741D2*X1102574D1*Y-492400D2*X1105892D1*X837063Y-500300D2*Y-498642D1*X836234Y-497812*X834837*X834008Y-496983*Y-496459*X834837Y-495586*X837063*X840206D2*X838547D1*X846447D2*X844920Y-498642D1*X843392Y-495586*X847975Y-497943D2*X850463D1*X851292Y-500300D2*Y-498642D1*X850463Y-497943*X851292Y-497289*Y-496459*X850463Y-495586*X847975*X852733Y-496459D2*Y-500300D1*X856050D2*Y-496459D1*X855221Y-495586*X853562*X852733Y-496459*X862161D2*Y-500300D1*X865478D2*Y-496459D1*X864649Y-495586*X862990*X862161Y-496459*X868446Y-498642D2*X869974D1*X866918Y-500300D2*Y-496459D1*X867748Y-495586*X869974*X873204D2*X871545D1*X876303Y-498642D2*X879489D1*Y-496459D2*X878660Y-495586D1*X877132*X876303Y-496459*X837107Y-526728D2*X834619D1*X833790Y-525899*Y-522058*X834619Y-521185*X837107*X838591Y-522058D2*Y-525899D1*X839420Y-526728*X841079*X841908Y-525899*Y-522058*X841079Y-521185*X839420*X838591Y-522058*X846491Y-526728D2*X844832Y-523716D1*X843479D2*X845662D1*X846491Y-522887*Y-522058*X845662Y-521185*X843479*Y-526728*X849808Y-522887D2*Y-523716D1*Y-525069D2*Y-525899D1*X1029678Y-527955D2*Y-523285D1*X1030507Y-522412*X1032034*X1032864Y-523285*Y-527955*X1029678Y-525467D2*X1032864D1*X1025051Y-522412D2*X1028368D1*X1026709Y-527955D2*Y-522412D1*X1023392Y-527955D2*X1020337D1*Y-522412*X1023392*X1020337Y-524769D2*X1023392D1*X1015710Y-527955D2*Y-522412D1*X1017893*X1018722Y-523285*Y-524114*X1017893Y-524944*X1015710*X1018722Y-527955D2*X1017063Y-524944D1*X1010909Y-527955D2*Y-522412D1*X1013266*X1014095Y-523285*Y-523940*X1013266Y-524769*X1010909*X951319Y-525467D2*X954505D1*Y-527955D2*Y-523285D1*X953676Y-522412*X952148*X951319Y-523285*X959175Y-522412D2*X957648Y-525467D1*X956120Y-522412*Y-527955*X960747Y-525467D2*X963933D1*Y-527955D2*Y-523285D1*X963104Y-522412*X961576*X960747Y-523285*Y-527955*X968647D2*X966988Y-524944D1*X965635D2*X967818D1*X968647Y-524114*Y-523285*X967818Y-522412*X965635*Y-527955*X970262Y-524769D2*X973317D1*Y-522412D2*X970262D1*Y-527955*X973317*X978031D2*X975020D1*Y-522412*X979603Y-525467D2*X982789D1*Y-527955D2*Y-523285D1*X981960Y-522412*X980432*X979603Y-523285*Y-527955*X920100D2*Y-523285D1*X920929Y-522412*X922457*X923286Y-523285*Y-527955*X920100Y-525467D2*X923286D1*X918616Y-522412D2*X916128D1*X915299Y-523285*Y-527126*X916128Y-527955*X918616*X910715D2*Y-522412D1*X913902Y-527955*Y-522412*X905958Y-527955D2*Y-523285D1*X906787Y-522412*X908315*X909144Y-523285*Y-527955*X905958Y-525467D2*X909144D1*X901418Y-527955D2*Y-522412D1*X903601*X904430Y-523285*Y-524114*X903601Y-524944*X901418*X904430Y-527955D2*X902771Y-524944D1*X896486Y-527955D2*Y-522412D1*X898974*X899803Y-523285*Y-524114*X898974Y-524769*X899803Y-525467*Y-527126*X898974Y-527955*X896486*Y-524769D2*X898974D1*X981590Y-500575D2*X972465D1*X952155D2*X943030D1*X949041Y-520893D2*X939916D1*Y-529113*X949041*Y-520893*X1008762D2*X999637D1*Y-529113*X1008762*Y-520893*X894552Y-533256D2*X885427D1*Y-541476*X894552*Y-533256*X894347Y-520893D2*Y-529113D1*X885222*Y-520893*X894347*X824172Y-85841D2*Y-574303D1*X1106169D2*Y-85841D1*X824172Y-633142D2*X1106169D1*Y-620526*X824172D2*Y-633142D1*X829084Y-317306D2*X826072D1*Y-311763*X830655Y-314818D2*X833841D1*Y-317306D2*Y-312636D1*X833012Y-311763*X831484*X830655Y-312636*Y-317306*X838512D2*Y-311763D1*X836984Y-314818*X835456Y-311763*Y-317306*X841698D2*X840039D1*X840869D2*Y-311763D1*X841698D2*X840039D1*X848027D2*Y-317306D1*X844841Y-311763*Y-317306*X849511Y-314818D2*X852697D1*Y-317306D2*Y-312636D1*X851868Y-311763*X850340*X849511Y-312636*Y-317306*X856582D2*X857411Y-316477D1*Y-312636*X856582Y-311763*X854225*Y-317306*X856582*X858939Y-312636D2*Y-316477D1*X859768Y-317306*X861427*X862256Y-316477*Y-312636*X861427Y-311763*X859768*X858939Y-312636*X865443Y-313465D2*Y-314294D1*Y-315647D2*Y-316477D1*X856606Y-281933D2*Y-290746D1*X824081*X868566Y-309002D2*Y-320333D1*X824501*X829914Y-288691D2*X827426D1*X826596Y-287861*Y-284020*X827426Y-283147*X829914*X831398Y-284020D2*Y-287861D1*X832227Y-288691*X833886*X834715Y-287861*Y-284020*X833886Y-283147*X832227*X831398Y-284020*X836068Y-285504D2*X838556D1*X836068Y-288691D2*X838556D1*X839385Y-287861*Y-286203*X838556Y-285504*X839385Y-284849*Y-284020*X838556Y-283147*X836068*Y-288691*X844012D2*X842354Y-285679D1*X841000D2*X843183D1*X844012Y-284849*Y-284020*X843183Y-283147*X841000*Y-288691*X845627Y-285504D2*X848682D1*Y-283147D2*X845627D1*Y-288691*X848682*X852043Y-284849D2*Y-285679D1*Y-287032D2*Y-287861D1*X976094Y-277879D2*Y-278709D1*Y-275697D2*Y-276526D1*X969591Y-279538D2*Y-274868D1*X970420Y-273995*X971948*X972777Y-274868*Y-279538*X969591Y-277050D2*X972777D1*X965051Y-279538D2*Y-273995D1*X967234*X968063Y-274868*Y-275697*X967234Y-276526*X965051*X968063Y-279538D2*X966405Y-276526D1*X960207Y-273995D2*Y-278709D1*X961036Y-279538*X962694*X963524Y-278709*Y-273995*X958635D2*X956409D1*X955580Y-274868*Y-275391*X956409Y-276221*X957806*X958635Y-277050*Y-278709*X957806Y-279538*X955580*X953921Y-273995D2*X951695D1*X950866Y-274868*Y-275391*X951695Y-276221*X953092*X953921Y-277050*Y-278709*X953092Y-279538*X950866*X949164D2*X946108D1*Y-273995*X949164*X946108Y-276352D2*X949164D1*X941394Y-279538D2*Y-273995D1*X943751*X944581Y-274868*Y-275522*X943751Y-276352*X941394*X939779Y-273995D2*X937553D1*X936724Y-274868*Y-275391*X937553Y-276221*X938950*X939779Y-277050*Y-278709*X938950Y-279538*X936724*X935022D2*X931966D1*Y-273995*X935022*X931966Y-276352D2*X935022D1*X951014Y-288033D2*X941888D1*X907390D2*X898265D1*X1013485D2*X1004359D1*X983202D2*X974077D1*X941888Y-296253D2*X951014D1*Y-288033*X941888D2*Y-296253D1*X907390D2*X898265D1*Y-288033*X1013485Y-296253D2*Y-288033D1*X1004359D2*Y-296253D1*X1013485*X974077Y-288033D2*Y-296253D1*X983202Y-288033D2*Y-296253D1*X974077*X907390D2*Y-288033D1*X928710Y-292695D2*X931154D1*X928710Y-295244*X931154*X1069036D2*X1066592D1*X1069036Y-292695*X1066592*X997883Y-295244D2*X995439D1*X997883Y-292695*X995439*X963757Y-295244D2*X961312D1*X963757Y-292695*X961312*X1054736Y-294776D2*X1059188D1*X1045308D2*X1049760D1*X1040594D2*X1045046D1*X1035880D2*X1040332D1*X1031166D2*X1035618D1*X1026452D2*X1030904D1*X1021738D2*X1026190D1*X1017024D2*X1021476D1*X984725Y-290105D2*X985554Y-289232D1*X987082*X987911Y-290105*Y-291764*X984725Y-294776*X987911*X952469Y-290105D2*X953298Y-289232D1*Y-294776*X954127D2*X952469D1*X918772Y-293946D2*X919602Y-294776D1*X920998*X921828Y-293946*Y-292462*X920998Y-291589*X918772*Y-289232*X921828*X914800Y-294776D2*X916328Y-293423D1*X915673*Y-294034*X910086Y-289232D2*X911745D1*X912574Y-290105*Y-293946*X911745Y-294776*X910086*X909257Y-293946*Y-290105*X910086Y-289232*X909257Y-294776D2*X912574Y-289232D1*X958560Y-290429D2*X958997Y-290648D1*X959477Y-291084*X959652Y-291477*X959870Y-292393*Y-293048*X959652Y-293877*X959477Y-294358*X958997Y-294794*X958560Y-294969*X958124D2*X957731Y-294794D1*X957251Y-294358*X957033Y-293877*X956814Y-293048*Y-292393*X957033Y-291477*X957251Y-291084*X957731Y-290648*X958124Y-290429*X958560*X959215Y-290648*X959652Y-291084*X959870Y-291477*X960088Y-292393*Y-293048*X959870Y-293877*X959652Y-294358*X959215Y-294794*X958560Y-294969*X958124*X957469Y-294794*X957033Y-294358*X956814Y-293877*X956596Y-293048*Y-292393*X956814Y-291477*X957033Y-291084*X957469Y-290648*X958124Y-290429*X992687D2*X993123Y-290648D1*X993603Y-291084*X993778Y-291477*X993996Y-292393*Y-293048*X993778Y-293877*X993603Y-294358*X993123Y-294794*X992687Y-294969*X992250D2*X991857Y-294794D1*X991377Y-294358*X991159Y-293877*X990941Y-293048*Y-292393*X991159Y-291477*X991377Y-291084*X991857Y-290648*X992250Y-290429*X992687*X993342Y-290648*X993778Y-291084*X993996Y-291477*X994214Y-292393*Y-293048*X993996Y-293877*X993778Y-294358*X993342Y-294794*X992687Y-294969*X992250*X991596Y-294794*X991159Y-294358*X990941Y-293877*X990723Y-293048*Y-292393*X990941Y-291477*X991159Y-291084*X991596Y-290648*X992250Y-290429*X1063840D2*X1064277Y-290648D1*X1064757Y-291084*X1064931Y-291477*X1065150Y-292393*Y-293048*X1064931Y-293877*X1064757Y-294358*X1064277Y-294794*X1063840Y-294969*X1063404D2*X1063011Y-294794D1*X1062531Y-294358*X1062313Y-293877*X1062094Y-293048*Y-292393*X1062313Y-291477*X1062531Y-291084*X1063011Y-290648*X1063404Y-290429*X1063840*X1064495Y-290648*X1064931Y-291084*X1065150Y-291477*X1065368Y-292393*Y-293048*X1065150Y-293877*X1064931Y-294358*X1064495Y-294794*X1063840Y-294969*X1063404*X1062749Y-294794*X1062313Y-294358*X1062094Y-293877*X1061876Y-293048*Y-292393*X1062094Y-291477*X1062313Y-291084*X1062749Y-290648*X1063404Y-290429*X925958D2*X926394Y-290648D1*X926874Y-291084*X927049Y-291477*X927267Y-292393*Y-293048*X927049Y-293877*X926874Y-294358*X926394Y-294794*X925958Y-294969*X925521D2*X925128Y-294794D1*X924648Y-294358*X924430Y-293877*X924212Y-293048*Y-292393*X924430Y-291477*X924648Y-291084*X925128Y-290648*X925521Y-290429*X925958*X926612Y-290648*X927049Y-291084*X927267Y-291477*X927485Y-292393*Y-293048*X927267Y-293877*X927049Y-294358*X926612Y-294794*X925958Y-294969*X925521*X924866Y-294794*X924430Y-294358*X924212Y-293877*X923993Y-293048*Y-292393*X924212Y-291477*X924430Y-291084*X924866Y-290648*X925521Y-290429*X824146Y-281515D2*X1106193D1*X988881Y-401004D2*X979756D1*Y-409224*X988881Y-401004D2*Y-409224D1*X979756*Y-435733D2*X988881D1*Y-427512*X979756Y-435733D2*Y-427512D1*X988881*X979756Y-423392D2*X988881D1*Y-415172*X979756Y-423392D2*Y-415172D1*X988881*X995679Y-398667D2*X994850Y-397794D1*X1006548Y-398667D2*Y-402508D1*X992493Y-400151D2*X994850D1*X995679Y-399322*Y-398667*X994850Y-397794D2*X992493D1*Y-403337*X997993D2*X998822D1*Y-402508*X997993*Y-403337*X1005020Y-402508D2*Y-398667D1*X1004191Y-397794*X1001834*Y-403337*X1004191*X1006548Y-402508D2*X1007377Y-403337D1*X1009036*X1009865Y-402508*Y-398667D2*X1009036Y-397794D1*X1007377*X1006548Y-398667*X1014623Y-397794D2*Y-402508D1*X1013793Y-403337*X1012135*X1011305Y-402508*Y-397794*X1019162Y-403337D2*X1017504Y-400326D1*X1016150D2*X1018333D1*X1019162Y-399496*Y-398667*X1018333Y-397794*X1016150*Y-403337*X1020690Y-400849D2*X1023876D1*Y-403337D2*Y-398667D1*X1023047Y-397794*X1021519*X1020690Y-398667*Y-403337*X1027761D2*X1028590Y-402508D1*Y-398667*X1027761Y-397794*X1025404*Y-403337*X1027761*X1030118Y-398667D2*Y-402508D1*X1030947Y-403337*X1032606*X1033435Y-402508*Y-398667*X1032606Y-397794*X1030947*X1030118Y-398667*X1004191Y-403337D2*X1005020Y-402508D1*X1009865D2*Y-398667D1*X1034257Y-405725D2*X1037575D1*X1035916Y-411268D2*Y-405725D1*X1029500Y-410439D2*X1030329Y-411268D1*X1031988*X1032817Y-410439*Y-405725*X1024742Y-406598D2*X1025571Y-405725D1*X1027230*X1028059Y-406598*Y-410439*X1027230Y-411268*X1025571*X1024742Y-410439*Y-406598*X1015489Y-411268D2*Y-405725D1*X1017671*X1018500Y-406598*Y-407427*X1017671Y-408257*X1015489*X1018500Y-411268D2*X1016842Y-408257D1*X1013743Y-411268D2*X1010687D1*Y-405725*X1013743*X1010687Y-408082D2*X1013743D1*X1008243Y-411268D2*X1005886D1*Y-405725*X1008243*X1009072Y-406598*Y-410439*X1008243Y-411268*X1001303Y-405725D2*Y-411268D1*X1004315*X996458Y-406598D2*X997287Y-405725D1*X998946*X999775Y-406598*Y-410439*X998946Y-411268*X997287*X996458Y-410439*Y-406598*X994930Y-405725D2*X992704D1*X991875Y-406598*Y-407122*X992704Y-407951*X994101*X994930Y-408780*Y-410439*X994101Y-411268*X991875*X1020028Y-417717D2*X1020857Y-416844D1*X1022516*X1023345Y-417717*Y-421558*X1022516Y-422387*X1020857*X1020028Y-421558*Y-417717*X1015358Y-422387D2*Y-416844D1*X1018544Y-422387*Y-416844*X1010600Y-417717D2*X1011429Y-416844D1*X1013088*X1013917Y-417717*Y-421558*X1013088Y-422387*X1011429*X1010600Y-421558*Y-417717*X1005842Y-422387D2*Y-416844D1*X1008330*X1009160Y-417717*Y-418546*X1008330Y-419201*X1009160Y-419899*Y-421558*X1008330Y-422387*X1005842*Y-419201D2*X1008330D1*X1001347Y-422387D2*Y-416844D1*X1003529*X1004358Y-417717*Y-418546*X1003529Y-419375*X1001347*X1004358Y-422387D2*X1002700Y-419375D1*X996458Y-422387D2*Y-417717D1*X997287Y-416844*X998815*X999644Y-417717*Y-422387*X996458Y-419899D2*X999644D1*X994974Y-416844D2*X992486D1*X991657Y-417717*Y-421558*X992486Y-422387*X994974*X973390Y-394014D2*X1106087D1*X927295Y-389808D2*Y-390637D1*Y-387625D2*Y-388455D1*X920791Y-386796D2*X921621Y-385923D1*X923279*X924109Y-386796*Y-390637*X923279Y-391466*X921621*X920791Y-390637*Y-386796*X916165Y-385923D2*X919482D1*X917823Y-391466D2*Y-385923D1*X911407Y-391466D2*Y-385923D1*X914593Y-391466*Y-385923*X909792Y-391466D2*X906737D1*Y-385923*X909792*X906737Y-388280D2*X909792D1*X902023Y-391466D2*Y-385923D1*X903551Y-388978*X905078Y-385923*Y-391466*X897222D2*Y-386796D1*X898051Y-385923*X899579*X900408Y-386796*Y-391466*X897222Y-388978D2*X900408D1*X892464Y-391466D2*Y-385923D1*X894952*X895781Y-386796*Y-387625*X894952Y-388280*X895781Y-388978*Y-390637*X894952Y-391466*X892464*Y-388280D2*X894952D1*X887794Y-391466D2*Y-386796D1*X888623Y-385923*X890151*X890980Y-386796*Y-391466*X887794Y-388978D2*X890980D1*X886309Y-385923D2*X883822D1*X882992Y-386796*Y-390637*X883822Y-391466*X886309*X878366D2*Y-386796D1*X879195Y-385923*X880723*X881552Y-386796*Y-391466*X878366Y-388978D2*X881552D1*X973390Y-394014D2*X824339D1*X974230Y-439754D2*X970913D1*Y-441412D2*X974230D1*X1011612Y-439754D2*X975627D1*Y-441412D2*X1011612D1*X974230Y-381591D2*X970913D1*Y-383249D2*X974230D1*X1011612Y-381591D2*X975627D1*Y-383249D2*X1011612D1*X870665Y-420682D2*X879790D1*Y-412462*X870665Y-420682D2*Y-412462D1*X879790*X836395Y-411284D2*Y-419505D1*X827270*Y-411284*X836395*X836690Y-398921D2*X827565D1*Y-407142*X836690Y-398921D2*Y-407142D1*X827565*X837464Y-415931D2*X840519D1*Y-413574D2*X837464D1*Y-419117*X840519*X845321Y-413574D2*Y-419117D1*X842134Y-413574*Y-419117*X848420D2*X846761D1*X847590D2*Y-413574D1*X848420D2*X846761D1*X853090Y-416629D2*X854617D1*Y-419117*X852391*X851562Y-418288*Y-414447*X852391Y-413574*X854617*X848137Y-400775D2*X851454D1*X849795Y-406318D2*Y-400775D1*X843335Y-401648D2*X844165Y-400775D1*X845823*X846653Y-401648*Y-405489*X845823Y-406318*X844165*X843335Y-405489*Y-401648*X838621Y-406318D2*Y-400775D1*X841808D2*Y-406318D1*X838621Y-403132D2*X841808D1*X889948Y-406575D2*Y-401032D1*X892305*X893135Y-401905*Y-402560*X892305Y-403389*X889948*X888333Y-401032D2*X886107D1*X885278Y-401905*Y-402429*X886107Y-403258*X887504*X888333Y-404088*Y-405746*X887504Y-406575*X885278*X880433Y-401905D2*X881262Y-401032D1*X882921*X883750Y-401905*Y-405746*X882921Y-406575*X881262*X880433Y-405746*Y-401905*X869990Y-407846D2*X879115D1*Y-399626*X869990Y-407846D2*Y-399626D1*X879115*X837877Y-583643D2*Y-587484D1*X838707Y-588314*X840365*X841195Y-587484*Y-583643*X840365Y-582770*X838707*X837877Y-583643*X842548Y-585127D2*X845036D1*X842548Y-588314D2*X845036D1*X845865Y-587484*Y-585826*X845036Y-585127*X845865Y-584473*Y-583643*X845036Y-582770*X842548*Y-588314*X847436D2*X849662D1*X850492Y-587484*Y-585826*X849662Y-584996*X848266*X847436Y-584167*Y-583643*X848266Y-582770*X850492*X853809Y-584473D2*Y-585302D1*Y-586655D2*Y-587484D1*X1106169Y-574303D2*Y-620526D1*X824172*Y-574303*X827766Y-439754D2*X824449D1*Y-441412D2*X827766D1*X832480Y-439754D2*X829163D1*Y-441412D2*X832480D1*X837194Y-439754D2*X833877D1*Y-441412D2*X837194D1*X841908Y-439754D2*X838591D1*Y-441412D2*X841908D1*X846622Y-439754D2*X843305D1*Y-441412D2*X846622D1*X851336Y-439754D2*X848019D1*Y-441412D2*X851336D1*X856050Y-439754D2*X852733D1*Y-441412D2*X856050D1*X860764Y-439754D2*X857447D1*Y-441412D2*X860764D1*X865478Y-439754D2*X862161D1*Y-441412D2*X865478D1*X870192Y-439754D2*X866875D1*Y-441412D2*X870192D1*X874906Y-439754D2*X871589D1*Y-441412D2*X874906D1*X879620Y-439754D2*X876303D1*Y-441412D2*X879620D1*X884334Y-439754D2*X881017D1*Y-441412D2*X884334D1*X889048Y-439754D2*X885731D1*Y-441412D2*X889048D1*X893762Y-439754D2*X890445D1*Y-441412D2*X893762D1*X898476Y-439754D2*X895159D1*Y-441412D2*X898476D1*X903190Y-439754D2*X899873D1*Y-441412D2*X903190D1*X907904Y-439754D2*X904587D1*Y-441412D2*X907904D1*X912618Y-439754D2*X909301D1*Y-441412D2*X912618D1*X917332Y-439754D2*X914015D1*Y-441412D2*X917332D1*X922046Y-439754D2*X918729D1*Y-441412D2*X922046D1*X926760Y-439754D2*X923443D1*Y-441412D2*X926760D1*X931474Y-439754D2*X928157D1*X936188D2*X932871D1*X940902D2*X937585D1*X945616D2*X942299D1*Y-441412D2*X945616D1*X950330Y-439754D2*X947013D1*Y-441412D2*X950330D1*X955044Y-439754D2*X951727D1*Y-441412D2*X955044D1*X959758Y-439754D2*X956441D1*Y-441412D2*X959758D1*X964472Y-439754D2*X961155D1*X969186D2*X965869D1*X973900D2*X970583D1*X978614D2*X975297D1*Y-441412D2*X978614D1*X983328Y-439754D2*X980011D1*Y-441412D2*X983328D1*X988042Y-439754D2*X984725D1*Y-441412D2*X988042D1*X992756Y-439754D2*X989439D1*Y-441412D2*X992756D1*X997470Y-439754D2*X994153D1*Y-441412D2*X997470D1*X1002184Y-439754D2*X998867D1*Y-441412D2*X1002184D1*X1016326Y-439754D2*X1013009D1*Y-441412D2*X1016326D1*X1021040Y-439754D2*X1017723D1*Y-441412D2*X1021040D1*X1025754Y-439754D2*X1022437D1*Y-441412D2*X1025754D1*X1030468Y-439754D2*X1027151D1*Y-441412D2*X1030468D1*X1035182Y-439754D2*X1031865D1*Y-441412D2*X1035182D1*X1039896Y-439754D2*X1036579D1*Y-441412D2*X1039896D1*X1044610Y-439754D2*X1041293D1*Y-441412D2*X1044610D1*X1049324Y-439754D2*X1046006D1*Y-441412D2*X1049324D1*X1054038Y-439754D2*X1050720D1*Y-441412D2*X1054038D1*X1058752Y-439754D2*X1055434D1*Y-441412D2*X1058752D1*X1063466Y-439754D2*X1060148D1*Y-441412D2*X1063466D1*X1068180Y-439754D2*X1064862D1*Y-441412D2*X1068180D1*X1072894Y-439754D2*X1069576D1*Y-441412D2*X1072894D1*X1077608Y-439754D2*X1074290D1*Y-441412D2*X1077608D1*X1082322Y-439754D2*X1079004D1*Y-441412D2*X1082322D1*X1087036Y-439754D2*X1083718D1*Y-441412D2*X1087036D1*X1091750Y-439754D2*X1088432D1*Y-441412D2*X1091750D1*X1096464Y-439754D2*X1093146D1*Y-441412D2*X1096464D1*X1101178Y-439754D2*X1097860D1*Y-441412D2*X1101178D1*X1105892Y-439754D2*X1102574D1*Y-441412D2*X1105892D1*X970583D2*X973900D1*X965869D2*X969186D1*X961155D2*X964472D1*X937585D2*X940902D1*X932871D2*X936188D1*X928157D2*X931474D1*X827766Y-381591D2*X824449D1*Y-383249D2*X827766D1*X832480Y-381591D2*X829163D1*Y-383249D2*X832480D1*X837194Y-381591D2*X833877D1*Y-383249D2*X837194D1*X841908Y-381591D2*X838591D1*Y-383249D2*X841908D1*X846622Y-381591D2*X843305D1*Y-383249D2*X846622D1*X851336Y-381591D2*X848019D1*Y-383249D2*X851336D1*X856050Y-381591D2*X852733D1*Y-383249D2*X856050D1*X860764Y-381591D2*X857447D1*Y-383249D2*X860764D1*X865478Y-381591D2*X862161D1*Y-383249D2*X865478D1*X870192Y-381591D2*X866875D1*Y-383249D2*X870192D1*X874906Y-381591D2*X871589D1*Y-383249D2*X874906D1*X879620Y-381591D2*X876303D1*Y-383249D2*X879620D1*X884334Y-381591D2*X881017D1*Y-383249D2*X884334D1*X889048Y-381591D2*X885731D1*Y-383249D2*X889048D1*X893762Y-381591D2*X890445D1*Y-383249D2*X893762D1*X898476Y-381591D2*X895159D1*Y-383249D2*X898476D1*X903190Y-381591D2*X899873D1*Y-383249D2*X903190D1*X907904Y-381591D2*X904587D1*Y-383249D2*X907904D1*X912618Y-381591D2*X909301D1*Y-383249D2*X912618D1*X917332Y-381591D2*X914015D1*Y-383249D2*X917332D1*X922046Y-381591D2*X918729D1*Y-383249D2*X922046D1*X926760Y-381591D2*X923443D1*Y-383249D2*X926760D1*X931474Y-381591D2*X928157D1*Y-383249D2*X931474D1*X936188Y-381591D2*X932871D1*Y-383249D2*X936188D1*X940902Y-381591D2*X937585D1*Y-383249D2*X940902D1*X945616Y-381591D2*X942299D1*Y-383249D2*X945616D1*X950330Y-381591D2*X947013D1*Y-383249D2*X950330D1*X955044Y-381591D2*X951727D1*Y-383249D2*X955044D1*X956441Y-381591D2*X959758Y-383249D1*X956441*X964472Y-381591D2*X961155D1*Y-383249D2*X964472D1*X969186Y-381591D2*X965869D1*Y-383249D2*X969186D1*X973900Y-381591D2*X970583D1*Y-383249D2*X973900D1*X978614Y-381591D2*X975297D1*Y-383249D2*X978614D1*X983328Y-381591D2*X980011D1*Y-383249D2*X983328D1*X988042Y-381591D2*X984725D1*Y-383249D2*X988042D1*X992756Y-381591D2*X989439D1*Y-383249D2*X992756D1*X997470Y-381591D2*X994153D1*Y-383249D2*X997470D1*X1002184Y-381591D2*X998867D1*Y-383249D2*X1002184D1*X1016326Y-381591D2*X1013009D1*Y-383249D2*X1016326D1*X1021040Y-381591D2*X1017723D1*Y-383249D2*X1021040D1*X1025754Y-381591D2*X1022437D1*Y-383249D2*X1025754D1*X1030468Y-381591D2*X1027151D1*Y-383249D2*X1030468D1*X1035182Y-381591D2*X1031865D1*Y-383249D2*X1035182D1*X1039896Y-381591D2*X1036579D1*Y-383249D2*X1039896D1*X1044610Y-381591D2*X1041293D1*Y-383249D2*X1044610D1*X1049324Y-381591D2*X1046006D1*Y-383249D2*X1049324D1*X1054038Y-381591D2*X1050720D1*Y-383249D2*X1054038D1*X1058752Y-381591D2*X1055434D1*Y-383249D2*X1058752D1*X1063466Y-381591D2*X1060148D1*Y-383249D2*X1063466D1*X1068180Y-381591D2*X1064862D1*Y-383249D2*X1068180D1*X1072894Y-381591D2*X1069576D1*Y-383249D2*X1072894D1*X1077608Y-381591D2*X1074290D1*Y-383249D2*X1077608D1*X1082322Y-381591D2*X1079004D1*Y-383249D2*X1082322D1*X1087036Y-381591D2*X1083718D1*Y-383249D2*X1087036D1*X1091750Y-381591D2*X1088432D1*Y-383249D2*X1091750D1*X1096464Y-381591D2*X1093146D1*Y-383249D2*X1096464D1*X1101178Y-381591D2*X1097860D1*Y-383249D2*X1101178D1*X1105892Y-381591D2*X1102574D1*Y-383249D2*X1105892D1*X835879Y-301258D2*X836097Y-300560D1*X837843Y-303877D2*X838498Y-304052D1*X842426Y-344201D2*X842645D1*Y-344420*X842426*Y-344201*Y-343983D2*X842645D1*X842863Y-344201*Y-344420*X842645Y-344594*X842426*X842208Y-344420*Y-344201*X842426Y-343983*X843081Y-341801D2*X843299D1*Y-342019*X843081*Y-341801*Y-341583D2*X843299D1*X843518Y-341801*Y-342019*X843299Y-342237*X843081*X842863Y-342019*Y-341801*X843081Y-341583*X837625Y-344201D2*X837363D1*X837189Y-344594*X837363Y-343328*Y-343765*X837625Y-344201*X837843Y-344420*X838498Y-344594*X839327*X840026Y-344420*X840244Y-344201*X840419Y-343765*Y-343110*X840244Y-342674*X839764Y-342237*X838498Y-341583*X838280Y-341102*Y-340710*X838498Y-340273*X840244Y-343110D2*X840026Y-342674D1*X838498Y-341801*X838280Y-341364*X840026Y-344420D2*X840244Y-343983D1*Y-343328*X840026Y-342848*X838673Y-342237*X838280Y-341801*X838018Y-341364*Y-340710*X838498Y-340273*X839109Y-340055*X840026*X840681Y-340273*X840855Y-340491*X841073Y-340928*Y-341364*X841335Y-340055*X841073Y-340491*X840855*X832387Y-344420D2*X833042Y-344594D1*X832606Y-344201D2*X832824Y-344594D1*X832387Y-344201D2*X831951Y-344594D1*X832387Y-344420D2*X831733Y-344594D1*X834352Y-340055D2*X833697Y-340273D1*X834133Y-340055D2*X833697Y-340491D1*X833304Y-340055D2*X833479Y-340491D1*X833042Y-340055D2*X833697Y-340273D1*X834133Y-344594D2*X834570Y-344420D1*X835006Y-343983*X835225Y-343328*Y-342674*X835006Y-342237*X834788Y-344420D2*X835225Y-343983D1*X835443Y-343328*Y-342848*X835225Y-342455*X831558Y-344594D2*X834133D1*X835006Y-344420*X835443Y-343983*X835661Y-343328*Y-342848*X835443Y-342455*X835006Y-342237*X833304*X835006D2*X835443Y-341801D1*X835661Y-341102*Y-340710*X835443Y-340273*X835225Y-340055*X835443Y-342019D2*X835661Y-341801D1*X835879Y-341102*Y-340710*X835661Y-340273*X835006Y-342237D2*X835661Y-342019D1*X835879Y-341801*X836097Y-341102*Y-340710*X835879Y-340273*X835225Y-340055*X832824*X833915D2*X832606Y-344594D1*X833697Y-340055D2*X832387Y-344594D1*X833479Y-340055D2*X832169Y-344594D1*X830030Y-340055D2*X830249Y-340273D1*X830467Y-340710*Y-341801*X830249Y-342674*X830030Y-343328*X829812Y-343765*X829376Y-344420*X828939Y-344594*X828284D2*X828066Y-344420D1*X827848Y-343983*Y-342848*X828066Y-342019*X828284Y-341364*X828503Y-340928*X828939Y-340273*X829376Y-340055*X830467Y-340491D2*X830685Y-340928D1*Y-341801*X830467Y-342674*X830249Y-343328*X829812Y-343983*X827848Y-344201D2*X827630Y-343765D1*Y-342848*X827848Y-342019*X828066Y-341364*X828503Y-340710*X829376Y-340055D2*X830030D1*X830467Y-340273*X830685Y-340491*X830860Y-341102*Y-341801*X830685Y-342674*X830467Y-343328*X830030Y-343983*X829594Y-344420*X828939Y-344594*X828284*X827848Y-344420*X827630Y-344201*X827368Y-343503*Y-342848*X827630Y-342019*X827848Y-341364*X828284Y-340710*X828721Y-340273*X829376Y-340055*Y-299512D2*X828721Y-299731D1*X828284Y-300167*X827848Y-300822*X827630Y-301476*X827368Y-302306*Y-302960*X827630Y-303659*X827848Y-303877*X828284Y-304052*X828939*X830030Y-303441D2*X830467Y-302786D1*X830685Y-302131*X830860Y-301258*Y-300560*X830685Y-299949*X830467Y-299731*X830030Y-299512*X829376*X828503Y-300167D2*X828066Y-300822D1*X827848Y-301476*X827630Y-302306*Y-303222*X827848Y-303659*X829812Y-303441D2*X830249Y-302786D1*X830467Y-302131*X830685Y-301258*Y-300385*X830467Y-299949*X829376Y-299512D2*X828939Y-299731D1*X828503Y-300385*X828284Y-300822*X828066Y-301476*X827848Y-302306*Y-303441*X828066Y-303877*X828284Y-304052*X828939D2*X829376Y-303877D1*X829812Y-303222*X830030Y-302786*X830249Y-302131*X830467Y-301258*Y-300167*X830249Y-299731*X830030Y-299512*X833479D2*X832169Y-304052D1*X833697Y-299512D2*X832387Y-304052D1*X833915Y-299512D2*X832606Y-304052D1*X832824Y-299512D2*X835225D1*X835879Y-299731*X836097Y-300167*Y-300560*X835879Y-301258D2*X835661Y-301476D1*X835006Y-301695*X835661Y-299731D2*X835879Y-300167D1*Y-300560*X835661Y-301258*X835443Y-301476*X835225Y-299512D2*X835443Y-299731D1*X835661Y-300167*Y-300560*X835443Y-301258*X835006Y-301695*X833304*X835006D2*X835443Y-301913D1*X835661Y-302306*Y-302786*X835443Y-303441*X835006Y-303877*X834133Y-304052*X831558*X835225Y-301913D2*X835443Y-302306D1*Y-302786*X835225Y-303441*X834788Y-303877*X835006Y-301695D2*X835225Y-302131D1*Y-302786*X835006Y-303441*X834570Y-303877*X834133Y-304052*X833042Y-299512D2*X833697Y-299731D1*X833304Y-299512D2*X833479Y-299949D1*X834133Y-299512D2*X833697Y-299949D1*X834352Y-299512D2*X833697Y-299731D1*X832387Y-303877D2*X831733Y-304052D1*X832387Y-303659D2*X831951Y-304052D1*X832606Y-303659D2*X832824Y-304052D1*X832387Y-303877D2*X833042Y-304052D1*X840855Y-299949D2*X841073D1*X841335Y-299512*X841073Y-300822*Y-300385*X840855Y-299949*X840681Y-299731*X840026Y-299512*X839109*X838498Y-299731*X838018Y-300167*Y-300822*X838280Y-301258*X838673Y-301695*X840026Y-302306*X840244Y-302786*Y-303441*X840026Y-303877*X838280Y-300822D2*X838498Y-301258D1*X840026Y-302131*X840244Y-302568*X838498Y-299731D2*X838280Y-300167D1*Y-300560*X838498Y-301040*X839764Y-301695*X840244Y-302131*X840419Y-302568*Y-303222*X840244Y-303659*X840026Y-303877*X839327Y-304052*X838498*X837843Y-303877D2*X837625Y-303659D1*X837363Y-303222*Y-302786*X837189Y-304052*X837363Y-303659*X837625*X843081Y-301040D2*X842863Y-301258D1*Y-301476*X843081Y-301695*X843299*X843518Y-301476*Y-301258*X843299Y-301040*X843081*Y-301258D2*Y-301476D1*X843299*Y-301258*X843081*X842426Y-303441D2*X842208Y-303659D1*Y-303877*X842426Y-304052*X842645*X842863Y-303877*Y-303659*X842645Y-303441*X842426*Y-303659D2*Y-303877D1*X842645*Y-303659*X842426*X837019Y-363695D2*Y-358152D1*X835492Y-361207*X833964Y-358152*Y-363695*X838678Y-360509D2*X841733D1*Y-358152D2*X838678D1*Y-363695*X841733*X846535Y-358152D2*Y-363695D1*X843348Y-358152*Y-363695*X848019Y-359024D2*Y-362866D1*X848848Y-363695*X850507*X851336Y-362866*Y-359024*X850507Y-358152*X848848*X848019Y-359024*X855919Y-363695D2*X854260Y-360683D1*X852907D2*X855090D1*X855919Y-359854*Y-359024*X855090Y-358152*X852907*Y-363695*X863776D2*X862117D1*X862946D2*Y-358152D1*X863776D2*X862117D1*X867006Y-363695D2*X869232D1*X870061Y-362866*Y-361207*X869232Y-360378*X867835*X867006Y-359548*Y-359024*X867835Y-358152*X870061*X871589Y-359024D2*Y-362866D1*X872418Y-363695*X874077*X874906Y-362866*Y-359024*X874077Y-358152*X872418*X871589Y-359024*X879445Y-363695D2*X876434D1*Y-358152*X881017Y-361207D2*X884203D1*Y-363695D2*Y-359024D1*X883374Y-358152*X881846*X881017Y-359024*Y-363695*X888961D2*X886473D1*X885643Y-362866*Y-359024*X886473Y-358152*X888961*X890445Y-361207D2*X893631D1*Y-363695D2*Y-359024D1*X892802Y-358152*X891274*X890445Y-359024*Y-363695*X895159Y-359024D2*Y-362866D1*X895988Y-363695*X897647*X898476Y-362866*Y-359024*X897647Y-358152*X895988*X895159Y-359024*X901662Y-359854D2*Y-360683D1*Y-362036D2*Y-362866D1*X922744Y-363695D2*X927196D1*X927458D2*X931910D1*X932172D2*X936624D1*X936886D2*X941338D1*X941600D2*X946052D1*X946314D2*X950766D1*X951028D2*X955480D1*X955742D2*X960194D1*X960456D2*X964908D1*X965170D2*X969622D1*X969884D2*X974336D1*X974598D2*X979050D1*X979312D2*X983764D1*X984026D2*X988478D1*X991228D2*Y-361381D1*X992887Y-363695D2*Y-361381D1*X992057Y-360509*X991228Y-361381*X990399Y-360509*X989570Y-361381*Y-360509D2*Y-363695D1*X995942D2*Y-361381D1*X997601Y-363695D2*Y-361381D1*X996771Y-360509*X995942Y-361381*X995113Y-360509*X994284Y-361381*Y-360509D2*Y-363695D1*X837019Y-377837D2*Y-372294D1*X835492Y-375349*X838678Y-374650D2*X841733D1*Y-372294D2*X838678D1*Y-377837*X841733*X846535Y-372294D2*Y-377837D1*X843348Y-372294*Y-377837*X848019Y-373166D2*Y-377007D1*X848848Y-377837*X850507*X851336Y-377007*Y-373166*X850507Y-372294*X848848*X848019Y-373166*X855919Y-377837D2*X854260Y-374825D1*X852907D2*X855090D1*X855919Y-373996*Y-373166*X855090Y-372294*X852907*Y-377837*X862248Y-374650D2*X865303D1*Y-372294D2*X862248D1*Y-377837*X865303*X867006D2*X869232D1*X870061Y-377007*Y-375349*X869232Y-374520*X867835*X867006Y-373690*Y-373166*X867835Y-372294*X870061*X871676Y-374650D2*X874033D1*X874862Y-373821*Y-373166*X874033Y-372294*X871676*Y-377837*X876390Y-374650D2*X879445D1*Y-372294D2*X876390D1*Y-377837*X879445*X881148D2*X883374D1*X884203Y-377007*Y-375349*X883374Y-374520*X881977*X881148Y-373690*Y-373166*X881977Y-372294*X884203*X885862Y-377837D2*X888088D1*X888917Y-377007*Y-375349*X888088Y-374520*X886691*X885862Y-373690*Y-373166*X886691Y-372294*X888917*X893806D2*Y-377007D1*X892976Y-377837*X891318*X890488Y-377007*Y-372294*X898345Y-377837D2*X896686Y-374825D1*X895333D2*X897516D1*X898345Y-373996*Y-373166*X897516Y-372294*X895333*Y-377837*X899873Y-375349D2*X903059D1*Y-377837D2*Y-373166D1*X902230Y-372294*X900702*X899873Y-373166*Y-377837*X909388Y-374650D2*X911745D1*X912574Y-373821*Y-373166*X911745Y-372294*X909388*Y-377837*X915630D2*X913971D1*X914800D2*Y-372294D1*X915630D2*X913971D1*X918860Y-377837D2*X921086D1*X921915Y-377007*Y-375349*X921086Y-374520*X919689*X918860Y-373690*Y-373166*X919689Y-372294*X921915*X925189Y-377837D2*Y-372294D1*X923530D2*X926847D1*X928157Y-375349D2*X931343D1*Y-377837D2*Y-373166D1*X930514Y-372294*X928986*X928157Y-373166*Y-377837*X934660Y-373996D2*Y-374825D1*Y-376178D2*Y-377007D1*X941600Y-377837D2*X946052D1*X946314D2*X950766D1*X951028D2*X955480D1*X955742D2*X960194D1*X960456D2*X964908D1*X965170D2*X969622D1*X969884D2*X974336D1*X974598D2*X979050D1*X979312D2*X983764D1*X984026D2*X988478D1*X988740D2*X993192D1*X995942D2*Y-375523D1*X997601Y-377837D2*Y-375523D1*X996771Y-374650*X995942Y-375523*X995113Y-374650*X994284Y-375523*Y-374650D2*Y-377837D1*X1000656D2*Y-375523D1*X1002315Y-377837D2*Y-375523D1*X1001485Y-374650*X1000656Y-375523*X999827Y-374650*X998998Y-375523*Y-374650D2*Y-377837D1*X1106169Y-85841D2*Y-66699D1*X824172*Y-85841*X1106169*X837107Y-102763D2*X834619D1*X833790Y-101934*Y-98093*X834619Y-97220*X837107*X841733Y-102763D2*X838722D1*Y-97220*X844920Y-102763D2*X843261D1*X844090D2*Y-97220D1*X844920D2*X843261D1*X848106Y-99577D2*X851161D1*Y-97220D2*X848106D1*Y-102763*X851161*X855963Y-97220D2*Y-102763D1*X852776Y-97220*Y-102763*X859193D2*Y-97220D1*X857534D2*X860851D1*X862248Y-99577D2*X865303D1*Y-97220D2*X862248D1*Y-102763*X865303*X868664Y-98922D2*Y-99751D1*Y-101105D2*Y-101934D1*X870890Y-102763D2*X875342D1*X875604D2*X880056D1*X880318D2*X884770D1*X885032D2*X889484D1*X889746D2*X894198D1*X894460D2*X898912D1*X899174D2*X903626D1*X903888D2*X908340D1*X908602D2*X913054D1*X913316D2*X917768D1*X918030D2*X922482D1*X922744D2*X927196D1*X927458D2*X931910D1*X932172D2*X936624D1*X936886D2*X941338D1*X941600D2*X946052D1*X946314D2*X950766D1*X951028D2*X955480D1*X955742D2*X960194D1*X960456D2*X964908D1*X965170D2*X969622D1*X969884D2*X974336D1*X974598D2*X979050D1*X979312D2*X983764D1*X984026D2*X988478D1*X988740D2*X993192D1*X993454D2*X997906D1*X998168D2*X1002620D1*X1002882D2*X1007334D1*X1007596D2*X1012048D1*X1012310D2*X1016762D1*X1017024D2*X1021476D1*X1021738D2*X1026190D1*X1026452D2*X1030904D1*X1031166D2*X1035618D1*X1035880D2*X1040332D1*X1040594D2*X1045046D1*X1045308D2*X1049760D1*X1050022D2*X1054474D1*X1054736D2*X1059188D1*X1059450D2*X1063902D1*X1064164D2*X1068616D1*X1068878D2*X1073330D1*X1073592D2*X1078044D1*X1078306D2*X1082758D1*X1083020D2*X1087472D1*X1087734D2*X1092186D1*X1092448D2*X1096900D1*X837019Y-116905D2*Y-111362D1*X835492Y-114417*X833964Y-111362*Y-116905*X838591Y-112235D2*Y-116076D1*X839420Y-116905*X841079*X841908Y-116076*Y-112235*X841079Y-111362*X839420*X838591Y-112235*X845662Y-116905D2*X846491Y-116076D1*Y-112235*X845662Y-111362*X843305*Y-116905*X845662*X848106Y-113719D2*X851161D1*Y-111362D2*X848106D1*Y-116905*X851161*X857447Y-112235D2*Y-116076D1*X858276Y-116905*X859935*X860764Y-116076*Y-112235*X859935Y-111362*X858276*X857447Y-112235*X863950Y-113064D2*Y-113893D1*Y-115247D2*Y-116076D1*X866176Y-116905D2*X870628D1*X870890D2*X875342D1*X875604D2*X880056D1*X880318D2*X884770D1*X885032D2*X889484D1*X889746D2*X894198D1*X894460D2*X898912D1*X899174D2*X903626D1*X903888D2*X908340D1*X908602D2*X913054D1*X913316D2*X917768D1*X918030D2*X922482D1*X922744D2*X927196D1*X927458D2*X931910D1*X932172D2*X936624D1*X936886D2*X941338D1*X941600D2*X946052D1*X946314D2*X950766D1*X951028D2*X955480D1*X955742D2*X960194D1*X960456D2*X964908D1*X965170D2*X969622D1*X969884D2*X974336D1*X974598D2*X979050D1*X979312D2*X983764D1*X984026D2*X988478D1*X988740D2*X993192D1*X993454D2*X997906D1*X998168D2*X1002620D1*X1002882D2*X1007334D1*X1007596D2*X1012048D1*X1012310D2*X1016762D1*X1017024D2*X1021476D1*X1021738D2*X1026190D1*X1026452D2*X1030904D1*X1031166D2*X1035618D1*X1035880D2*X1040332D1*X1040594D2*X1045046D1*X1045308D2*X1049760D1*X1050022D2*X1054474D1*X1054736D2*X1059188D1*X1059450D2*X1063902D1*X1064164D2*X1068616D1*X1068878D2*X1073330D1*X1073592D2*X1078044D1*X1078306D2*X1082758D1*X1083020D2*X1087472D1*X1087734D2*X1092186D1*X1092448D2*X1096900D1*X836234Y-131047D2*X837063Y-130218D1*Y-126377*X836234Y-125504*X833877*Y-131047*X836234*X838591Y-128559D2*X841777D1*Y-131047D2*Y-126377D1*X840948Y-125504*X839420*X838591Y-126377*Y-131047*X845051D2*Y-125504D1*X843392D2*X846709D1*X848019Y-128559D2*X851205D1*Y-131047D2*Y-126377D1*X850376Y-125504*X848848*X848019Y-126377*Y-131047*X854522Y-127206D2*Y-128035D1*Y-129389D2*Y-130218D1*X861462Y-131047D2*X865914D1*X866176D2*X870628D1*X870890D2*X875342D1*X875604D2*X880056D1*X880318D2*X884770D1*X885032D2*X889484D1*X893631Y-125504D2*X890445Y-131047D1*X894460D2*X898912D1*X899174D2*X903626D1*X903888D2*X908340D1*X908602D2*X913054D1*X913316D2*X917768D1*X918030D2*X922482D1*X922744D2*X927196D1*X931343Y-125504D2*X928157Y-131047D1*X932172D2*X936624D1*X936886D2*X941338D1*X941600D2*X946052D1*X946314D2*X950766D1*X951028D2*X955480D1*X955742D2*X960194D1*X960456D2*X964908D1*X965170D2*X969622D1*X969884D2*X974336D1*X827766Y-156014D2*X824449D1*Y-157672D2*X827766D1*X832480Y-156014D2*X829163D1*Y-157672D2*X832480D1*X837194Y-156014D2*X833877D1*Y-157672D2*X837194D1*X841908Y-156014D2*X838591D1*Y-157672D2*X841908D1*X846622Y-156014D2*X843305D1*Y-157672D2*X846622D1*X851336Y-156014D2*X848019D1*Y-157672D2*X851336D1*X856050Y-156014D2*X852733D1*Y-157672D2*X856050D1*X860764Y-156014D2*X857447D1*Y-157672D2*X860764D1*X865478Y-156014D2*X862161D1*Y-157672D2*X865478D1*X870192Y-156014D2*X866875D1*Y-157672D2*X870192D1*X874906Y-156014D2*X871589D1*Y-157672D2*X874906D1*X879620Y-156014D2*X876303D1*Y-157672D2*X879620D1*X884334Y-156014D2*X881017D1*Y-157672D2*X884334D1*X889048Y-156014D2*X885731D1*Y-157672D2*X889048D1*X893762Y-156014D2*X890445D1*Y-157672D2*X893762D1*X898476Y-156014D2*X895159D1*Y-157672D2*X898476D1*X903190Y-156014D2*X899873D1*Y-157672D2*X903190D1*X907904Y-156014D2*X904587D1*Y-157672D2*X907904D1*X912618Y-156014D2*X909301D1*Y-157672D2*X912618D1*X917332Y-156014D2*X914015D1*Y-157672D2*X917332D1*X922046Y-156014D2*X918729D1*Y-157672D2*X922046D1*X926760Y-156014D2*X923443D1*Y-157672D2*X926760D1*X931474Y-156014D2*X928157D1*Y-157672D2*X931474D1*X936188Y-156014D2*X932871D1*Y-157672D2*X936188D1*X940902Y-156014D2*X937585D1*Y-157672D2*X940902D1*X945616Y-156014D2*X942299D1*Y-157672D2*X945616D1*X950330Y-156014D2*X947013D1*Y-157672D2*X950330D1*X955044Y-156014D2*X951727D1*Y-157672D2*X955044D1*X959758Y-156014D2*X956441D1*Y-157672D2*X959758D1*X964472Y-156014D2*X961155D1*Y-157672D2*X964472D1*X969186Y-156014D2*X965869D1*Y-157672D2*X969186D1*X973900Y-156014D2*X970583D1*Y-157672D2*X973900D1*X978614Y-156014D2*X975297D1*Y-157672D2*X978614D1*X983328Y-156014D2*X980011D1*Y-157672D2*X983328D1*X988042Y-156014D2*X984725D1*Y-157672D2*X988042D1*X992756Y-156014D2*X989439D1*Y-157672D2*X992756D1*X997470Y-156014D2*X994153D1*Y-157672D2*X997470D1*X1002184Y-156014D2*X998867D1*Y-157672D2*X1002184D1*X1006898Y-156014D2*X1003581D1*Y-157672D2*X1006898D1*X1011612Y-156014D2*X1008295D1*Y-157672D2*X1011612D1*X1016326Y-156014D2*X1013009D1*Y-157672D2*X1016326D1*X1021040Y-156014D2*X1017723D1*X1025754D2*X1022437D1*Y-157672D2*X1025754D1*X1030468Y-156014D2*X1027151D1*Y-157672D2*X1030468D1*X1035182Y-156014D2*X1031865D1*Y-157672D2*X1035182D1*X1039896Y-156014D2*X1036579D1*Y-157672D2*X1039896D1*X1044610Y-156014D2*X1041293D1*Y-157672D2*X1044610D1*X1049324Y-156014D2*X1046006D1*Y-157672D2*X1049324D1*X1054038Y-156014D2*X1050720D1*Y-157672D2*X1054038D1*X1058752Y-156014D2*X1055434D1*Y-157672D2*X1058752D1*X1063466Y-156014D2*X1060148D1*Y-157672D2*X1063466D1*X1068180Y-156014D2*X1064862D1*Y-157672D2*X1068180D1*X1072894Y-156014D2*X1069576D1*Y-157672D2*X1072894D1*X1077608Y-156014D2*X1074290D1*Y-157672D2*X1077608D1*X1082322Y-156014D2*X1079004D1*Y-157672D2*X1082322D1*X1087036Y-156014D2*X1083718D1*Y-157672D2*X1087036D1*X1091750Y-156014D2*X1088432D1*Y-157672D2*X1091750D1*X1096464Y-156014D2*X1093146D1*Y-157672D2*X1096464D1*X1101178Y-156014D2*X1097860D1*Y-157672D2*X1101178D1*X1105892Y-156014D2*X1102574D1*Y-157672D2*X1105892D1*X833964Y-163216D2*X836321D1*X837150Y-162386*Y-161732*X836321Y-160859*X833964*Y-166402*X841777D2*X840118Y-163390D1*X838765D2*X840948D1*X841777Y-162561*Y-161732*X840948Y-160859*X838765*Y-166402*X843305Y-161732D2*Y-165573D1*X844134Y-166402*X845793*X846622Y-165573*Y-161732*X845793Y-160859*X844134*X843305Y-161732*X851249Y-166402D2*X848761D1*X847931Y-165573*Y-161732*X848761Y-160859*X851249*X852820Y-163216D2*X855875D1*Y-160859D2*X852820D1*Y-166402*X855875*X857578D2*X859804D1*X860633Y-165573*Y-163914*X859804Y-163085*X858407*X857578Y-162256*Y-161732*X858407Y-160859*X860633*X862292Y-166402D2*X864518D1*X865347Y-165573*Y-163914*X864518Y-163085*X863121*X862292Y-162256*Y-161732*X863121Y-160859*X865347*X866875Y-161732D2*Y-165573D1*X867704Y-166402*X869363*X870192Y-165573*Y-161732*X869363Y-160859*X867704*X866875Y-161732*X873378Y-162561D2*Y-163390D1*Y-164743D2*Y-165573D1*X892802Y-173473D2*X893631Y-172644D1*Y-168803*X892802Y-167930*X890445*Y-173473*X892802*X896032D2*X896861D1*Y-172644*X896032*Y-173473*X902142Y-170287D2*X899960D1*Y-173473D2*Y-167930D1*X902972*X904587Y-170985D2*X907773D1*Y-173473D2*Y-168803D1*X906944Y-167930*X905416*X904587Y-168803*Y-173473*X912531D2*X910043D1*X909213Y-172644*Y-168803*X910043Y-167930*X912531*X914102Y-170287D2*X917157D1*Y-167930D2*X914102D1*Y-173473*X917157*X925014Y-167930D2*Y-173473D1*X939854Y-170287D2*X937672D1*Y-173473D2*Y-167930D1*X940684*X943172Y-173473D2*X944001D1*Y-172644*X943172*Y-173473*X947144D2*X949370D1*X950199Y-172644*Y-170985*X949370Y-170156*X947973*X947144Y-169327*Y-168803*X947973Y-167930*X950199*X953342Y-173473D2*X951683D1*X952512D2*Y-167930D1*X953342D2*X951683D1*X959583Y-173473D2*Y-167930D1*X958056Y-170985*X956528Y-167930*Y-173473*X961242Y-170287D2*X963599D1*X964428Y-169457*Y-168803*X963599Y-167930*X961242*Y-173473*X969011D2*X966000D1*Y-167930*X970670Y-170287D2*X973725D1*Y-167930D2*X970670D1*Y-173473*X973725*X975428D2*X977654D1*X978483Y-172644*Y-170985*X977654Y-170156*X976257*X975428Y-169327*Y-168803*X976257Y-167930*X978483*X986296D2*Y-173473D1*X998998D2*X1001224D1*X1002053Y-172644*Y-170985*X1001224Y-170156*X999827*X998998Y-169327*Y-168803*X999827Y-167930*X1002053*X1003668Y-170287D2*X1006723D1*Y-167930D2*X1003668D1*Y-173473*X1006723*X1011437D2*Y-167930D1*X1009910Y-170985*X1008382Y-167930*Y-173473*X1020952D2*X1018465D1*X1017635Y-172644*Y-168803*X1018465Y-167930*X1020952*X1022437Y-168803D2*Y-172644D1*X1023266Y-173473*X1024924*X1025754Y-172644*Y-168803*X1024924Y-167930*X1023266*X1022437Y-168803*X1027107Y-170287D2*X1029595D1*X1027107Y-173473D2*X1029595D1*X1030424Y-172644*Y-170985*X1029595Y-170287*X1030424Y-169632*Y-168803*X1029595Y-167930*X1027107*Y-173473*X1035051D2*X1033392Y-170461D1*X1032039D2*X1034221D1*X1035051Y-169632*Y-168803*X1034221Y-167930*X1032039*Y-173473*X1036666Y-170287D2*X1039721D1*Y-167930D2*X1036666D1*Y-173473*X1039721*X893587Y-187615D2*Y-182072D1*X892060Y-185127*X890532Y-182072*Y-187615*X896032D2*X896861D1*Y-186786*X896032*Y-187615*X903015D2*X900004D1*Y-182072*X904587Y-185127D2*X907773D1*Y-187615D2*Y-182945D1*X906944Y-182072*X905416*X904587Y-182945*Y-187615*X909475Y-182072D2*X911003Y-184298D1*X912531Y-182072D2*X911003Y-184298D1*Y-187615*X914102Y-184429D2*X917157D1*Y-182072D2*X914102D1*Y-187615*X917157*X921915D2*X920256Y-184603D1*X918903D2*X921086D1*X921915Y-182945*X921086Y-182072*X918903*Y-187615*X925232Y-183774D2*Y-184603D1*Y-185956D2*Y-186786D1*X927458Y-187615D2*X931910D1*X932172D2*X936624D1*X936886D2*X941338D1*X941600D2*X946052D1*X946314D2*X950766D1*X951028D2*X955480D1*X955742D2*X960194D1*X969099D2*X966611D1*X965781Y-186786*Y-182945*X966611Y-182072*X969099*X970583Y-185127D2*X973769D1*Y-187615D2*Y-182945D1*X972940Y-182072*X971412*X970583Y-182945*Y-187615*X978439D2*Y-182072D1*X976912Y-185127*X975384Y-182072*Y-187615*X980011Y-185127D2*X983197D1*Y-187615D2*Y-182945D1*X982368Y-182072*X980840*X980011Y-182945*Y-187615*X987082D2*X987911Y-186786D1*Y-182945*X987082Y-182072*X984725*Y-187615*X987082*X989439Y-185127D2*X992625D1*Y-187615D2*Y-182945D1*X991796Y-182072*X990268*X989439Y-182945*Y-187615*X994284D2*X996510D1*X997339Y-186786*Y-185127*X996510Y-184298*X995113*X994284Y-183468*Y-182945*X995113Y-182072*X997339*X827766Y-198440D2*X824449D1*Y-200098D2*X827766D1*X832480Y-198440D2*X829163D1*Y-200098D2*X832480D1*X837194Y-198440D2*X833877D1*Y-200098D2*X837194D1*X841908Y-198440D2*X838591D1*Y-200098D2*X841908D1*X846622Y-198440D2*X843305D1*Y-200098D2*X846622D1*X851336Y-198440D2*X848019D1*Y-200098D2*X851336D1*X856050Y-198440D2*X852733D1*Y-200098D2*X856050D1*X860764Y-198440D2*X857447D1*Y-200098D2*X860764D1*X865478Y-198440D2*X862161D1*Y-200098D2*X865478D1*X870192Y-198440D2*X866875D1*Y-200098D2*X870192D1*X874906Y-198440D2*X871589D1*Y-200098D2*X874906D1*X879620Y-198440D2*X876303D1*Y-200098D2*X879620D1*X884334Y-198440D2*X881017D1*Y-200098D2*X884334D1*X889048Y-198440D2*X885731D1*Y-200098D2*X889048D1*X893762Y-198440D2*X890445D1*Y-200098D2*X893762D1*X898476Y-198440D2*X895159D1*Y-200098D2*X898476D1*X903190Y-198440D2*X899873D1*Y-200098D2*X903190D1*X907904Y-198440D2*X904587D1*Y-200098D2*X907904D1*X912618Y-198440D2*X909301D1*Y-200098D2*X912618D1*X917332Y-198440D2*X914015D1*X922046D2*X918729D1*Y-200098D2*X922046D1*X926760Y-198440D2*X923443D1*Y-200098D2*X926760D1*X931474Y-198440D2*X928157D1*Y-200098D2*X931474D1*X936188Y-198440D2*X932871D1*Y-200098D2*X936188D1*X940902Y-198440D2*X937585D1*Y-200098D2*X940902D1*X945616Y-198440D2*X942299D1*Y-200098D2*X945616D1*X950330Y-198440D2*X947013D1*Y-200098D2*X950330D1*X955044Y-198440D2*X951727D1*Y-200098D2*X955044D1*X959758Y-198440D2*X956441D1*Y-200098D2*X959758D1*X964472Y-198440D2*X961155D1*Y-200098D2*X964472D1*X969186Y-198440D2*X965869D1*Y-200098D2*X969186D1*X973900Y-198440D2*X970583D1*Y-200098D2*X973900D1*X978614Y-198440D2*X975297D1*Y-200098D2*X978614D1*X983328Y-198440D2*X980011D1*Y-200098D2*X983328D1*X988042Y-198440D2*X984725D1*Y-200098D2*X988042D1*X992756Y-198440D2*X989439D1*Y-200098D2*X992756D1*X997470Y-198440D2*X994153D1*Y-200098D2*X997470D1*X1002184Y-198440D2*X998867D1*Y-200098D2*X1002184D1*X1006898Y-198440D2*X1003581D1*Y-200098D2*X1006898D1*X1011612Y-198440D2*X1008295D1*Y-200098D2*X1011612D1*X1016326Y-198440D2*X1013009D1*Y-200098D2*X1016326D1*X1021040Y-198440D2*X1017723D1*Y-200098D2*X1021040D1*X1025754Y-198440D2*X1022437D1*Y-200098D2*X1025754D1*X1030468Y-198440D2*X1027151D1*Y-200098D2*X1030468D1*X1035182Y-198440D2*X1031865D1*Y-200098D2*X1035182D1*X1039896Y-198440D2*X1036579D1*Y-200098D2*X1039896D1*X1044610Y-198440D2*X1041293D1*Y-200098D2*X1044610D1*X1049324Y-198440D2*X1046006D1*Y-200098D2*X1049324D1*X1054038Y-198440D2*X1050720D1*Y-200098D2*X1054038D1*X1058752Y-198440D2*X1055434D1*Y-200098D2*X1058752D1*X1063466Y-198440D2*X1060148D1*Y-200098D2*X1063466D1*X1068180Y-198440D2*X1064862D1*Y-200098D2*X1068180D1*X1072894Y-198440D2*X1069576D1*Y-200098D2*X1072894D1*X1077608Y-198440D2*X1074290D1*Y-200098D2*X1077608D1*X1082322Y-198440D2*X1079004D1*Y-200098D2*X1082322D1*X1087036Y-198440D2*X1083718D1*Y-200098D2*X1087036D1*X1091750Y-198440D2*X1088432D1*Y-200098D2*X1091750D1*X1096464Y-198440D2*X1093146D1*Y-200098D2*X1096464D1*X1101178Y-198440D2*X1097860D1*Y-200098D2*X1101178D1*X1105892Y-198440D2*X1102574D1*Y-200098D2*X1105892D1*X836234Y-208828D2*X837063Y-207999D1*Y-204158*X836234Y-203285*X833877*Y-208828*X836234*X840206D2*X838547D1*X839376D2*Y-203285D1*X840206D2*X838547D1*X846447Y-208828D2*Y-203285D1*X844920Y-206340*X843392Y-203285*Y-208828*X848106Y-205642D2*X851161D1*Y-203285D2*X848106D1*Y-208828*X851161*X855963Y-203285D2*Y-208828D1*X852776Y-203285*Y-208828*X857578D2*X859804D1*X860633Y-206340*X859804Y-205511*X858407*X857578Y-204681*Y-204158*X858407Y-203285*X860633*X862161Y-206340D2*X865347D1*Y-208828D2*Y-204158D1*X864518Y-203285*X862990*X862161Y-204158*Y-208828*X866875Y-204158D2*Y-207999D1*X867704Y-208828*X869363*X870192Y-207999*Y-204158*X869363Y-203285*X867704*X866875Y-204158*X873378Y-204987D2*Y-205816D1*Y-207169D2*Y-207999D1*X885032Y-215899D2*X889484D1*X889746D2*X894198D1*X894460D2*X898912D1*X899174D2*X903626D1*X903888D2*X908340D1*X908602D2*X913054D1*X918030D2*X922482D1*X922744D2*X927196D1*X927458D2*X931910D1*X932172D2*X936624D1*X936886D2*X941338D1*X941600D2*X946052D1*X954957D2*X951639Y-210356D1*Y-215899D2*X954957Y-210356D1*X960456Y-215899D2*X964908D1*X965170D2*X969622D1*X969884D2*X974336D1*X974598D2*X979050D1*X979312D2*X983764D1*X984026D2*X988478D1*X988740D2*X993192D1*X993454D2*X997906D1*X998168D2*X1002620D1*X1002882D2*X1007334D1*X1007596D2*X1012048D1*X1012310D2*X1016762D1*X1017024D2*X1021476D1*X1033654D2*Y-213586D1*X1035313Y-215899D2*Y-213586D1*X1034483Y-212713*X1033654Y-213586*X1032825Y-212713*X1031995Y-213586*Y-212713D2*Y-215899D1*X1038368D2*Y-213586D1*X1040027Y-215899D2*Y-213586D1*X1039197Y-212713*X1038368Y-213586*X1037539Y-212713*X1036709Y-213586*Y-212713D2*Y-215899D1*X827591Y-220657D2*X824536D1*X832305D2*X829250D1*X837019D2*X833964D1*X841733D2*X838678D1*X846447D2*X843392D1*X851161D2*X848106D1*X855875D2*X852820D1*X860589D2*X857534D1*X865303D2*X862248D1*X870017D2*X866962D1*X874731D2*X871676D1*X879445D2*X876390D1*X884159D2*X881104D1*X888873D2*X885818D1*X893587D2*X890532D1*X898301D2*X895246D1*X903015D2*X899960D1*X907729D2*X904674D1*X912443D2*X909388D1*X917157D2*X914102D1*X921871D2*X918816D1*X926585D2*X923530D1*X931299D2*X928244D1*X936013D2*X932958D1*X940727D2*X937672D1*X945441D2*X942386D1*X950155D2*X947100D1*X954869D2*X951814D1*X959583D2*X956528D1*X964297D2*X961242D1*X969011D2*X965956D1*X973725D2*X970670D1*X978439D2*X975384D1*X983153D2*X980098D1*X987867D2*X984812D1*X992581D2*X989526D1*X997295D2*X994240D1*X1002009D2*X998954D1*X1006723D2*X1003668D1*X1011437D2*X1008382D1*X1016151D2*X1013096D1*X1020865D2*X1017810D1*X1025579D2*X1022524D1*X1030293D2*X1027238D1*X1035007D2*X1031952D1*X1039721D2*X1036666D1*X1044435D2*X1041380D1*X1049149D2*X1046094D1*X1053863D2*X1050808D1*X1058577D2*X1055522D1*X1063291D2*X1060236D1*X1068005D2*X1064950D1*X1072719D2*X1069664D1*X1077433D2*X1074378D1*X1082147D2*X1079092D1*X833964Y-226855D2*X837019D1*Y-224498D2*X833964D1*Y-230041*X837019*X841821Y-224498D2*Y-230041D1*X838634Y-224498*Y-230041*X845051D2*Y-224498D1*X843392D2*X846709D1*X851205Y-230041D2*X849546Y-227029D1*X848193D2*X850376D1*X851205Y-226200*Y-225371*X850376Y-224498*X848193*Y-230041*X852820Y-226855D2*X855875D1*Y-224498D2*X852820D1*Y-230041*X855875*X859018Y-227553D2*X860546D1*Y-230041*X858320*X857490Y-229212*Y-225371*X858320Y-224498*X860546*X862161Y-227553D2*X865347D1*Y-230041D2*Y-225371D1*X864518Y-224498*X862990*X862161Y-225371*Y-230041*X868664Y-226200D2*Y-227029D1*Y-228382D2*Y-229212D1*X846666Y-238640D2*Y-243354D1*X845836Y-244183*X844178*X843348Y-243354*Y-238640*X851249D2*Y-244183D1*X848062Y-238640*Y-244183*X854348D2*X852689D1*X853518D2*Y-238640D1*X854348D2*X852689D1*X859193Y-244183D2*Y-238640D1*X857534D2*X860851D1*X862161Y-241695D2*X865347D1*Y-244183D2*Y-239513D1*X864518Y-238640*X862990*X862161Y-239513*Y-244183*X870061D2*X868402Y-241171D1*X867049D2*X869232D1*X870061Y-240342*Y-239513*X869232Y-238640*X867049*Y-244183*X873204D2*X871545D1*X872374D2*Y-238640D1*X873204D2*X871545D1*X876303Y-239513D2*Y-243354D1*X877132Y-244183*X878791*X879620Y-243354*Y-239513*X878791Y-238640*X877132*X876303Y-239513*X843392Y-255139D2*X845749D1*X846578Y-254309*Y-253655*X845749Y-252782*X843392*Y-258325*X848019Y-255837D2*X851205D1*Y-258325D2*Y-253655D1*X850376Y-252782*X848848*X848019Y-253655*Y-258325*X854348D2*X852689D1*X853518D2*Y-252782D1*X854348D2*X852689D1*X860677D2*Y-258325D1*X857490Y-252782*Y-258325*X862248Y-255139D2*X865303D1*Y-252782D2*X862248D1*Y-258325*X865303*X870017D2*X867006D1*Y-252782*X873378Y-254484D2*Y-255313D1*Y-256666D2*Y-257496D1*X875604Y-258325D2*X880056D1*X880318D2*X884770D1*X889746D2*X894198D1*X894460D2*X898912D1*X899174D2*X903626D1*X903888D2*X908340D1*X908602D2*X913054D1*X913316D2*X917768D1*X921959D2*X918641Y-252782D1*Y-258325D2*X921959Y-252782D1*X922744Y-258325D2*X927196D1*X927458D2*X931910D1*X932172D2*X936624D1*X936886D2*X941338D1*X941600D2*X946052D1*X946314D2*X950766D1*X951028D2*X955480D1*X955742D2*X960194D1*X960456D2*X964908D1*X972372D2*Y-256012D1*X974031Y-258325D2*Y-256012D1*X973201Y-255139*X972372Y-256012*X971543Y-255139*X970714Y-256012*Y-255139D2*Y-258325D1*X977086D2*Y-256012D1*X978745Y-258325D2*Y-256012D1*X977916Y-255139*X977086Y-256012*X976257Y-255139*X975428Y-256012*Y-255139D2*Y-258325D1*X980884D2*X981713D1*Y-257496*X980884*Y-258325*X992581D2*Y-252782D1*X991054Y-255837*X989526Y-252782*Y-258325*X994764D2*X996422D1*X997252Y-257496*Y-256012*X996422Y-255139*X994764*X993891Y-256012*Y-257496*X994764Y-258325*X1002009D2*Y-256012D1*X1001136Y-255139*X999478*X998648Y-256012*Y-255139D2*Y-258325D1*X1006069D2*X1005239Y-257496D1*Y-253786*X1006767Y-255139D2*X1003711D1*X1009167Y-255313D2*X1010521D1*X1011350Y-256012*X1008993Y-258325D2*X1011350D1*Y-256012*X1008993*X1008338Y-256666*Y-257496*X1008993Y-258325*X1016108D2*X1013751D1*X1014056Y-259678D2*X1015453D1*X1016108Y-258980*Y-255139*X1013751*X1013096Y-256012*Y-257496*X1013751Y-258325*X1020778D2*X1018421D1*X1017723Y-256666D2*X1020778D1*Y-256012*X1020080Y-255139*X1018421*X1017723Y-256012*Y-257496*X1018421Y-258325*X1024226D2*Y-256012D1*X1025885Y-258325D2*Y-256012D1*X1025055Y-255139*X1024226Y-256012*X1023397Y-255139*X1022567Y-256012*Y-255139D2*Y-258325D1*X1028940Y-254484D2*Y-255313D1*Y-256666D2*Y-257496D1*X1031166Y-258325D2*X1035618D1*X1035880D2*X1040332D1*X1040594D2*X1045046D1*X1045308D2*X1049760D1*X1050022D2*X1054474D1*X1054736D2*X1059188D1*X1059450D2*X1063902D1*X1064164D2*X1068616D1*X1068878D2*X1073330D1*X1079092Y-255139D2*X1081449D1*X1082278Y-254309*Y-253655*X1081449Y-252782*X1079092*Y-258325*X1086948D2*X1084461D1*X1083631Y-257496*Y-253655*X1084461Y-252782*X1086948*X1090047Y-258325D2*X1088389D1*X1089218D2*Y-252782D1*X1090047D2*X1088389D1*X1093277Y-258325D2*X1095503D1*X1096333Y-257496*Y-255837*X1095503Y-255008*X1094107*X1093277Y-254178*Y-253655*X1094107Y-252782*X1096333*X827766Y-269150D2*X824449D1*Y-270808D2*X827766D1*X832480Y-269150D2*X829163D1*Y-270808D2*X832480D1*X837194Y-269150D2*X833877D1*Y-270808D2*X837194D1*X841908Y-269150D2*X838591D1*Y-270808D2*X841908D1*X846622Y-269150D2*X843305D1*Y-270808D2*X846622D1*X851336Y-269150D2*X848019D1*Y-270808D2*X851336D1*X856050Y-269150D2*X852733D1*Y-270808D2*X856050D1*X860764Y-269150D2*X857447D1*Y-270808D2*X860764D1*X865478Y-269150D2*X862161D1*Y-270808D2*X865478D1*X870192Y-269150D2*X866875D1*Y-270808D2*X870192D1*X874906Y-269150D2*X871589D1*Y-270808D2*X874906D1*X879620Y-269150D2*X876303D1*Y-270808D2*X879620D1*X884334Y-269150D2*X881017D1*Y-270808D2*X884334D1*X889048Y-269150D2*X885731D1*Y-270808D2*X889048D1*X893762Y-269150D2*X890445D1*Y-270808D2*X893762D1*X898476Y-269150D2*X895159D1*Y-270808D2*X898476D1*X903190Y-269150D2*X899873D1*Y-270808D2*X903190D1*X907904Y-269150D2*X904587D1*Y-270808D2*X907904D1*X912618Y-269150D2*X909301D1*Y-270808D2*X912618D1*X917332Y-269150D2*X914015D1*Y-270808D2*X917332D1*X922046Y-269150D2*X918729D1*Y-270808D2*X922046D1*X926760Y-269150D2*X923443D1*Y-270808D2*X926760D1*X931474Y-269150D2*X928157D1*Y-270808D2*X931474D1*X936188Y-269150D2*X932871D1*Y-270808D2*X936188D1*X940902Y-269150D2*X937585D1*Y-270808D2*X940902D1*X945616Y-269150D2*X942299D1*Y-270808D2*X945616D1*X950330Y-269150D2*X947013D1*Y-270808D2*X950330D1*X955044Y-269150D2*X951727D1*Y-270808D2*X955044D1*X959758Y-269150D2*X956441D1*Y-270808D2*X959758D1*X964472Y-269150D2*X961155D1*Y-270808D2*X964472D1*X969186Y-269150D2*X965869D1*Y-270808D2*X969186D1*X973900Y-269150D2*X970583D1*Y-270808D2*X973900D1*X978614Y-269150D2*X975297D1*Y-270808D2*X978614D1*X983328Y-269150D2*X980011D1*Y-270808D2*X983328D1*X988042Y-269150D2*X984725D1*Y-270808D2*X988042D1*X992756Y-269150D2*X989439D1*Y-270808D2*X992756D1*X997470Y-269150D2*X994153D1*Y-270808D2*X997470D1*X1002184Y-269150D2*X998867D1*Y-270808D2*X1002184D1*X1006898Y-269150D2*X1003581D1*Y-270808D2*X1006898D1*X1011612Y-269150D2*X1008295D1*Y-270808D2*X1011612D1*X1016326Y-269150D2*X1013009D1*Y-270808D2*X1016326D1*X1021040Y-269150D2*X1017723D1*Y-270808D2*X1021040D1*X1025754Y-269150D2*X1022437D1*Y-270808D2*X1025754D1*X1030468Y-269150D2*X1027151D1*Y-270808D2*X1030468D1*X1035182Y-269150D2*X1031865D1*Y-270808D2*X1035182D1*X1039896Y-269150D2*X1036579D1*Y-270808D2*X1039896D1*X1044610Y-269150D2*X1041293D1*Y-270808D2*X1044610D1*X1049324Y-269150D2*X1046006D1*Y-270808D2*X1049324D1*X1054038Y-269150D2*X1050720D1*Y-270808D2*X1054038D1*X1058752Y-269150D2*X1055434D1*Y-270808D2*X1058752D1*X1063466Y-269150D2*X1060148D1*Y-270808D2*X1063466D1*X1068180Y-269150D2*X1064862D1*Y-270808D2*X1068180D1*X1072894Y-269150D2*X1069576D1*Y-270808D2*X1072894D1*X1077608Y-269150D2*X1074290D1*Y-270808D2*X1077608D1*X1082322Y-269150D2*X1079004D1*Y-270808D2*X1082322D1*X1087036Y-269150D2*X1083718D1*Y-270808D2*X1087036D1*X1091750Y-269150D2*X1088432D1*Y-270808D2*X1091750D1*X1096464Y-269150D2*X1093146D1*Y-270808D2*X1096464D1*X1101178Y-269150D2*X1097860D1*Y-270808D2*X1101178D1*X1105892Y-269150D2*X1102574D1*Y-270808D2*X1105892D1*X928113Y-317935D2*X931430Y-312392D1*X928942D2*X928113Y-313265D1*Y-317106*X928942Y-317935*X930601*X931430Y-317106*Y-313265*X930601Y-312392*X928942*X934529Y-317193D2*Y-316582D1*X935184*X933656Y-317935*X937585Y-314749D2*X940073D1*X940902Y-315622*Y-317106*X940073Y-317935*X938414*X937585Y-316844*Y-313265*X938414Y-312392*X940073*X940902Y-313265*X944088Y-317935D2*Y-315622D1*X945747Y-317935D2*Y-315622D1*X944918Y-314749*X944088Y-315622*X943259Y-314749*X942430Y-315622*Y-314749D2*Y-317935D1*X948802D2*Y-315622D1*X950461Y-317935D2*Y-315622D1*X949631Y-314749*X948802Y-315622*X947973Y-314749*X947144Y-315622*Y-314749D2*Y-317935D1*X965825D2*X969142Y-312392D1*X966654D2*X965825Y-313265D1*Y-317106*X966654Y-317935*X968313*X969142Y-317106*Y-313265*X968313Y-312392*X966654*X972241Y-317193D2*Y-316582D1*X972896*X971368Y-317935*X977566D2*X978396Y-317106D1*Y-315753*X977566Y-314924*X976170D2*X975340Y-314094D1*Y-313265*X976170Y-312392*X977566*X978396Y-313265*Y-314094*X977566Y-314924*X976170*X975340Y-315753*Y-317106*X976170Y-317935*X977566*X981800D2*Y-315622D1*X983459Y-317935D2*Y-315622D1*X982629Y-314749*X981800Y-315622*X980971Y-314749*X980142Y-315622*Y-314749D2*Y-317935D1*X986514D2*Y-315622D1*X988173Y-317935D2*Y-315622D1*X987344Y-314749*X986514Y-315622*X985685Y-314749*X984856Y-315622*Y-314749D2*Y-317935D1*X929728Y-332077D2*Y-326534D1*X934529Y-331335D2*Y-330724D1*X935184*X933656Y-332077*X937585Y-328891D2*X940073D1*X940902Y-329764*Y-331248*X940073Y-332077*X938414*X937585Y-330986*Y-327407*X938414Y-326534*X940073*X940902Y-327407*X944088Y-332077D2*Y-329764D1*X945747Y-332077D2*Y-329764D1*X944918Y-328891*X944088Y-329764*X943259Y-328891*X942430Y-329764*Y-328891D2*Y-332077D1*X948802D2*Y-329764D1*X950461Y-332077D2*Y-329764D1*X949631Y-328891*X948802Y-329764*X947973Y-328891*X947144Y-329764*Y-328891D2*Y-332077D1*X969055D2*X965869D1*X969055Y-329066*Y-327407*X968226Y-326534*X966698*X965869Y-327407*X972372Y-332077D2*Y-329764D1*X974031Y-332077D2*Y-329764D1*X973201Y-328891*X972372Y-329764*X971543Y-328891*X970714Y-329764*Y-328891D2*Y-332077D1*X977086D2*Y-329764D1*X978745Y-332077D2*Y-329764D1*X977916Y-328891*X977086Y-329764*X976257Y-328891*X975428Y-329764*Y-328891D2*Y-332077D1*X1007596D2*X1012048D1*X1012310D2*X1016762D1*X1017024D2*X1021476D1*X1021738D2*X1026190D1*X1026452D2*X1030904D1*X1031166D2*X1035618D1*X1035880D2*X1040332D1*X1040594D2*X1045046D1*X1045308D2*X1049760D1*X1050022D2*X1054474D1*X1054736D2*X1059188D1*X1059450D2*X1063902D1*X827766Y-347287D2*X824449D1*Y-348946D2*X827766D1*X832480Y-347287D2*X829163D1*Y-348946D2*X832480D1*X837194Y-347287D2*X833877D1*Y-348946D2*X837194D1*X841908Y-347287D2*X838591D1*Y-348946D2*X841908D1*X846622Y-347287D2*X843305D1*Y-348946D2*X846622D1*X851336Y-347287D2*X848019D1*Y-348946D2*X851336D1*X856050Y-347287D2*X852733D1*Y-348946D2*X856050D1*X860764Y-347287D2*X857447D1*Y-348946D2*X860764D1*X865478Y-347287D2*X862161D1*Y-348946D2*X865478D1*X870192Y-347287D2*X866875D1*Y-348946D2*X870192D1*X874906Y-347287D2*X871589D1*Y-348946D2*X874906D1*X879620Y-347287D2*X876303D1*Y-348946D2*X879620D1*X884334Y-347287D2*X881017D1*Y-348946D2*X884334D1*X889048Y-347287D2*X885731D1*Y-348946D2*X889048D1*X893762Y-347287D2*X890445D1*Y-348946D2*X893762D1*X898476Y-347287D2*X895159D1*Y-348946D2*X898476D1*X903190Y-347287D2*X899873D1*Y-348946D2*X903190D1*X907904Y-347287D2*X904587D1*Y-348946D2*X907904D1*X909301D2*X912618D1*X917332Y-347287D2*X914015D1*Y-348946D2*X917332D1*X922046Y-347287D2*X918729D1*Y-348946D2*X922046D1*X926760Y-347287D2*X923443D1*Y-348946D2*X926760D1*X931474Y-347287D2*X928157D1*Y-348946D2*X931474D1*X936188Y-347287D2*X932871D1*Y-348946D2*X936188D1*X940902Y-347287D2*X937585D1*Y-348946D2*X940902D1*X945616Y-347287D2*X942299D1*Y-348946D2*X945616D1*X950330Y-347287D2*X947013D1*Y-348946D2*X950330D1*X955044Y-347287D2*X951727D1*Y-348946D2*X955044D1*X959758Y-347287D2*X956441D1*Y-348946D2*X959758D1*X964472Y-347287D2*X961155D1*Y-348946D2*X964472D1*X969186Y-347287D2*X965869D1*Y-348946D2*X969186D1*X973900Y-347287D2*X970583D1*Y-348946D2*X973900D1*X978614Y-347287D2*X975297D1*Y-348946D2*X978614D1*X983328Y-347287D2*X980011D1*Y-348946D2*X983328D1*X988042Y-347287D2*X984725D1*Y-348946D2*X988042D1*X992756Y-347287D2*X989439D1*Y-348946D2*X992756D1*X997470Y-347287D2*X994153D1*Y-348946D2*X997470D1*X1002184Y-347287D2*X998867D1*Y-348946D2*X1002184D1*X1006898Y-347287D2*X1003581D1*Y-348946D2*X1006898D1*X1011612Y-347287D2*X1008295D1*Y-348946D2*X1011612D1*X1016326Y-347287D2*X1013009D1*Y-348946D2*X1016326D1*X1021040Y-347287D2*X1017723D1*Y-348946D2*X1021040D1*X1025754Y-347287D2*X1022437D1*Y-348946D2*X1025754D1*X1030468Y-347287D2*X1027151D1*Y-348946D2*X1030468D1*X1035182Y-347287D2*X1031865D1*Y-348946D2*X1035182D1*X1039896Y-347287D2*X1036579D1*Y-348946D2*X1039896D1*X1044610Y-347287D2*X1041293D1*Y-348946D2*X1044610D1*X1049324Y-347287D2*X1046006D1*Y-348946D2*X1049324D1*X1054038Y-347287D2*X1050720D1*Y-348946D2*X1054038D1*X1058752Y-347287D2*X1055434D1*Y-348946D2*X1058752D1*X1063466Y-347287D2*X1060148D1*Y-348946D2*X1063466D1*X1068180Y-347287D2*X1064862D1*Y-348946D2*X1068180D1*X1072894Y-347287D2*X1069576D1*Y-348946D2*X1072894D1*X1077608Y-347287D2*X1074290D1*Y-348946D2*X1077608D1*X1082322Y-347287D2*X1079004D1*Y-348946D2*X1082322D1*X1087036Y-347287D2*X1083718D1*Y-348946D2*X1087036D1*X1091750Y-347287D2*X1088432D1*Y-348946D2*X1091750D1*X1096464Y-347287D2*X1093146D1*Y-348946D2*X1096464D1*X1101178Y-347287D2*X1097860D1*Y-348946D2*X1101178D1*X1105892Y-347287D2*X1102574D1*Y-348946D2*X1105892D1*X914015Y-200098D2*X917332D1*X913316Y-215899D2*X917768D1*X930557Y-332077D2*X928899D1*X929728Y-326534D2*X928899Y-327407D1*X1014674Y-314749D2*Y-317935D1*Y-315622D2*X1015503Y-314749D1*X1016333Y-315622*X1017162Y-314749*X1017991Y-315622*Y-317935*X1016333D2*Y-315622D1*X1009960Y-314749D2*Y-317935D1*Y-315622D2*X1010789Y-314749D1*X1011619Y-315622*X1012448Y-314749*X1013277Y-315622*Y-317935*X1011619D2*Y-315622D1*X1005857Y-313265D2*X1006686Y-312392D1*Y-317935*X1007516D2*X1005857D1*X1049550Y-238640D2*X1047324D1*X1046494Y-239513*Y-240036*X1047324Y-240866*X1048720*X1049550Y-241695*Y-243354*X1048720Y-244183*X1046494*X1043264Y-238640D2*X1041606D1*X1042435Y-244183D2*Y-238640D1*X1043264Y-244183D2*X1041606D1*X1040165Y-238640D2*X1037677D1*X1036848Y-239513*Y-243354*X1037677Y-244183*X1040165*X1032309D2*Y-238640D1*X1034666*X1035495Y-239513*Y-240167*X1034666Y-240997*X1032309*X1022095Y-244183D2*X1026547D1*X1017381D2*X1021833D1*X1012667D2*X1017119D1*X1007953D2*X1012405D1*X1003239D2*X1007691D1*X998525D2*X1002977D1*X993811D2*X998263D1*X989097D2*X993549D1*X984383D2*X988835D1*X982157Y-242524D2*Y-243354D1*Y-240342D2*Y-241171D1*X978796Y-244183D2*X975741D1*Y-238640*X978796*X975741Y-240997D2*X978796D1*X973297Y-244183D2*X970940D1*Y-238640*X973297*X974126Y-239513*Y-243354*X973297Y-244183*X961511Y-239513D2*X962341Y-238640D1*X963999*X964829Y-239513*Y-243354*X963999Y-244183*X962341*X961511Y-243354*Y-239513*X956885Y-238640D2*X960202D1*X958543Y-244183D2*Y-238640D1*X952127Y-244183D2*Y-238640D1*X955314Y-244183*Y-238640*X947413D2*Y-243354D1*X948243Y-244183*X949901*X950730Y-243354*Y-238640*X945886D2*Y-243354D1*X945056Y-244183*X943398*X942568Y-243354*X937985Y-244183D2*Y-238640D1*X941172Y-244183*Y-238640*X933228Y-239513D2*X934057Y-238640D1*X935716*X936545Y-239513*Y-243354*X935716Y-244183*X934057*X933228Y-243354*Y-239513*X931744Y-238640D2*X929256D1*X928426Y-239513*Y-243354*X929256Y-244183*X931744*X1086861Y-308551D2*X1083806D1*X1082147D2*X1079092D1*X1077433D2*X1074378D1*X1072719D2*X1069664D1*X1068005D2*X1064950D1*X1063291D2*X1060236D1*X1058577D2*X1055522D1*X1053863D2*X1050808D1*X1049149D2*X1046094D1*X1044435D2*X1041380D1*X1039721D2*X1036666D1*X1035007D2*X1031952D1*X1030293D2*X1027238D1*X1025579D2*X1022524D1*X1020865D2*X1017810D1*X1016151D2*X1013096D1*X1011437D2*X1008382D1*X1006723D2*X1003668D1*X1002009D2*X998954D1*X997295D2*X994240D1*X992581D2*X989526D1*X987867D2*X984812D1*X983153D2*X980098D1*X978439D2*X975384D1*X973725D2*X970670D1*X969011D2*X965956D1*X964297D2*X961242D1*X959583D2*X956528D1*X954869D2*X951814D1*X950155D2*X947100D1*X945441D2*X942386D1*X940727D2*X937672D1*X936013D2*X932958D1*X931299D2*X928244D1*X926585D2*X923530D1*X921871D2*X918816D1*X917157D2*X914102D1*X912443D2*X909388D1*X907729D2*X904674D1*X903015D2*X899960D1*X898301D2*X895246D1*X893587D2*X890532D1*X888873D2*X885818D1*X884159D2*X881104D1*X879445D2*X876390D1*X874731D2*X871676D1*X870017D2*X866962D1*X865303D2*X862248D1*X860589D2*X857534D1*X855875D2*X852820D1*X851161D2*X848106D1*X846447D2*X843392D1*X841733D2*X838678D1*X837019D2*X833964D1*X832305D2*X829250D1*X827591D2*X824536D1*X879079Y-174581D2*X888204D1*Y-166361*X879079Y-174581D2*Y-166361D1*X888204*X988773Y-174581D2*X997898D1*Y-166361*X988773Y-174581D2*Y-166361D1*X997898*X936698D2*X927573D1*Y-174581*X936698Y-166361D2*Y-174581D1*X927573*X888204Y-180549D2*X879079D1*Y-188770*X888204Y-180549D2*Y-188770D1*X879079*X841107Y-251489D2*X831982D1*Y-259710*X841107Y-251489D2*Y-259710D1*X831982*X954840Y-319582D2*X963965D1*Y-311362*X954840Y-319582D2*Y-311362D1*X963965*X926288Y-325197D2*X917163D1*X964260D2*X955134D1*X994578Y-332828D2*X1003703D1*Y-324608*X994578Y-332828D2*Y-324608D1*X1003703*X955134Y-325197D2*Y-333417D1*X964260Y-325197D2*Y-333417D1*X955134*X917163Y-325197D2*Y-333417D1*X926288Y-325197D2*Y-333417D1*X917163*X926582Y-311362D2*X917457D1*Y-319582*X926582Y-311362D2*Y-319582D1*X917457*X1003409Y-311362D2*X994284D1*Y-319582*X1003409Y-311362D2*Y-319582D1*X994284*X916167Y-244697D2*X925292D1*Y-236477*X916167Y-244697D2*Y-236477D1*X925292*X841401D2*X832276D1*Y-244697*X841401Y-236477D2*Y-244697D1*X832276*X1015871Y-389433D2*X1019057D1*Y-391921D2*Y-387251D1*X1018228Y-386378*X1016700*X1015871Y-387251*Y-391921*X1020672Y-388735D2*X1023029D1*X1023859Y-387906*Y-387251*X1023029Y-386378*X1020672*Y-391921*X1028442D2*X1025430D1*Y-386378*X1031628Y-391921D2*X1029969D1*X1030799D2*Y-386378D1*X1031628D2*X1029969D1*X1037957Y-391921D2*X1035469D1*X1034640Y-391092*Y-387251*X1035469Y-386378*X1037957*X1039441Y-389433D2*X1042627D1*Y-391921D2*Y-387251D1*X1041798Y-386378*X1040270*X1039441Y-387251*Y-391921*X1047385D2*X1044897D1*X1044068Y-391092*Y-387251*X1044897Y-386378*X1047385*X1048869Y-389433D2*X1052055D1*Y-391921D2*Y-387251D1*X1051226Y-386378*X1049698*X1048869Y-387251*Y-391921*X1053583Y-387251D2*Y-391092D1*X1054412Y-391921*X1056071*X1056900Y-391092*Y-387251*X1056071Y-386378*X1054412*X1053583Y-387251*X890941Y-76093D2*X895524D1*Y-72558D2*X890941D1*Y-80873*X895524*X898077D2*X901417D1*X902660Y-79629*Y-77141*X901417Y-75897*X899321*X898077Y-74653*Y-73867*X899321Y-72558*X902660*X905083Y-76093D2*X908618D1*X909862Y-74849*Y-73867*X908618Y-72558*X905083*Y-80873*X912154Y-76093D2*X916737D1*Y-72558D2*X912154D1*Y-80873*X916737*X923939D2*X920207D1*X918963Y-79629*Y-73867*X920207Y-72558*X923939*X928587Y-80873D2*X926100D1*X927343D2*Y-72558D1*X928587D2*X926100D1*X936641Y-76093D2*X933367D1*Y-80873D2*Y-72558D1*X937884*X942729Y-80873D2*X940241D1*X941485D2*Y-72558D1*X942729D2*X940241D1*X952223Y-80873D2*X948491D1*X947247Y-79629*Y-73867*X948491Y-72558*X952223*X954449Y-77141D2*X959228D1*Y-80873D2*Y-73867D1*X957984Y-72558*X955693*X954449Y-73867*Y-80873*X966365D2*X962633D1*X961389Y-79629*Y-73867*X962633Y-72558*X966365*X968591Y-77141D2*X973370D1*Y-80873D2*Y-73867D1*X972126Y-72558*X969835*X968591Y-73867*Y-80873*X975662Y-73867D2*Y-79629D1*X976906Y-80873*X979394*X980638Y-79629*Y-73867*X979394Y-72558*X976906*X975662Y-73867*X992423Y-80873D2*Y-72558D1*X989935D2*X994911D1*X997006Y-76093D2*X1001589D1*Y-72558D2*X997006D1*Y-80873*X1001589*X1008791D2*X1005059D1*X1003815Y-79629*Y-73867*X1005059Y-72558*X1008791*X1015862D2*Y-80873D1*X1011082Y-72558*Y-80873*X1020510D2*X1018022D1*X1019266D2*Y-72558D1*X1020510D2*X1018022D1*X1030004Y-80873D2*X1026272D1*X1025028Y-79629*Y-73867*X1026272Y-72558*X1030004*X1032230Y-77141D2*X1037009D1*Y-80873D2*Y-73867D1*X1035765Y-72558*X1033474*X1032230Y-73867*Y-80873*D104*X825676Y-545345D2*X1104738D1*X825676Y-491463D2*X1104738D1*X972897Y-382634D2*Y-440148D1*X825676Y-382312D2*X1104738D1*X825676Y-440475D2*X1104738D1*X825676Y-574404D2*X1104738D1*X825676Y-199161D2*X1104738D1*X825676Y-269871D2*X1104738D1*X825676Y-348009D2*X1104738D1*X825676Y-156735D2*X1104738D1*D105*X896326Y-626314D2*X896588Y-625790D1*X897112Y-625266*X897636*X897897Y-625528*X898159Y-626052*Y-626785*X897636Y-628880*X897897Y-626052D2*X897636Y-627099D1*X897112Y-628880*X897636*X898159Y-626785D2*X898683Y-626052D1*X899207Y-625528*X899731Y-625266*X900254*X900778Y-625528*X901040Y-626052*Y-626785*X900516Y-628880*X900778Y-625528D2*Y-626785D1*X900254Y-628880*X900778Y-626052D2*X900516Y-627099D1*X899993Y-628880*X900516*X901040Y-626785D2*X901564Y-626052D1*X902088Y-625528*X902611Y-625266*X903188*X903659Y-625528*X903921Y-626052*Y-626785*X903397Y-628147*X903659Y-625528D2*Y-626576D1*X903397Y-627571*Y-628671*X903659Y-626052D2*X903188Y-627361D1*Y-628147*X903397Y-628671*X903659Y-628880*X904183*X904707Y-628409*X904968Y-627885*X909421Y-625266D2*X908844Y-627099D1*Y-628147*X909159Y-628671*X909421Y-628880*X909944*X910468Y-628409*X910730Y-627885*X909630Y-625266D2*X909159Y-627099D1*Y-628671*X909421Y-625266D2*X909944D1*X909421Y-627099*X909159Y-628147*X908844Y-627099D2*Y-626314D1*X908635Y-625528*X908059Y-625266*X907535*X906749Y-625528*X906278Y-626314*X905964Y-627099*Y-627571*X906278Y-628409*X906540Y-628671*X907064Y-628880*X907535*X908059Y-628671*X908373Y-628409*X908635Y-627885*X908844Y-627099*X907064Y-625528D2*X906540Y-626314D1*X906278Y-627099*Y-627885*X906540Y-628409*X907535Y-625266D2*X907064Y-625790D1*X906749Y-626314*X906540Y-627099*Y-627885*X906749Y-628671*X907064Y-628880*X911149Y-626314D2*X911463Y-625790D1*X911935Y-625266*X912458*X912720Y-625528*X913035Y-626052*Y-627099*X912458Y-628880*X912720Y-625528D2*Y-627099D1*X912249Y-628880*X912720Y-626052D2*X912458Y-627099D1*X911935Y-628880*X912458*X915130Y-625790D2*Y-625528D1*X914815*Y-626052*X915339*Y-625528*X915130Y-625266*X914554*X914030Y-625528*X913506Y-626052*X913035Y-627099*X919215Y-626314D2*Y-626052D1*X919006*Y-626576*X919529*Y-626052*X919215Y-625528*X918744Y-625266*X917958*X917172Y-625528*X916649Y-626314*X916334Y-627099*Y-627571*X916649Y-628409*X916911Y-628671*X917434Y-628880*X917958*X918744Y-628671*X919215Y-627885*X917172Y-625790D2*X916911Y-626314D1*X916649Y-627099*Y-627885*X916911Y-628409*X917958Y-625266D2*X917434Y-625790D1*X917172Y-626314*X916911Y-627099*Y-627885*X917172Y-628671*X917434Y-628880*X921363Y-627571D2*X922410Y-627361D1*X923144Y-627099*X923929Y-626576*X924243Y-626052*X923929Y-625528*X923458Y-625266*X922620*X921834Y-625528*X921363Y-626314*X921048Y-627099*Y-627571*X921363Y-628409*X921625Y-628671*X922148Y-628880*X922620*X923458Y-628671*X923929Y-628147*X921834Y-625790D2*X921625Y-626314D1*X921363Y-627099*Y-627885*X921625Y-628409*X922620Y-625266D2*X922148Y-625790D1*X921834Y-626314*X921625Y-627099*Y-627885*X921834Y-628671*X922148Y-628880*X927124Y-623433D2*X926339Y-626314D1*X926077Y-627361*Y-628147*X926339Y-628671*X926548Y-628880*X927124*X927648Y-628409*X927858Y-627885*X927334Y-623433D2*X926548Y-626314D1*X926339Y-627361*Y-628671*Y-623433D2*X927648D1*X926548Y-627099*X926339Y-628147*X926548Y-623433D2*X927334Y-623695D1*X926862Y-623433D2*X927124Y-623957D1*X930529Y-625266D2*X929743Y-625528D1*X929219Y-626314*X928905Y-627099*Y-627571*X929219Y-628409*X929481Y-628671*X930267Y-628880*X931000*X931838Y-628671*X932362Y-627885*X932624Y-627099*Y-626576*X932362Y-625790*X932100Y-625528*X931314Y-625266*X930529*X929743Y-625790D2*X929481Y-626314D1*X929219Y-627099*Y-627885*X929481Y-628409*X931838D2*X932100Y-627885D1*X932362Y-627099*Y-626314*X932100Y-625790*X930529Y-625266D2*X930005Y-625790D1*X929743Y-626314*X929481Y-627099*Y-627885*X929743Y-628671*X930267Y-628880*X931000D2*X931576Y-628409D1*X931838Y-627885*X932100Y-627099*Y-626314*X931838Y-625528*X931314Y-625266*X934143Y-628147D2*X933881Y-628409D1*Y-628671*X934143Y-628880*X934405*X934667Y-628671*Y-628409*X934405Y-628147*X934143*Y-628409D2*Y-628671D1*X934405*Y-628409*X934143*X939852Y-626314D2*Y-626052D1*X939642*Y-626576*X940166*Y-626052*X939852Y-625528*X939381Y-625266*X938595*X937809Y-625528*X937285Y-626314*X936971Y-627099*Y-627571*X937285Y-628409*X937547Y-628671*X938071Y-628880*X938595*X939381Y-628671*X939852Y-627885*X937809Y-625790D2*X937547Y-626314D1*X937285Y-627099*Y-627885*X937547Y-628409*X938595Y-625266D2*X938071Y-625790D1*X937809Y-626314*X937547Y-627099*Y-627885*X937809Y-628671*X938071Y-628880*X943047Y-623433D2*Y-623957D1*X943571*Y-623433*X943047*X943257D2*Y-623957D1*X943047Y-623695D2*X943571D1*X941161Y-626314D2*X941476Y-625790D1*X941999Y-625266*X942471*X942785Y-625528*Y-626576*X942471Y-627571*Y-628671*X942785Y-626052D2*X942261Y-627361D1*Y-628147*X942471Y-628671*X942785Y-628880*X943257*X943780Y-628409*X944095Y-627885*X944566Y-626314D2*X944880Y-625790D1*X945352Y-625266*X945875*X946137Y-625528*X946452Y-626052*Y-627099*X945875Y-628880*X946137Y-625528D2*Y-627099D1*X945666Y-628880*X946137Y-626052D2*X945875Y-627099D1*X945352Y-628880*X945875*X948547Y-625790D2*Y-625528D1*X948232*Y-626052*X948756*Y-625528*X948547Y-625266*X947971*X947447Y-625528*X946923Y-626052*X946452Y-627099*X952632Y-626314D2*Y-626052D1*X952423*Y-626576*X952946*Y-626052*X952632Y-625528*X952161Y-625266*X951375*X950589Y-625528*X950066Y-626314*X949751Y-627099*Y-627571*X950066Y-628409*X950328Y-628671*X950851Y-628880*X951375*X952161Y-628671*X952632Y-627885*X950589Y-625790D2*X950328Y-626314D1*X950066Y-627099*Y-627885*X950328Y-628409*X951375Y-625266D2*X950851Y-625790D1*X950589Y-626314*X950328Y-627099*Y-627885*X950589Y-628671*X950851Y-628880*X953942Y-626314D2*X954256Y-625790D1*X954727Y-625266*X955251*X955565Y-625528*X955827Y-626052*Y-626785*X955251Y-628147*X955565Y-625528D2*Y-626576D1*X955251Y-627571*Y-628671*X955565Y-626052D2*X955042Y-627361D1*Y-628147*X955251Y-628671*X955827Y-628880*X956351*X956822Y-628671*X957346Y-628147*X957922Y-627361*X958446Y-625266*X957922Y-627361D2*Y-628147D1*X958132Y-628671*X958446Y-628880*X958917*X959441Y-628409*X959703Y-627885*X958656Y-625266D2*X958132Y-627361D1*Y-628671*X958446Y-625266D2*X958917D1*X958446Y-627099*X958132Y-628147*X962113Y-623433D2*Y-623957D1*X962636*Y-623433*X962113*X962322D2*Y-623957D1*X962113Y-623695D2*X962636D1*X960227Y-626314D2*X960541Y-625790D1*X961065Y-625266*X961536*X961851Y-625528*X962113Y-626052*Y-626785*X961536Y-628147*X961851Y-625528D2*Y-626576D1*X961536Y-627571*Y-628671*X961851Y-626052D2*X961327Y-627361D1*Y-628147*X961536Y-628671*X961851Y-628880*X962322*X962846Y-628409*X963160Y-627885*X965727Y-623433D2*X964941Y-626314D1*X964731Y-627361*Y-628147*X964941Y-628671*X965203Y-628880*X965727*X966250Y-628409*X966512Y-627885*X965988Y-623433D2*X965203Y-626314D1*X964941Y-627361*Y-628671*X965727Y-623433D2*X966250D1*X965203Y-627099*X964941Y-628147*X964155Y-625266D2*X966826D1*X969393D2*X968607Y-625528D1*X968084Y-626314*X967769Y-627099*Y-627571*X968084Y-628409*X968345Y-628671*X969131Y-628880*X969864*X970702Y-628671*X971226Y-627885*X971488Y-627099*Y-626576*X971226Y-625790*X970964Y-625528*X970179Y-625266*X969393*X968607Y-625790D2*X968345Y-626314D1*X968084Y-627099*Y-627885*X968345Y-628409*X970702D2*X970964Y-627885D1*X971226Y-627099*Y-626314*X970964Y-625790*X969393Y-625266D2*X968869Y-625790D1*X968607Y-626314*X968345Y-627099*Y-627885*X968607Y-628671*X969131Y-628880*X969864D2*X970441Y-628409D1*X970702Y-627885*X970964Y-627099*Y-626314*X970702Y-625528*X970179Y-625266*X975940Y-626052D2*Y-625790D1*X975678*Y-626314*X976202*Y-625790*X975940Y-625528*X975155Y-625266*X974369*X973583Y-625528*X973321Y-625790*Y-626314*X973583Y-626785*X974107Y-627099*X974893Y-627361*X975416Y-627571*X975678Y-628147*X973583Y-625528D2*X973321Y-626314D1*X973583Y-626576D2*X974107Y-626785D1*X974893Y-627099*X975416Y-627361*X975678Y-627571D2*X975416Y-628671D1*X973321Y-625790D2*X973583Y-626314D1*X974107Y-626576*X974893Y-626785*X975416Y-627099*X975678Y-627571*Y-628147*X975416Y-628671*X974631Y-628880*X973845*X973059Y-628671*X972798Y-628409*Y-627885*X973321*Y-628409*X973059*Y-628147*X987725Y-625266D2*X987149Y-627099D1*Y-628147*X987463Y-628671*X987725Y-628880*X988249*X988773Y-628409*X989035Y-627885*X987935Y-625266D2*X987463Y-627099D1*Y-628671*X987725Y-625266D2*X988249D1*X987725Y-627099*X987463Y-628147*X987149Y-627099D2*Y-626314D1*X986940Y-625528*X986363Y-625266*X985840*X985054Y-625528*X984583Y-626314*X984268Y-627099*Y-627571*X984583Y-628409*X984844Y-628671*X985368Y-628880*X985840*X986363Y-628671*X986678Y-628409*X986940Y-627885*X987149Y-627099*X985368Y-625528D2*X984844Y-626314D1*X984583Y-627099*Y-627885*X984844Y-628409*X985840Y-625266D2*X985368Y-625790D1*X985054Y-626314*X984844Y-627099*Y-627885*X985054Y-628671*X985368Y-628880*X1000244Y-625266D2*X999196Y-628880D1*X998882Y-629613*X998410Y-630451*X997886Y-630713*X1000453Y-625266D2*X999458Y-628880D1*X998882Y-629928*X1000244Y-625266D2*X1000767D1*X999667Y-628880*X999196Y-629928*X998672Y-630451*X997886Y-630713*X997101*X996315Y-630190D2*Y-629613D1*X996787*Y-630190*X996577*Y-629928*X999667Y-627099D2*Y-626314D1*X999458Y-625528*X998882Y-625266*X998410*X997572Y-625528*X997101Y-626314*X996787Y-627099*Y-627571*X997101Y-628409*X997363Y-628671*X997886Y-628880*X998410*X998882Y-628671*X999196Y-628409*X999458Y-627885*X999667Y-627099*X997572Y-625790D2*X997363Y-626314D1*X997101Y-627099*Y-627885*X997363Y-628409*X998410Y-625266D2*X997886Y-625790D1*X997572Y-626314*X997363Y-627099*Y-627885*X997572Y-628671*X997886Y-628880*X1001762Y-626314D2*X1002024Y-625790D1*X1002548Y-625266*X1003072*X1003334Y-625528*X1003596Y-626052*Y-626785*X1003072Y-628880*X1003334Y-625528D2*Y-626785D1*X1002810Y-628880*X1003334Y-626052D2*X1003072Y-627099D1*X1002548Y-628880*X1003072*X1003596Y-626785D2*X1004119Y-626052D1*X1004643Y-625528*X1005167Y-625266*X1005691*X1006215Y-625528*X1006476Y-626052*Y-626785*X1005953Y-628880*X1006215Y-625528D2*Y-626785D1*X1005691Y-628880*X1006215Y-626052D2*X1005953Y-627099D1*X1005429Y-628880*X1005953*X1006476Y-626785D2*X1007000Y-626052D1*X1007524Y-625528*X1008048Y-625266*X1008624*X1009095Y-625528*X1009357Y-626052*Y-626785*X1008833Y-628147*X1009095Y-625528D2*Y-626576D1*X1008833Y-627571*Y-628671*X1009095Y-626052D2*X1008624Y-627361D1*Y-628147*X1008833Y-628671*X1009095Y-628880*X1009619*X1010143Y-628409*X1010405Y-627885*X1014857Y-625266D2*X1014281Y-627099D1*Y-628147*X1014595Y-628671*X1014857Y-628880*X1015381*X1015904Y-628409*X1016166Y-627885*X1015066Y-625266D2*X1014595Y-627099D1*Y-628671*X1014857Y-625266D2*X1015381D1*X1014857Y-627099*X1014595Y-628147*X1014281Y-627099D2*Y-626314D1*X1014071Y-625528*X1013495Y-625266*X1012971*X1012186Y-625528*X1011714Y-626314*X1011400Y-627099*Y-627571*X1011714Y-628409*X1011976Y-628671*X1012500Y-628880*X1012971*X1013495Y-628671*X1013809Y-628409*X1014071Y-627885*X1014281Y-627099*X1012500Y-625528D2*X1011976Y-626314D1*X1011714Y-627099*Y-627885*X1011976Y-628409*X1012971Y-625266D2*X1012500Y-625790D1*X1012186Y-626314*X1011976Y-627099*Y-627885*X1012186Y-628671*X1012500Y-628880*X1018471Y-623433D2*Y-623957D1*X1018995*Y-623433*X1018471*X1018680D2*Y-623957D1*X1018471Y-623695D2*X1018995D1*X1016585Y-626314D2*X1016900Y-625790D1*X1017423Y-625266*X1017895*X1018209Y-625528*X1018471Y-626052*Y-626785*X1017895Y-628147*X1018209Y-625528D2*Y-626576D1*X1017895Y-627571*Y-628671*X1018209Y-626052D2*X1017685Y-627361D1*Y-628147*X1017895Y-628671*X1018209Y-628880*X1018680*X1019204Y-628409*X1019519Y-627885*X1021875Y-623433D2*X1021090Y-626314D1*X1020828Y-627361*Y-628147*X1021090Y-628671*X1021299Y-628880*X1021875*X1022399Y-628409*X1022609Y-627885*X1022085Y-623433D2*X1021299Y-626314D1*X1021090Y-627361*Y-628671*Y-623433D2*X1022399D1*X1021299Y-627099*X1021090Y-628147*X1021299Y-623433D2*X1022085Y-623695D1*X1021614Y-623433D2*X1021875Y-623957D1*X1023656Y-628147D2*X1023394Y-628409D1*Y-628671*X1023656Y-628880*X1023918*X1024180Y-628671*Y-628409*X1023918Y-628147*X1023656*Y-628409D2*Y-628671D1*X1023918*Y-628409*X1023656*X1029366Y-626314D2*Y-626052D1*X1029156*Y-626576*X1029680*Y-626052*X1029366Y-625528*X1028894Y-625266*X1028108*X1027323Y-625528*X1026799Y-626314*X1026485Y-627099*Y-627571*X1026799Y-628409*X1027061Y-628671*X1027585Y-628880*X1028108*X1028894Y-628671*X1029366Y-627885*X1027323Y-625790D2*X1027061Y-626314D1*X1026799Y-627099*Y-627885*X1027061Y-628409*X1028108Y-625266D2*X1027585Y-625790D1*X1027323Y-626314*X1027061Y-627099*Y-627885*X1027323Y-628671*X1027585Y-628880*X1032822Y-625266D2*X1032037Y-625528D1*X1031513Y-626314*X1031199Y-627099*Y-627571*X1031513Y-628409*X1031775Y-628671*X1032561Y-628880*X1033294*X1034132Y-628671*X1034656Y-627885*X1034918Y-627099*Y-626576*X1034656Y-625790*X1034394Y-625528*X1033608Y-625266*X1032822*X1032037Y-625790D2*X1031775Y-626314D1*X1031513Y-627099*Y-627885*X1031775Y-628409*X1034132D2*X1034394Y-627885D1*X1034656Y-627099*Y-626314*X1034394Y-625790*X1032822Y-625266D2*X1032299Y-625790D1*X1032037Y-626314*X1031775Y-627099*Y-627885*X1032037Y-628671*X1032561Y-628880*X1033294D2*X1033870Y-628409D1*X1034132Y-627885*X1034394Y-627099*Y-626314*X1034132Y-625528*X1033608Y-625266*X1035913Y-626314D2*X1036175Y-625790D1*X1036698Y-625266*X1037222*X1037484Y-625528*X1037746Y-626052*Y-626785*X1037222Y-628880*X1037484Y-625528D2*Y-626785D1*X1036960Y-628880*X1037484Y-626052D2*X1037222Y-627099D1*X1036698Y-628880*X1037222*X1037746Y-626785D2*X1038270Y-626052D1*X1038793Y-625528*X1039317Y-625266*X1039841*X1040365Y-625528*X1040627Y-626052*Y-626785*X1040103Y-628880*X1040365Y-625528D2*Y-626785D1*X1039841Y-628880*X1040103D2*X1039579D1*X1040627Y-626785D2*X1041150Y-626052D1*X1041674Y-625528*X1042198Y-625266*X1042774*X1043246Y-625528*X1043507Y-626052*Y-626785*X1042984Y-628147*X1043246Y-625528D2*Y-626576D1*X1042984Y-627571*Y-628671*X1043246Y-626052D2*X1042774Y-627361D1*Y-628147*X1042984Y-628671*X1043246Y-628880*X1043769*X1044293Y-628409*X1044555Y-627885*D105*G75*G1X989596Y-626613D2*G2X989596Y-626613I-3964J0D1*G1X0Y0D2*M02*