G04 Output by CAMMaster V11.2.74  PentaLogix*
G04 Tue Aug 09 11:47:32 2016*
%FSLAX25Y25*%
%MOIN*%
%IPPOS*%
%ADD11C,0.005906*%
%ADD12C,0.011811*%
%ADD13C,0.015748*%
%ADD106C,0.007874*%

%LPD*%
X0Y0D2*D11*G1X288500Y-497500D2*X407000D1*Y-442500*X288500*Y-497500*X1027568Y-753965D2*Y-779556D1*X775599Y-753965D2*Y-765776D1*X983136Y-687739D2*Y-684646D1*X982855Y-684083*X982292Y-683802*X981448*X980886Y-684083*X980605Y-684646*Y-687739D2*Y-684646D1*X980324Y-684083*X979761Y-683802*X978918*X978355Y-684083*X978074Y-684365*Y-687739D2*Y-683802D1*X975262Y-687739D2*Y-684646D1*X974981Y-684083*X974418Y-683802*X973574*X973012Y-684083*X972731Y-684646*Y-687739D2*Y-684646D1*X972450Y-684083*X971887Y-683802*X971044*X970481Y-684083*X970200Y-684365*Y-687739D2*Y-683802D1*X967669Y-687739D2*X964013D1*X967388Y-684365*X967669Y-683521*Y-682959*X967388Y-682396*X967107Y-682115*X966544Y-681834*X965138*X964576Y-682115*X964294Y-682396*X961482Y-688583D2*X961763Y-688302D1*X962045Y-687739*Y-687458*X957264Y-681834D2*X956702Y-682115D1*X956420Y-682396*X956139Y-682959*X955858Y-684083*Y-685490*X956139Y-686614*X956420Y-687177*X956702Y-687458*X957264Y-687739*X957826*X958389Y-687458*X958670Y-687177*X958951Y-686614*X959233Y-685490*Y-684083*X958951Y-682959*X958670Y-682396*X958389Y-682115*X957826Y-681834*X957264*X948828Y-685208D2*X948265Y-685490D1*X946859*X946297Y-685771*X946015Y-686333*Y-686896*X946297Y-687458*X946859Y-687739*X948265*X948828Y-687458*X946297Y-684083D2*X946859Y-683802D1*X947984*X948546Y-684083*X948828Y-684646*Y-687739*X944328Y-683802D2*X943766D1*X943203Y-684083*X942922Y-684365*X942641Y-684927*Y-687739D2*Y-683802D1*X939829Y-685208D2*X939266Y-685490D1*X937860*X937298Y-685771*X937017Y-686333*Y-686896*X937298Y-687458*X937860Y-687739*X939266*X939829Y-687458*X937298Y-684083D2*X937860Y-683802D1*X938985*X939547Y-684083*X939829Y-684646*Y-687739*X931955Y-687458D2*X932517Y-687739D1*X933642*X934204Y-687458*X934486Y-687177*X934767Y-686614*Y-684927*X934486Y-684365*X934204Y-684083*X933642Y-683802*X932517*X931955Y-684083*Y-683802D2*Y-689708D1*X921550Y-687177D2*X921831Y-687458D1*X922393Y-687739*X923799*X924362Y-687458*X924643Y-687177*X924924Y-686614*Y-685208*X924643Y-684646*X924362Y-684365*X923799Y-684083*X922393*X921831Y-684365*X921550Y-684646*X921831Y-681834*X924643*X915925Y-683521D2*X916488Y-683240D1*X917050Y-682677*X917613Y-681834*Y-687739*X919300D2*X915925D1*X913113Y-688583D2*X913394Y-688302D1*X913676Y-687739*Y-687458*X908895Y-681834D2*X908333Y-682115D1*X908051Y-682396*X907770Y-682959*X907489Y-684083*Y-685490*X907770Y-686614*X908051Y-687177*X908333Y-687458*X908895Y-687739*X909457*X910020Y-687458*X910301Y-687177*X910582Y-686614*X910864Y-685490*Y-684083*X910582Y-682959*X910301Y-682396*X910020Y-682115*X909457Y-681834*X908895*X897928Y-685771D2*X900740Y-685208D1*Y-684646*X900459Y-684083*X899896Y-683802*X898771*X898209Y-684083*X897928Y-684646*Y-686896*X898209Y-687458*X898771Y-687739*X899896*X900459Y-687458*X895397Y-684083D2*X894834Y-683802D1*X893709*X893147Y-684083*X892866Y-684365*X892585Y-684927*Y-686614*X892866Y-687177*X893147Y-687458*X893709Y-687739*X894834*X895397Y-687458*Y-687739D2*Y-681834D1*X883867Y-687739D2*X884711D1*X885273Y-687458*X885554Y-687177*X885835Y-686614*Y-684927*X885554Y-684365*X885273Y-684083*X884711Y-683802*X883867*X883304Y-684083*X883023Y-684365*X882742Y-684927*Y-686614*X883023Y-687177*X883304Y-687458*X883867Y-687739*X880211Y-681834D2*X879930Y-682115D1*X879367Y-682396*X878243Y-681834*X877680Y-682115*X877399Y-682396*X880211Y-685208D2*X879649Y-685490D1*X878243*X877680Y-685771*X877399Y-686333*Y-686896*X877680Y-687458*X878243Y-687739*X879649*X880211Y-687458*X877680Y-684083D2*X878243Y-683802D1*X879367*X879930Y-684083*X880211Y-684646*Y-687739*X873181Y-689708D2*X874024D1*X874587Y-689427*X874868Y-688864*X874587Y-688302*X874024Y-688020*X875149Y-684083D2*X874587Y-683802D1*X873462*X872900Y-684083*X872618Y-684365*X872337Y-684927*Y-686614*X872618Y-687177*X872900Y-687458*X873462Y-687739*X874587*X875149Y-687458*X869806Y-685208D2*X869244Y-685490D1*X867838*X867275Y-685771*X866994Y-686333*Y-686896*X867275Y-687458*X867838Y-687739*X869244*X869806Y-687458*X867275Y-684083D2*X867838Y-683802D1*X868963*X869525Y-684083*X869806Y-684646*Y-687739*X864182Y-681834D2*Y-686896D1*X864463Y-687458*X865026Y-687739*X859682D2*X860526D1*X861089Y-687458*X861370Y-687177*X861651Y-686614*Y-684927*X861370Y-684365*X861089Y-684083*X860526Y-683802*X859682*X859120Y-684083*X858839Y-684365*X858558Y-684927*Y-686614*X858839Y-687177*X859120Y-687458*X859682Y-687739*X856027Y-684083D2*X855464Y-683802D1*X854621*X854058Y-684083*X853777Y-684646*Y-684927*X854058Y-685490*X854621Y-685771*X855464*X856027Y-686052*X856308Y-686614*Y-686896*X856027Y-687458*X855464Y-687739*X854339*X853777Y-687458*X851246Y-682396D2*Y-681834D1*X851527Y-682115*X851246Y-682396*X850965Y-682115*X851246Y-681834*Y-687739D2*Y-683802D1*X843934Y-684646D2*Y-684083D1*X843653Y-684365*X843934Y-684646*X844216Y-684365*X843934Y-684083*X843653Y-688583D2*X843934Y-688302D1*X844216Y-687739*Y-687458*X841122Y-684083D2*X840560Y-683802D1*X839716*X839154Y-684083*X838873Y-684646*Y-684927*X839154Y-685490*X839716Y-685771*X840560*X841122Y-686052*X841403Y-686614*Y-686896*X841122Y-687458*X840560Y-687739*X839435*X838873Y-687458*X836342Y-685208D2*X835779Y-685490D1*X834373*X833811Y-685771*X833529Y-686333*Y-686896*X833811Y-687458*X834373Y-687739*X835779*X836342Y-687458*X833811Y-684083D2*X834373Y-683802D1*X835498*X836060Y-684083*X836342Y-684646*Y-687739*X830999Y-682396D2*Y-681834D1*X831280Y-682115*X830999Y-682396*X830717Y-682115*X830999Y-681834*Y-687739D2*Y-683802D1*X828749D2*X827343Y-687739D1*X825937Y-683802*X816657Y-685771D2*X819469Y-685208D1*Y-684646*X819188Y-684083*X818625Y-683802*X817500*X816938Y-684083*X816657Y-684646*Y-686896*X816938Y-687458*X817500Y-687739*X818625*X819188Y-687458*X809626Y-684083D2*X809064Y-683802D1*X808220*X807658Y-684083*X807376Y-684646*Y-684927*X807658Y-685490*X808220Y-685771*X809064*X809626Y-686052*X809907Y-686614*Y-686896*X809626Y-687458*X809064Y-687739*X807939*X807376Y-687458*X804846Y-685208D2*X804283Y-685490D1*X802877*X802315Y-685771*X802033Y-686333*Y-686896*X802315Y-687458*X802877Y-687739*X804283*X804846Y-687458*X802315Y-684083D2*X802877Y-683802D1*X804002*X804564Y-684083*X804846Y-684646*Y-687739*X800346D2*X799784D1*X799221Y-687458*X798940Y-686896*Y-681834*X798096Y-683802D2*X800346D1*X796128Y-684083D2*X795565Y-683802D1*X794722*X794159Y-684083*X793878Y-684646*Y-684927*X794159Y-685490*X794722Y-685771*X795565*X796128Y-686052*X796409Y-686614*Y-686896*X796128Y-687458*X795565Y-687739*X794441*X793878Y-687458*X791347Y-682396D2*Y-681834D1*X791628Y-682115*X791347Y-682396*X791066Y-682115*X791347Y-681834*Y-687739D2*Y-683802D1*X785442Y-684927D2*X787691D1*X788254Y-684646*X788535Y-684365*X788816Y-683802*Y-682959*X788535Y-682396*X788254Y-682115*X787691Y-681834*X785442*Y-687739*X778130Y-684083D2*X777568Y-683802D1*X776724*X776162Y-684083*X775880Y-684646*Y-684927*X776162Y-685490*X776724Y-685771*X777568*X778130Y-686052*X778411Y-686614*Y-686896*X778130Y-687458*X777568Y-687739*X776443*X775880Y-687458*X773349Y-685208D2*X772787Y-685490D1*X771381*X770819Y-685771*X770537Y-686333*Y-686896*X770819Y-687458*X771381Y-687739*X772787*X773349Y-687458*X770819Y-684083D2*X771381Y-683802D1*X772506*X773068Y-684083*X773349Y-684646*Y-687739*X768006Y-684083D2*X767444Y-683802D1*X766319*X765757Y-684083*X765475Y-684365*X765194Y-684927*Y-686614*X765475Y-687177*X765757Y-687458*X766319Y-687739*X767444*X768006Y-687458*Y-687739D2*Y-681834D1*X756477Y-687739D2*X757320D1*X757883Y-687458*X758164Y-687177*X758445Y-686614*Y-684927*X758164Y-684365*X757883Y-684083*X757320Y-683802*X756477*X755914Y-684083*X755633Y-684365*X755352Y-684927*Y-686614*X755633Y-687177*X755914Y-687458*X756477Y-687739*X752821Y-681834D2*X752540Y-682115D1*X751977Y-682396*X750852Y-681834*X750290Y-682115*X750009Y-682396*X752821Y-685208D2*X752258Y-685490D1*X750852*X750290Y-685771*X750009Y-686333*Y-686896*X750290Y-687458*X750852Y-687739*X752258*X752821Y-687458*X750290Y-684083D2*X750852Y-683802D1*X751977*X752540Y-684083*X752821Y-684646*Y-687739*X745790Y-689708D2*X746634D1*X747196Y-689427*X747478Y-688864*X747196Y-688302*X746634Y-688020*X747759Y-684083D2*X747196Y-683802D1*X746072*X745509Y-684083*X745228Y-684365*X744947Y-684927*Y-686614*X745228Y-687177*X745509Y-687458*X746072Y-687739*X747196*X747759Y-687458*X742416Y-685208D2*X741853Y-685490D1*X740447*X739885Y-685771*X739604Y-686333*Y-686896*X739885Y-687458*X740447Y-687739*X741853*X742416Y-687458*X739885Y-684083D2*X740447Y-683802D1*X741572*X742135Y-684083*X742416Y-684646*Y-687739*X737916Y-683802D2*X737354D1*X736792Y-684083*X736510Y-684365*X736229Y-684927*Y-687739D2*Y-683802D1*X730886Y-685771D2*X733698Y-685208D1*Y-684646*X733417Y-684083*X732855Y-683802*X731730*X731167Y-684083*X730886Y-684646*Y-686896*X731167Y-687458*X731730Y-687739*X732855*X733417Y-687458*X729199Y-687739D2*X728636D1*X728074Y-687458*X727793Y-686896*Y-681834*X726949Y-683802D2*X729199D1*X724699Y-681834D2*Y-686896D1*X724981Y-687458*X725543Y-687739*X722731D2*X720762Y-681834D1*X718794Y-687739*X719356Y-686052D2*X722168D1*X707826Y-685490D2*X712326D1*X705296Y-687739D2*X701640D1*X705014Y-684365*X705296Y-683521*Y-682959*X705014Y-682396*X704733Y-682115*X704171Y-681834*X702765*X702202Y-682115*X701921Y-682396*X812157Y-695894D2*X811595Y-695613D1*X810751*X810189Y-695894*X809907Y-696457*Y-696738*X810189Y-697301*X810751Y-697582*X811595*X812157Y-697863*X812438Y-698425*Y-698707*X812157Y-699269*X811595Y-699550*X810470*X809907Y-699269*X805689Y-699550D2*X806533D1*X807095Y-699269*X807376Y-698988*X807658Y-698425*Y-696738*X807376Y-696176*X807095Y-695894*X806533Y-695613*X805689*X805127Y-695894*X804846Y-696176*X804564Y-696738*Y-698425*X804846Y-698988*X805127Y-699269*X805689Y-699550*X802033Y-693645D2*X801752Y-693926D1*X801190Y-694207*X800065Y-693645*X799502Y-693926*X799221Y-694207*X802033Y-697019D2*X801471Y-697301D1*X800065*X799502Y-697582*X799221Y-698144*Y-698707*X799502Y-699269*X800065Y-699550*X801471*X802033Y-699269*X799502Y-695894D2*X800065Y-695613D1*X801190*X801752Y-695894*X802033Y-696457*Y-699550*X795003Y-701519D2*X795847D1*X796409Y-701238*X796690Y-700675*X796409Y-700113*X795847Y-699831*X796972Y-695894D2*X796409Y-695613D1*X795284*X794722Y-695894*X794441Y-696176*X794159Y-696738*Y-698425*X794441Y-698988*X794722Y-699269*X795284Y-699550*X796409*X796972Y-699269*X791628Y-697019D2*X791066Y-697301D1*X789660*X789098Y-697582*X788816Y-698144*Y-698707*X789098Y-699269*X789660Y-699550*X791066*X791628Y-699269*X789098Y-695894D2*X789660Y-695613D1*X790785*X791347Y-695894*X791628Y-696457*Y-699550*X786285Y-695894D2*X785723Y-695613D1*X784598*X784036Y-695894*X783754Y-696176*X783473Y-696738*Y-698425*X783754Y-698988*X784036Y-699269*X784598Y-699550*X785723*X786285Y-699269*X783754Y-701238D2*X784317Y-701519D1*X785161*X785723Y-701238*X786004Y-700956*X786285Y-700394*Y-695613*X780942Y-694207D2*Y-693645D1*X781224Y-693926*X780942Y-694207*X780661Y-693926*X780942Y-693645*Y-699550D2*Y-695613D1*X777849Y-693645D2*Y-698707D1*X778130Y-699269*X778693Y-699550*X770537Y-695894D2*X769975Y-695613D1*X769131*X768569Y-695894*X768288Y-696457*Y-696738*X768569Y-697301*X769131Y-697582*X769975*X770537Y-697863*X770819Y-698425*Y-698707*X770537Y-699269*X769975Y-699550*X768850*X768288Y-699269*X765757Y-697019D2*X765194Y-697301D1*X763788*X763226Y-697582*X762945Y-698144*Y-698707*X763226Y-699269*X763788Y-699550*X765194*X765757Y-699269*X763226Y-695894D2*X763788Y-695613D1*X764913*X765475Y-695894*X765757Y-696457*Y-699550*X760414Y-695894D2*X759851Y-695613D1*X758726*X758164Y-695894*X757883Y-696176*X757601Y-696738*Y-698425*X757883Y-698988*X758164Y-699269*X758726Y-699550*X759851*X760414Y-699269*Y-699550D2*Y-693645D1*X748884Y-699550D2*X749727D1*X750290Y-699269*X750571Y-698988*X750852Y-698425*Y-696738*X750571Y-696176*X750290Y-695894*X749727Y-695613*X748884*X748321Y-695894*X748040Y-696176*X747759Y-696738*Y-698425*X748040Y-698988*X748321Y-699269*X748884Y-699550*X745228Y-693645D2*X744947Y-693926D1*X744384Y-694207*X743259Y-693645*X742697Y-693926*X742416Y-694207*X745228Y-697019D2*X744666Y-697301D1*X743259*X742697Y-697582*X742416Y-698144*Y-698707*X742697Y-699269*X743259Y-699550*X744666*X745228Y-699269*X742697Y-695894D2*X743259Y-695613D1*X744384*X744947Y-695894*X745228Y-696457*Y-699550*X739885Y-695894D2*X739322Y-695613D1*X738479*X737916Y-695894*X737635Y-696457*Y-696738*X737916Y-697301*X738479Y-697582*X739322*X739885Y-697863*X740166Y-698425*Y-698707*X739885Y-699269*X739322Y-699550*X738198*X737635Y-699269*X735104Y-694207D2*Y-693645D1*X735385Y-693926*X735104Y-694207*X734823Y-693926*X735104Y-693645*Y-699550D2*Y-695613D1*X732855D2*X731448Y-699550D1*X730042Y-695613*X725262Y-697582D2*X728074Y-697019D1*Y-696457*X727793Y-695894*X727230Y-695613*X726105*X725543Y-695894*X725262Y-696457*Y-698707*X725543Y-699269*X726105Y-699550*X727230*X727793Y-699269*X719637Y-696738D2*X721887D1*X722450Y-696457*X722731Y-696176*X723012Y-695613*Y-694770*X722731Y-694207*X722450Y-693926*X721887Y-693645*X719637*Y-699550*X723012D2*X721044Y-696738D1*X707826Y-697301D2*X712326D1*X701921Y-695332D2*X702483Y-695051D1*X703046Y-694488*X703608Y-693645*Y-699550*X705296D2*X701921D1*X726668Y-720079D2*Y-719517D1*X726387Y-719798*X726668Y-720079*X726949Y-719798*X726668Y-719517*Y-723172D2*Y-722610D1*X726387Y-722891*X726668Y-723172*X726949Y-722891*X726668Y-722610*X724699Y-723172D2*X724137D1*X723574Y-722891*X723293Y-722329*Y-717267*X722450Y-719235D2*X724699D1*X717950Y-721204D2*X720762Y-720641D1*Y-720079*X720481Y-719517*X719919Y-719235*X718794*X718231Y-719517*X717950Y-720079*Y-722329*X718231Y-722891*X718794Y-723172*X719919*X720481Y-722891*X712888Y-721204D2*X715700Y-720641D1*Y-720079*X715419Y-719517*X714857Y-719235*X713732*X713170Y-719517*X712888Y-720079*Y-722329*X713170Y-722891*X713732Y-723172*X714857*X715419Y-722891*X707826Y-719798D2*X708108Y-719517D1*X708670Y-719235*X709514*X710076Y-719517*X710357Y-720079*Y-723172*X707826D2*Y-717267D1*X705296Y-717548D2*X704452Y-717267D1*X703046*X702483Y-717548*X702202Y-717829*X701921Y-718392*Y-718954*X702202Y-719517*X702483Y-719798*X703046Y-720079*X704171Y-720360*X704733Y-720641*X705014Y-720923*X705296Y-721485*Y-722047*X705014Y-722610*X704733Y-722891*X704171Y-723172*X702765*X701921Y-722891*X696859Y-714595D2*X1122056D1*X878243Y-733521D2*X878805Y-733802D1*X879930*X880492Y-733521*X880774Y-733240*X881055Y-732677*Y-730990*X880774Y-730428*X880492Y-730146*X879930Y-729865*X878805*X878243Y-730146*Y-733802D2*Y-727897D1*X875712Y-730146D2*X875149Y-729865D1*X874024*X873462Y-730146*X873181Y-730428*X872900Y-730990*Y-732677*X873181Y-733240*X873462Y-733521*X874024Y-733802*X875149*X875712Y-733521*X867838D2*X868400Y-733802D1*X869525*X870087Y-733521*X870369Y-733240*X870650Y-732677*Y-730990*X870369Y-730428*X870087Y-730146*X869525Y-729865*X868400*X867838Y-730146*Y-729865D2*Y-735771D1*X861932Y-734365D2*X866432D1*X860526Y-730146D2*X859964Y-729865D1*X858839*X858276Y-730146*X857995Y-730428*X857714Y-730990*Y-732677*X857995Y-733240*X858276Y-733521*X858839Y-733802*X859964*X860526Y-733521*Y-733802D2*Y-727897D1*X855183Y-731271D2*X854621Y-731553D1*X853215*X852652Y-731834*X852371Y-732396*Y-732959*X852652Y-733521*X853215Y-733802*X854621*X855183Y-733521*X852652Y-730146D2*X853215Y-729865D1*X854339*X854902Y-730146*X855183Y-730709*Y-733802*X850121Y-730146D2*X849559Y-729865D1*X848434*X847871Y-730146*X847590Y-730428*X847309Y-730990*Y-732677*X847590Y-733240*X847871Y-733521*X848434Y-733802*X849559*X850121Y-733521*X844778Y-728459D2*Y-727897D1*X845059Y-728178*X844778Y-728459*X844497Y-728178*X844778Y-727897*Y-733802D2*Y-729865D1*X842247D2*X839997Y-732115D1*X840560Y-731553D2*X842247Y-733802D1*X839997D2*Y-727897D1*X837185Y-733802D2*Y-733240D1*X836904Y-733521*X837185Y-733802*X837466Y-733521*X837185Y-733240*X834373Y-727897D2*Y-733802D1*X830999Y-727897*Y-733802*X825937Y-727897D2*X825374Y-728178D1*X824812Y-728740*X824531Y-729865*Y-731834*X824812Y-732959*X825374Y-733521*X825937Y-733802*X827062*X827624Y-733521*X828186Y-732959*X828468Y-731834*Y-729865*X828186Y-728740*X827624Y-728178*X827062Y-727897*X825937*X822000Y-733802D2*Y-727897D1*X818344Y-733802D2*Y-727897D1*X816657D2*X820031D1*X814688D2*Y-732677D1*X814407Y-733240*X814126Y-733521*X813563Y-733802*X812438*X811876Y-733521*X811595Y-733240*X811314Y-732677*Y-727897*X806533D2*Y-733802D1*X809345*X801471Y-727897D2*X800909Y-728178D1*X800346Y-728740*X800065Y-729865*Y-731834*X800346Y-732959*X800909Y-733521*X801471Y-733802*X802596*X803158Y-733521*X803721Y-732959*X804002Y-731834*Y-729865*X803721Y-728740*X803158Y-728178*X802596Y-727897*X801471*X798378D2*X796409Y-733802D1*X794441Y-727897*X792753D2*X789941D1*Y-733802*X792753*X789941Y-730709D2*X791910D1*X784036Y-730990D2*X786285D1*X786848Y-730709*X787129Y-730428*X787410Y-729865*Y-729022*X787129Y-728459*X786848Y-728178*X786285Y-727897*X784036*Y-733802*X787410D2*X785442Y-730990D1*X778130Y-734365D2*X782630D1*X777005Y-728178D2*X776162Y-727897D1*X774756*X774193Y-728178*X773912Y-728459*X773631Y-729022*Y-729584*X773912Y-730146*X774193Y-730428*X774756Y-730709*X775880Y-730990*X776443Y-731271*X776724Y-731553*X777005Y-732115*Y-732677*X776724Y-733240*X776443Y-733521*X775880Y-733802*X774474*X773631Y-733521*X768850Y-727897D2*X768288Y-728178D1*X767725Y-728740*X767444Y-729865*Y-731834*X767725Y-732959*X768288Y-733521*X768850Y-733802*X769975*X770537Y-733521*X771100Y-732959*X771381Y-731834*Y-729865*X771100Y-728740*X770537Y-728178*X769975Y-727897*X768850*X764913Y-733802D2*Y-727897D1*X759008Y-730709D2*X760976D1*X761538Y-730428*X761820Y-730146*X762101Y-729584*Y-729022*X761820Y-728459*X761538Y-728178*X760976Y-727897*X759008*Y-733802*X761257*X761820Y-733521*X762101Y-733240*X762382Y-732677*Y-731834*X762101Y-731271*X761820Y-730990*X760976Y-730709*X753102Y-734365D2*X757601D1*X751696Y-733802D2*Y-727897D1*X749727Y-732115*X747759Y-727897*Y-733802*X745790D2*X743822Y-727897D1*X741853Y-733802*X742416Y-732115D2*X745228D1*X740166Y-727897D2*X737354D1*Y-733802*X740166*X737354Y-730709D2*X739322D1*X731448Y-730990D2*X733698D1*X734261Y-730709*X734542Y-730428*X734823Y-729865*Y-729022*X734542Y-728459*X734261Y-728178*X733698Y-727897*X731448*Y-733802*X734823D2*X732855Y-730990D1*X725543Y-733802D2*X726949D1*X727793Y-733521*X728355Y-732959*X728636Y-732396*X728918Y-731271*Y-730428*X728636Y-729303*X728355Y-728740*X727793Y-728178*X726949Y-727897*X725543*Y-733802*X718231Y-730709D2*Y-730146D1*X717950Y-730428*X718231Y-730709*X718513Y-730428*X718231Y-730146*Y-733802D2*Y-733240D1*X717950Y-733521*X718231Y-733802*X718513Y-733521*X718231Y-733240*X712888Y-731834D2*X715700Y-731271D1*Y-730709*X715419Y-730146*X714857Y-729865*X713732*X713170Y-730146*X712888Y-730709*Y-732959*X713170Y-733521*X713732Y-733802*X714857*X715419Y-733521*X710076Y-727897D2*Y-732959D1*X710357Y-733521*X710920Y-733802*X707264Y-728459D2*Y-727897D1*X707545Y-728178*X707264Y-728459*X706983Y-728178*X707264Y-727897*Y-733802D2*Y-729865D1*X705014Y-727897D2*X702202D1*Y-733802*X704171Y-730709D2*X702202D1*X696859Y-738217D2*X1122056D1*X1063844Y-769741D2*X1064407Y-769460D1*X1064969Y-768898*X1065532Y-768054*Y-773960*X1067219D2*X1063844D1*X1062157Y-767773D2*X1057095Y-775366D1*X1052033Y-769741D2*X1052596Y-769460D1*X1053158Y-768898*X1053721Y-768054*Y-773960*X1055408D2*X1052033D1*X1045003Y-770866D2*Y-770304D1*X1044722Y-770585*X1045003Y-770866*X1045284Y-770585*X1045003Y-770304*Y-773960D2*Y-773397D1*X1044722Y-773679*X1045003Y-773960*X1045284Y-773679*X1045003Y-773397*X1042191Y-770304D2*X1041628Y-770023D1*X1040504*X1039941Y-770304*X1039660Y-770585*X1039379Y-771148*Y-772835*X1039660Y-773397*X1039941Y-773679*X1040504Y-773960*X1041628*X1042191Y-773679*Y-773960D2*Y-768054D1*X1036848Y-773960D2*Y-768054D1*X736229Y-760968D2*X732573D1*X733979Y-756749*X735385Y-758999D2*Y-762936D1*X730886D2*X728918Y-757031D1*X726949Y-762936*X727511Y-761249D2*X730324D1*X720481Y-759843D2*Y-759280D1*X720200Y-759562*X720481Y-759843*X720762Y-759562*X720481Y-759280*Y-762936D2*Y-762374D1*X720200Y-762655*X720481Y-762936*X720762Y-762655*X720481Y-762374*X715138Y-760968D2*X717950Y-760405D1*Y-759843*X717669Y-759280*X717107Y-758999*X715982*X715419Y-759280*X715138Y-759843*Y-762092*X715419Y-762655*X715982Y-762936*X717107*X717669Y-762655*X713170Y-762936D2*X710076D1*X713170Y-758999*X710076*X707826Y-757593D2*Y-757031D1*X708108Y-757312*X707826Y-757593*X707545Y-757312*X707826Y-757031*Y-762936D2*Y-758999D1*X705296Y-757312D2*X704452Y-757031D1*X703046*X702483Y-757312*X702202Y-757593*X701921Y-758155*Y-758718*X702202Y-759280*X702483Y-759562*X703046Y-759843*X704171Y-760124*X704733Y-760405*X705014Y-760686*X705296Y-761249*Y-761811*X705014Y-762374*X704733Y-762655*X704171Y-762936*X702765*X701921Y-762655*X696859Y-753965D2*X1122056D1*X696859Y-765776D2*X1122056D1*X871775Y-759562D2*X872337Y-759843D1*X872618Y-760124*X872900Y-760686*Y-761811*X872618Y-762374*X872337Y-762655*X871775Y-762936*X870650*X870087Y-762655*X869806Y-762374*X869525Y-761811*Y-760686*X869806Y-760124*X870087Y-759843*X870650Y-759562*X871775*X872337Y-759280*X872618Y-758999*X872900Y-758437*Y-758155*X872618Y-757593*X872337Y-757312*X871775Y-757031*X870650*X870087Y-757312*X869806Y-757593*X869525Y-758155*Y-758437*X869806Y-758999*X870087Y-759280*X870650Y-759562*X865307Y-757031D2*X864744Y-757312D1*X864463Y-757593*X864182Y-758155*X863901Y-759280*Y-760686*X864182Y-761811*X864463Y-762374*X864744Y-762655*X865307Y-762936*X865869*X866432Y-762655*X866713Y-762374*X866994Y-761811*X867275Y-760686*Y-759280*X866994Y-758155*X866713Y-757593*X866432Y-757312*X865869Y-757031*X865307*X856870Y-760686D2*X861370D1*X853214Y-759562D2*X853777Y-759843D1*X854058Y-760124*X854339Y-760686*Y-761811*X854058Y-762374*X853777Y-762655*X853214Y-762936*X852090*X851527Y-762655*X851246Y-762374*X850965Y-761811*Y-760686*X851246Y-760124*X851527Y-759843*X852090Y-759562*X853214*X853777Y-759280*X854058Y-758999*X854339Y-758437*Y-758155*X854058Y-757593*X853777Y-757312*X853214Y-757031*X852090*X851527Y-757312*X851246Y-757593*X850965Y-758155*Y-758437*X851246Y-758999*X851527Y-759280*X852090Y-759562*X846747Y-757031D2*X846184Y-757312D1*X845903Y-757593*X845622Y-758155*X845340Y-759280*Y-760686*X845622Y-761811*X845903Y-762374*X846184Y-762655*X846747Y-762936*X847309*X847871Y-762655*X848153Y-762374*X848434Y-761811*X848715Y-760686*Y-759280*X848434Y-758155*X848153Y-757593*X847871Y-757312*X847309Y-757031*X846747*X838310Y-760686D2*X842810D1*X832405Y-760405D2*X832686Y-759843D1*X832967Y-759562*X833529Y-759280*X834654*X835217Y-759562*X835498Y-759843*X835779Y-760405*Y-761811*X835498Y-762374*X835217Y-762655*X834654Y-762936*X833529*X832967Y-762655*X832686Y-762374*X832405Y-761811*Y-759562*X832686Y-758437*X833248Y-757593*X833529Y-757312*X834092Y-757031*X835217*X826780Y-758718D2*X827343Y-758437D1*X827905Y-757874*X828468Y-757031*Y-762936*X830155D2*X826780D1*X822562Y-757031D2*X822000Y-757312D1*X821718Y-757593*X821437Y-758155*X821156Y-759280*Y-760686*X821437Y-761811*X821718Y-762374*X822000Y-762655*X822562Y-762936*X823125*X823687Y-762655*X823968Y-762374*X824249Y-761811*X824531Y-760686*Y-759280*X824249Y-758155*X823968Y-757593*X823687Y-757312*X823125Y-757031*X822562*X818906Y-762936D2*X815251D1*X818625Y-759562*X818906Y-758718*Y-758155*X818625Y-757593*X818344Y-757312*X817781Y-757031*X816375*X815813Y-757312*X815532Y-757593*X808501Y-759843D2*Y-759280D1*X808220Y-759562*X808501Y-759843*X808783Y-759562*X808501Y-759280*Y-762936D2*Y-762374D1*X808220Y-762655*X808501Y-762936*X808783Y-762655*X808501Y-762374*X803158Y-760968D2*X805970Y-760405D1*Y-759843*X805689Y-759280*X805127Y-758999*X804002*X803439Y-759280*X803158Y-759843*Y-762092*X803439Y-762655*X804002Y-762936*X805127*X805689Y-762655*X801471Y-762936D2*X800909D1*X800346Y-762655*X800065Y-762092*Y-757031*X799221Y-758999D2*X801471D1*X797253Y-760405D2*X796690Y-760686D1*X795284*X794722Y-760968*X794441Y-761530*Y-762092*X794722Y-762655*X795284Y-762936*X796690*X797253Y-762655*X794722Y-759280D2*X795284Y-758999D1*X796409*X796972Y-759280*X797253Y-759843*Y-762936*X788816D2*X790222D1*X791066Y-762655*X791628Y-762092*X791910Y-761530*X792191Y-760405*Y-759562*X791910Y-758437*X791628Y-757874*X791066Y-757312*X790222Y-757031*X788816*Y-762936*X1124652Y-730662D2*X1125871D1*X1126602Y-730418*X1127090Y-729931*X1127333Y-729443*X1127577Y-728468*Y-727737*X1127333Y-726762*X1127090Y-726275*X1126602Y-725787*X1125871Y-725544*X1124652*Y-730662*X1127577Y-529181D2*X1127333Y-528937D1*X1126602Y-528693*X1126115*X1125384Y-528937*X1124896Y-529424*X1124652Y-529912*X1124409Y-530887*Y-531618*X1124652Y-532593*X1124896Y-533080*X1125384Y-533568*X1126115Y-533811*X1126602*X1127333Y-533568*X1127577Y-533324*X1124652Y-334280D2*X1126359D1*X1126846Y-334036*X1127090Y-333793*X1127333Y-333305*Y-332818*X1127090Y-332330*X1126846Y-332087*X1126359Y-331843*X1124652*Y-336961*X1126602*X1127090Y-336717*X1127333Y-336474*X1127577Y-335986*Y-335255*X1127333Y-334768*X1127090Y-334524*X1126359Y-334280*X1127699Y-140111D2*X1125993Y-134993D1*X1124287Y-140111*X1124774Y-138648D2*X1127211D1*X1129930Y-629921D2*X1122056D1*X1129930Y-433071D2*X1122056D1*X1129930Y-236220D2*X1122056D1*X41967Y-730662D2*X43185D1*X43916Y-730418*X44404Y-729931*X44648Y-729443*X44891Y-728468*Y-727737*X44648Y-726762*X44404Y-726275*X43916Y-725787*X43185Y-725544*X41967*Y-730662*X44891Y-529181D2*X44648Y-528937D1*X43916Y-528693*X43429*X42698Y-528937*X42210Y-529424*X41967Y-529912*X41723Y-530887*Y-531618*X41967Y-532593*X42210Y-533080*X42698Y-533568*X43429Y-533811*X43916*X44648Y-533568*X44891Y-533324*X41967Y-334280D2*X43673D1*X44160Y-334036*X44404Y-333793*X44648Y-333305*Y-332818*X44404Y-332330*X44160Y-332087*X43673Y-331843*X41967*Y-336961*X43916*X44404Y-336717*X44648Y-336474*X44891Y-335986*Y-335255*X44648Y-334768*X44404Y-334524*X43673Y-334280*X45013Y-140111D2*X43307Y-134993D1*X41601Y-140111*X42089Y-138648D2*X44526D1*X39370Y-629921D2*X47244D1*X39370Y-433071D2*X47244D1*X39370Y-236220D2*X47244D1*X1123022Y-783615D2*X1123266Y-783127D1*X1123510Y-782884*X1123997Y-782640*X1124972*X1125459Y-782884*X1125703Y-783127*X1125947Y-783615*Y-784833*X1125703Y-785321*X1125459Y-785565*X1124972Y-785808*X1123997*X1123510Y-785565*X1123266Y-785321*X1123022Y-784833*Y-782884*X1123266Y-781909*X1123753Y-781178*X1123997Y-780934*X1124484Y-780690*X1125459*X926172Y-785321D2*X926415Y-785565D1*X926903Y-785808*X928121*X928609Y-785565*X928853Y-785321*X929096Y-784833*Y-783615*X928853Y-783127*X928609Y-782884*X928121Y-782640*X926903*X926415Y-782884*X926172Y-783127*X926415Y-780690*X928853*X732490Y-784102D2*X729321D1*X730540Y-780446*X731759Y-782396D2*Y-785808D1*X532227Y-785321D2*X532471Y-785565D1*X532958Y-785808*X534421*X534908Y-785565*X535152Y-785321*X535396Y-784833*Y-783615*X535152Y-783127*X534908Y-782884*X534421Y-782640*X533690*X535396Y-780690*X532227*X338545Y-785808D2*X335377D1*X338301Y-782884*X338545Y-782152*Y-781665*X338301Y-781178*X338058Y-780934*X337570Y-780690*X336352*X335864Y-780934*X335621Y-781178*X138770Y-782152D2*X139258Y-781909D1*X139745Y-781421*X140232Y-780690*Y-785808*X141695D2*X138770D1*X1023622Y-779556D2*Y-787430D1*X826772Y-779556D2*Y-787430D1*X629921Y-779556D2*Y-787430D1*X433071Y-779556D2*Y-787430D1*X236220Y-779556D2*Y-787430D1*X1123022Y-43429D2*X1123266Y-42941D1*X1123510Y-42698*X1123997Y-42454*X1124972*X1125459Y-42698*X1125703Y-42941*X1125947Y-43429*Y-44648*X1125703Y-45135*X1125459Y-45379*X1124972Y-45622*X1123997*X1123510Y-45379*X1123266Y-45135*X1123022Y-44648*Y-42698*X1123266Y-41723*X1123753Y-40992*X1123997Y-40748*X1124484Y-40504*X1125459*X926172Y-45135D2*X926415Y-45379D1*X926903Y-45622*X928121*X928609Y-45379*X928853Y-45135*X929096Y-44648*Y-43429*X928853Y-42941*X928609Y-42698*X928121Y-42454*X926903*X926415Y-42698*X926172Y-42941*X926415Y-40504*X928853*X732490Y-43916D2*X729321D1*X730540Y-40261*X731759Y-42210D2*Y-45622D1*X532227Y-45135D2*X532471Y-45379D1*X532958Y-45622*X534421*X534908Y-45379*X535152Y-45135*X535396Y-44648*Y-43429*X535152Y-42941*X534908Y-42698*X534421Y-42454*X533690*X535396Y-40504*X532227*X338545Y-45622D2*X335377D1*X338301Y-42698*X338545Y-41967*Y-41479*X338301Y-40992*X338058Y-40748*X337570Y-40504*X336352*X335864Y-40748*X335621Y-40992*X138770Y-41967D2*X139258Y-41723D1*X139745Y-41235*X140232Y-40504*Y-45622*X141695D2*X138770D1*X1023622Y-47244D2*Y-39370D1*X826772Y-47244D2*Y-39370D1*X629921Y-47244D2*Y-39370D1*X433071Y-47244D2*Y-39370D1*X236220Y-47244D2*Y-39370D1*X47244Y-47244D2*X1122056D1*Y-779556*X47244*Y-47244*X39370Y-39370D2*X1129930D1*Y-787430*X39370*Y-39370*X696859Y-653572D2*X1122056D1*Y-779556*X696859*Y-653572*D12*X734542Y-705456D2*Y-711361D1*X731167Y-705456*Y-711361*X726105Y-705456D2*X725543Y-705737D1*X724981Y-706299*X724699Y-707424*Y-709393*X724981Y-710518*X725543Y-711080*X726105Y-711361*X727230*X727793Y-711080*X728355Y-710518*X728636Y-709393*Y-707424*X728355Y-706299*X727793Y-705737*X727230Y-705456*X726105*X722450Y-705737D2*X721606Y-705456D1*X720200*X719637Y-705737*X719356Y-706018*X719075Y-706581*Y-707143*X719356Y-707706*X719637Y-707987*X720200Y-708268*X721325Y-708549*X721887Y-708830*X722168Y-709112*X722450Y-709674*Y-710236*X722168Y-710799*X721887Y-711080*X721325Y-711361*X719919*X719075Y-711080*X714576Y-705456D2*Y-711361D1*X717388*X711763D2*Y-705456D1*X709795Y-711361D2*X707826Y-705456D1*X705858Y-711361*X706420Y-709674D2*X709233D1*X701640Y-711361D2*X702202D1*X703046Y-711080*X703608Y-710518*X703889Y-709674*Y-705456*X1052315Y-759843D2*Y-759280D1*X1052033Y-759562*X1052315Y-759843*X1052596Y-759562*X1052315Y-759280*Y-762936D2*Y-762374D1*X1052033Y-762655*X1052315Y-762936*X1052596Y-762655*X1052315Y-762374*X1050065Y-758999D2*X1048659Y-762936D1*X1047253Y-758999*X1042472Y-760968D2*X1045284Y-760405D1*Y-759843*X1045003Y-759280*X1044441Y-758999*X1043316*X1042753Y-759280*X1042472Y-759843*Y-762092*X1042753Y-762655*X1043316Y-762936*X1044441*X1045003Y-762655*X1036848Y-760124D2*X1039098D1*X1039660Y-759843*X1039941Y-759562*X1040222Y-758999*Y-758155*X1039941Y-757593*X1039660Y-757312*X1039098Y-757031*X1036848*Y-762936*X1040222D2*X1038254Y-760124D1*D13*X883679Y-740992D2*X882695Y-748866D1*X879180Y-740992*X878196Y-748866*X872431Y-740992D2*X871634Y-741367D1*X870790Y-742117*X870228Y-743617*X869900Y-746241*X870087Y-747741*X870744Y-748491*X871447Y-748866*X872946*X873743Y-748491*X874587Y-747741*X875149Y-746241*X875477Y-743617*X875290Y-742117*X874634Y-741367*X873931Y-740992*X872431*X866197Y-748866D2*X867182Y-740992D1*X861323Y-748866D2*X862307Y-740992D1*X860057D2*X864557D1*X857433D2*X856636Y-747366D1*X856167Y-748116*X855745Y-748491*X854949Y-748866*X853449*X852746Y-748491*X852418Y-748116*X852137Y-747366*X852933Y-740992*X846559D2*X845575Y-748866D1*X849324*X839810Y-740992D2*X839013Y-741367D1*X838170Y-742117*X837607Y-743617*X837279Y-746241*X837466Y-747741*X838123Y-748491*X838826Y-748866*X840326*X841122Y-748491*X841966Y-747741*X842528Y-746241*X842856Y-743617*X842669Y-742117*X842013Y-741367*X841310Y-740992*X839810*X835685D2*X832077Y-748866D1*X830436Y-740992*X828186D2*X824437D1*X823453Y-748866*X827202*X823968Y-744741D2*X826593D1*X816047Y-745116D2*X819047D1*X819844Y-744741*X820266Y-744367*X820734Y-743617*X820875Y-742492*X820594Y-741742*X820266Y-741367*X819562Y-740992*X816563*X815579Y-748866*X820078D2*X817922Y-745116D1*X807142Y-741367D2*X806064Y-740992D1*X804189*X803393Y-741367*X802971Y-741742*X802502Y-742492*X802408Y-743242*X802690Y-743992*X803018Y-744367*X803721Y-744741*X805174Y-745116*X805877Y-745491*X806205Y-745866*X806486Y-746616*X806392Y-747366*X805924Y-748116*X805502Y-748491*X804705Y-748866*X802830*X801752Y-748491*X796315Y-740992D2*X795519Y-741367D1*X794675Y-742117*X794113Y-743617*X793784Y-746241*X793972Y-747741*X794628Y-748491*X795331Y-748866*X796831*X797628Y-748491*X798471Y-747741*X799034Y-746241*X799362Y-743617*X799174Y-742117*X798518Y-741367*X797815Y-740992*X796315*X790082Y-748866D2*X791066Y-740992D1*X782723Y-744741D2*X785348D1*X786145Y-744367*X786567Y-743992*X787035Y-743242*X787129Y-742492*X786848Y-741742*X786520Y-741367*X785817Y-740992*X783192*X782208Y-748866*X785207*X786004Y-748491*X786426Y-748116*X786895Y-747366*X787035Y-746241*X786754Y-745491*X786426Y-745116*X785348Y-744741*X772459Y-748866D2*X773443Y-740992D1*X770116Y-746616*X768194Y-740992*X767210Y-748866*X764585D2*X762945Y-740992D1*X759336Y-748866*X760367Y-746616D2*X764116D1*X758070Y-740992D2*X754321D1*X753336Y-748866*X757086*X753852Y-744741D2*X756477D1*X745931Y-745116D2*X748931D1*X749727Y-744741*X750149Y-744367*X750618Y-743617*X750759Y-742492*X750477Y-741742*X750149Y-741367*X749446Y-740992*X746447*X745462Y-748866*X749962D2*X747806Y-745116D1*X737588Y-748866D2*X739463D1*X740635Y-748491*X741478Y-747741*X741947Y-746991*X742510Y-745491*X742650Y-744367*X742463Y-742867*X742182Y-742117*X741525Y-741367*X740447Y-740992*X738573*X737588Y-748866*X728355Y-744741D2*X728449Y-743992D1*X728027Y-744367*X728355Y-744741*X728777Y-744367*X728449Y-743992*X727840Y-748866D2*X727933Y-748116D1*X727511Y-748491*X727840Y-748866*X728261Y-748491*X727933Y-748116*X721044Y-746241D2*X724887Y-745491D1*X724981Y-744741*X724699Y-743992*X723996Y-743617*X722496*X721700Y-743992*X721231Y-744741*X720856Y-747741*X721137Y-748491*X721840Y-748866*X723340*X724137Y-748491*X717950Y-740992D2*X717107Y-747741D1*X717388Y-748491*X718091Y-748866*X714341D2*X713591D1*X712888Y-748491*X712607Y-747741*X713451Y-740992*X711998Y-743617D2*X714997D1*X709607Y-741742D2*X709701Y-740992D1*X710029Y-741367*X709607Y-741742*X709279Y-741367*X709701Y-740992*X708717Y-748866D2*X709373Y-743617D1*X703843Y-748866D2*X704827Y-740992D1*X702577D2*X707077D1*D106*X269000Y-529000D2*Y-371520D1*X414669*X269000Y-529000D2*X387110D1*X414669Y-509315D2*Y-371520D1*X387110Y-529000D2*Y-509315D1*X414669*X0Y0D2*M02*