G04 Output by CAMMaster V11.2.74  PentaLogix*
G04 Tue Aug 09 11:47:32 2016*
%FSLAX25Y25*%
%MOIN*%
%IPPOS*%
%ADD10C,0.003937*%
%ADD11C,0.005906*%
%ADD12C,0.011811*%
%ADD13C,0.015748*%
%ADD122C,0.007874*%
%ADD123C,0.009843*%
%ADD124C,0.005512*%
%ADD125C,0.005906*%

%LPD*%
X0Y0D2*D10*G1X1080925Y-586855D2*X1081180Y-586167D1*X1076334*X1076345Y-593015*X1076346Y-593580*X1076350Y-594849*X1076357Y-596020*X1076366Y-597069*X1076376Y-597973*X1076388Y-598708*X1076401Y-599251*X1076415Y-599578*X1076430Y-599667*Y-599665*X1076490Y-599497*X1076628Y-599106*X1076834Y-598520*X1077100Y-597761*X1077417Y-596855*X1077776Y-595828*X1078169Y-594703*X1078588Y-593507*X1078997Y-592335*X1079405Y-591170*X1079785Y-590086*X1080127Y-589111*X1080422Y-588272*X1080660Y-587599*X1080831Y-587117*X1080925Y-586855*X1083537Y-588198D2*X1083437Y-588168D1*X1083387Y-588211*X1083386Y-588212*X1083319Y-588385*X1083169Y-588779*X1082946Y-589368*X1082660Y-590126*X1082321Y-591030*X1081936Y-592053*X1081517Y-593171*X1081072Y-594359*X1078864Y-600256*X1083958Y-600291*X1089053Y-600325*X1089455Y-599866*X1089847Y-599514*X1090459Y-599226*X1091110Y-599175*X1091753Y-599359*X1092339Y-599782*X1092668Y-600198*X1092919Y-600829*X1092933Y-601482*X1092713Y-602109*X1092259Y-602662*X1091945Y-602893*X1091305Y-603141*X1090642Y-603153*X1090009Y-602933*X1089457Y-602483*X1089055Y-602026*X1078204*X1077793Y-603114*X1077714Y-603328*X1077544Y-603806*X1077427Y-604172*X1077383Y-604359*X1077403Y-604380*X1077539Y-604412*X1077814Y-604439*X1078244Y-604461*X1078845Y-604479*X1079630Y-604493*X1080617Y-604504*X1081820Y-604511*X1083254Y-604515*X1084936Y-604516*X1092489*X1092988Y-604065*X1093357Y-603790*X1094002Y-603535*X1094662Y-603517*X1095291Y-603735*X1095844Y-604187*X1096074Y-604502*X1096322Y-605141*X1096334Y-605804*X1096115Y-606436*X1095667Y-606988*X1095302Y-607250*X1094660Y-607481*X1094003Y-607472*X1093372Y-607224*X1092810Y-606741*X1092364Y-606220*X1076334*Y-608579*X1088638*X1089237Y-608060*X1089667Y-607747*X1090337Y-607473*X1090998Y-607444*X1091620Y-607660*X1092174Y-608119*X1092404Y-608434*X1092652Y-609073*X1092665Y-609736*X1092445Y-610368*X1091997Y-610919*X1091683Y-611150*X1091043Y-611398*X1090380Y-611410*X1089747Y-611189*X1089194Y-610740*X1088793Y-610283*X1076334*Y-612249*X1099405*X1099016Y-611888*X1098628Y-611528*X1097636Y-601764*X1097475Y-600180*X1097320Y-598663*X1097174Y-597233*X1097038Y-595914*X1096915Y-594727*X1096807Y-593693*X1096716Y-592833*X1096645Y-592170*X1096596Y-591724*X1096572Y-591518*X1096498Y-591037*X1094444Y-592357*X1093900Y-592706*X1093157Y-593185*X1092457Y-593638*X1091858Y-594027*X1091421Y-594312*X1091236Y-594431*X1090792Y-594696*X1090435Y-594880*X1090230Y-594948*X1090095Y-594857*X1089803Y-594594*X1089376Y-594181*X1088836Y-593639*X1088204Y-592990*X1087502Y-592254*X1086750Y-591454*X1086103Y-590762*X1085360Y-589971*X1084765Y-589347*X1084301Y-588873*X1083953Y-588534*X1083704Y-588314*X1083537Y-588198*X1099401Y-593900D2*Y-586167D1*X1085632*X1088277Y-589215*X1088559Y-589539*X1089200Y-590277*X1089778Y-590943*X1090272Y-591511*X1090659Y-591957*X1090918Y-592254*X1091027Y-592380*X1091095Y-592378*X1091356Y-592267*X1091775Y-592043*X1092315Y-591727*X1092940Y-591337*X1093047Y-591268*X1094121Y-590579*X1095000Y-590020*X1095704Y-589579*X1096257Y-589248*X1096682Y-589014*X1097001Y-588868*X1097237Y-588799*X1097412Y-588797*X1097550Y-588852*X1097672Y-588952*X1097801Y-589087*X1097854Y-589153*X1097917Y-589267*X1097975Y-589436*X1098034Y-589682*X1098095Y-590029*X1098163Y-590500*X1098240Y-591118*X1098330Y-591904*X1098436Y-592883*X1098560Y-594077*X1098707Y-595509*X1098830Y-596699*X1098950Y-597855*X1099060Y-598903*X1099158Y-599818*X1099240Y-600574*X1099304Y-601145*X1099347Y-601506*X1099367Y-601633*X1099373Y-601524*X1099379Y-601174*X1099384Y-600607*X1099389Y-599844*X1099393Y-598909*X1099396Y-597824*X1099399Y-596612*X1099401Y-595297*Y-593900*X1080144Y-588174D2*X1080381Y-587500D1*X1080553Y-587018*X1080647Y-586755*X1080756Y-586463*X1076630*X1076640Y-593015*X1076652Y-596018D2*X1076661Y-597066D1*X1076671Y-597969*X1076673Y-598085*X1076821Y-597663*X1077138Y-596758*X1077498Y-595730*X1077891Y-594606*X1078309Y-593409*X1078718Y-592238D2*X1079126Y-591072D1*X1079506Y-589988*X1079849Y-589013*X1080144Y-588174*X1076666Y-597514D2*X1076873D1*X1076660Y-596943D2*X1077073D1*X1076655Y-596372D2*X1077273D1*X1076630Y-586668D2*X1080680D1*X1086279Y-586463D2*X1088500Y-589021D1*X1089423Y-590084*X1090494Y-591317*X1090882Y-591763D2*X1091126Y-592044D1*X1092154Y-591480D2*X1092159Y-591476D1*X1092782Y-591087*X1092887Y-591020*X1093962Y-590331*X1094841Y-589771*X1095546Y-589330*X1096919Y-588585D2*X1097154Y-588516D1*X1097237Y-588504D2*X1097409Y-588502D1*X1097412*X1097521Y-588523D2*X1097658Y-588577D1*X1098534Y-591086D2*X1098623Y-591871D1*X1098729Y-592851*X1098854Y-594046*X1099104Y-596475*X1099105Y-595296*X1099106Y-593900*Y-586463*X1086279*X1099045Y-595904D2*X1099104D1*X1098986Y-595333D2*X1099105D1*X1098928Y-594763D2*X1099105D1*X1098869Y-594192D2*X1099106D1*X1098810Y-593621D2*X1099106D1*X1098750Y-593050D2*X1099106D1*X1098689Y-592479D2*X1099106D1*X1091008Y-591908D2*X1091411D1*X1098627D2*X1099106D1*X1098562Y-591337D2*X1099106D1*X1098499Y-590767D2*X1099106D1*X1098421Y-590196D2*X1099106D1*X1098136Y-589054D2*X1099106D1*X1086546Y-586770D2*X1099106D1*X1089721Y-599246D2*X1090334Y-598959D1*X1090436Y-598932D2*X1091087Y-598880D1*X1091192Y-598891D2*X1091835Y-599076D1*X1091926Y-599120D2*X1092512Y-599543D1*X1092571Y-599599D2*X1092900Y-600014D1*X1092943Y-600089D2*X1093193Y-600720D1*X1093214Y-600822D2*X1093229Y-601475D1*Y-601482*X1093212Y-601580D2*X1092992Y-602207D1*X1092941Y-602296D2*X1092488Y-602850D1*X1092434Y-602901D2*X1092119Y-603131D1*X1092051Y-603168D2*X1091411Y-603416D1*X1091310Y-603436D2*X1090648Y-603448D1*X1090642*X1090545Y-603432D2*X1089912Y-603211D1*X1089822Y-603162D2*X1089270Y-602712D1*X1089235Y-602678D2*X1088921Y-602321D1*X1078408*X1078070Y-603217*X1077991Y-603429*X1077824Y-603901*X1077748Y-604138*X1078751Y-604184D2*X1078766D1*X1078845*X1078850*X1079635Y-604198*X1080620Y-604208*X1081821Y-604215*X1083255Y-604219*X1084936Y-604221*X1092365*X1093248Y-603516D2*X1093894Y-603260D1*X1093994Y-603240D2*X1094654Y-603222D1*X1094662*X1094759Y-603238D2*X1095388Y-603456D1*X1095478Y-603507D2*X1096031Y-603959D1*X1096082Y-604013D2*X1096312Y-604328D1*X1096349Y-604395D2*X1096597Y-605035D1*X1096617Y-605136D2*X1096630Y-605798D1*Y-605804*X1096613Y-605900D2*X1096394Y-606533D1*X1096344Y-606623D2*X1095896Y-607174D1*X1095839Y-607227D2*X1095474Y-607489D1*X1095402Y-607527D2*X1094761Y-607759D1*X1094660Y-607777D2*X1093998Y-607767D1*X1093895Y-607746D2*X1093264Y-607498D1*X1093179Y-607447D2*X1092618Y-606965D1*X1092586Y-606933D2*X1092228Y-606515D1*X1076629*Y-608284*X1088528*X1089044Y-607837*X1089063Y-607822D2*X1089494Y-607508D1*X1089556Y-607474D2*X1090225Y-607200D1*X1090324Y-607178D2*X1090985Y-607149D1*X1090998*X1091094Y-607165D2*X1091717Y-607381D1*X1091808Y-607432D2*X1092363Y-607892D1*X1092412Y-607945D2*X1092643Y-608259D1*X1092680Y-608327D2*X1092927Y-608967D1*X1092947Y-609068D2*X1092960Y-609730D1*Y-609736*X1092944Y-609832D2*X1092724Y-610465D1*X1092674Y-610555D2*X1092226Y-611106D1*X1092172Y-611158D2*X1091857Y-611388D1*X1091789Y-611425D2*X1091149Y-611673D1*X1091048Y-611693D2*X1090386Y-611705D1*X1090380*X1090283Y-611689D2*X1089650Y-611468D1*X1089560Y-611418D2*X1089008Y-610969D1*X1088973Y-610935D2*X1088659Y-610578D1*X1076629*Y-611953*X1098652*X1098427Y-611744*X1098334Y-611558D2*X1097343Y-601794D1*X1097182Y-600210*X1097027Y-598693*X1096880Y-597264*X1096744Y-595945*X1096621Y-594758*X1096513Y-593724*X1096423Y-592864*X1096352Y-592202*X1096303Y-591758*X1096279Y-591558*X1096275Y-591531*X1094603Y-592605*X1094059Y-592955*X1093317Y-593433*X1092617Y-593886*X1092022Y-594272*X1090529Y-595159D2*X1090324Y-595228D1*X1090065Y-595193D2*X1089930Y-595102D1*X1088623Y-593843D2*X1087992Y-593196D1*X1087288Y-592458*X1086535Y-591657*X1085888Y-590964*X1085145Y-590174*X1084552Y-589552*X1084090Y-589080*X1084082Y-589071*X1083562Y-588576D2*X1083445Y-588884D1*X1083223Y-589472*X1082937Y-590230*X1082597Y-591134*X1082213Y-592157*X1081794Y-593275*X1081349Y-594462*X1079289Y-599964*X1088908Y-600029*X1076629Y-611953D2*X1098652D1*X1076629Y-610812D2*X1088864D1*X1076629Y-607957D2*X1088905D1*X1076629Y-606816D2*X1092485D1*X1077804Y-603961D2*X1092650D1*X1079450Y-599965D2*X1088961D1*X1095587Y-591973D2*X1096327D1*X1083356Y-589119D2*X1084128D1*X1076640Y-593015D2*X1076641Y-593579D1*X1078309Y-593409D2*X1078718Y-592238D1*X1076641Y-593579D2*X1076645Y-594848D1*X1076652Y-596018*X1090494Y-591317D2*X1090882Y-591763D1*D11*X400750Y-385406D2*X400937Y-385594D1*X401312Y-385781*X402437*X402812Y-385594*X403000Y-385406*X403187Y-385031*Y-384094*X403000Y-383719*X402812Y-383531*X402437Y-383344*X401875*X403187Y-381844*X400750*X399250D2*Y-385031D1*X399063Y-385406*X398875Y-385594*X398500Y-385781*X397750*X397375Y-385594*X397188Y-385406*X397000Y-385031*Y-381844*X383968Y-513469D2*X384343Y-513281D1*X384718Y-512906*X385093Y-512344*Y-516281*X386218D2*X383968D1*X382281Y-512344D2*Y-516281D1*X380031Y-512344*Y-516281*X376657Y-512344D2*X376282Y-512531D1*X375907Y-512906*X375719Y-513656*Y-514969*X375907Y-515719*X376282Y-516094*X376657Y-516281*X377406*X377781Y-516094*X378156Y-515719*X378344Y-514969*Y-513656*X378156Y-512906*X377781Y-512531*X377406Y-512344*X376657*X374219Y-512719D2*X374032Y-512531D1*X373469Y-512344*X373094*X372532Y-512531*X372157Y-512906*X371970Y-513281*X371782Y-514031*Y-514594*X371970Y-515344*X372157Y-515719*X372532Y-516094*X373094Y-516281*X373469*X374032Y-516094*X374219Y-515906*X404281Y-417407D2*Y-419844D1*X402031Y-417594*X401469Y-417407*X401094*X400719Y-417594*X400531Y-417782*X400344Y-418157*Y-419094*X400531Y-419469*X400719Y-419656*X402406Y-423406D2*Y-421906D1*X402219Y-421531*X402031Y-421344*X401656Y-421156*X401094*X400719Y-421344*X400531Y-421531*X400344Y-421906*Y-423406*X404281*Y-421156D2*X402406Y-422469D1*X401469Y-400656D2*X401281Y-400281D1*X400906Y-399906*X400344Y-399531*X404281*Y-398407D2*Y-400656D1*X402406Y-404406D2*Y-402906D1*X402219Y-402531*X402031Y-402344*X401656Y-402156*X401094*X400719Y-402344*X400531Y-402531*X400344Y-402906*Y-404406*X404281*Y-402156D2*X402406Y-403469D1*X277687Y-378281D2*X275250D1*X277500Y-376031*X277687Y-375469*Y-375094*X277500Y-374719*X277312Y-374531*X276937Y-374344*X276000*X275625Y-374531*X275437Y-374719*X273750Y-374344D2*Y-377531D1*X273563Y-377906*X273375Y-378094*X273000Y-378281*X272250*X271875Y-378094*X271688Y-377906*X271500Y-377531*Y-374344*X284969Y-487063D2*X284781Y-486688D1*X284406Y-486313*X283844Y-485938*X287781*Y-484813D2*Y-487063D1*X283844Y-488750D2*X287031D1*X287406Y-488937*X287594Y-489125*X287781Y-489500*Y-490250*X287594Y-490625*X287406Y-490812*X287031Y-491000*X283844*X365500Y-513469D2*X365875Y-513281D1*X366250Y-512906*X366624Y-512344*Y-516281*X367749D2*X365500D1*X364187Y-512344D2*X363250Y-516281D1*X362500Y-513469*X361750Y-516281*X360813Y-512344*X359500Y-512531D2*X358938Y-512344D1*X358001*X357626Y-512531*X357438Y-512719*X357251Y-513094*Y-513469*X357438Y-513844*X357626Y-514031*X358001Y-514219*X358750Y-514406*X359125Y-514594*X359313Y-514781*X359500Y-515156*Y-515531*X359313Y-515906*X359125Y-516094*X358750Y-516281*X357813*X357251Y-516094*X398000Y-392000D2*Y-389000D1*X392000Y-380000*X376000*X370000Y-389000*Y-392000*X398000Y-404000D2*Y-416000D1*X370000*Y-404000*X375000Y-526500D2*Y-519500D1*X385000Y-526500D2*Y-519500D1*X375000*Y-526500D2*X385000D1*X410657Y-419031D2*Y-422969D1*X405343D2*Y-419031D1*X410657Y-400031D2*Y-403969D1*X405343D2*Y-400031D1*X285000Y-425000D2*Y-377000D1*X355000*Y-425000*X285000*X292000Y-493000D2*Y-447000D1*X404000*Y-493000*X292000*X355500Y-526500D2*Y-519500D1*X370500*Y-526500*X355500*X1027568Y-753965D2*Y-779556D1*X775599Y-753965D2*Y-765776D1*X983136Y-687739D2*Y-684646D1*X982855Y-684083*X982292Y-683802*X981448*X980886Y-684083*X980605Y-684646*Y-687739D2*Y-684646D1*X980324Y-684083*X979761Y-683802*X978918*X978355Y-684083*X978074Y-684365*Y-687739D2*Y-683802D1*X975262Y-687739D2*Y-684646D1*X974981Y-684083*X974418Y-683802*X973574*X973012Y-684083*X972731Y-684646*Y-687739D2*Y-684646D1*X972450Y-684083*X971887Y-683802*X971044*X970481Y-684083*X970200Y-684365*Y-687739D2*Y-683802D1*X967669Y-687739D2*X964013D1*X967388Y-684365*X967669Y-683521*Y-682959*X967388Y-682396*X967107Y-682115*X966544Y-681834*X965138*X964576Y-682115*X964294Y-682396*X961482Y-688583D2*X961763Y-688302D1*X962045Y-687739*Y-687458*X957264Y-681834D2*X956702Y-682115D1*X956420Y-682396*X956139Y-682959*X955858Y-684083*Y-685490*X956139Y-686614*X956420Y-687177*X956702Y-687458*X957264Y-687739*X957826*X958389Y-687458*X958670Y-687177*X958951Y-686614*X959233Y-685490*Y-684083*X958951Y-682959*X958670Y-682396*X958389Y-682115*X957826Y-681834*X957264*X948828Y-685208D2*X948265Y-685490D1*X946859*X946297Y-685771*X946015Y-686333*Y-686896*X946297Y-687458*X946859Y-687739*X948265*X948828Y-687458*X946297Y-684083D2*X946859Y-683802D1*X947984*X948546Y-684083*X948828Y-684646*Y-687739*X944328Y-683802D2*X943766D1*X943203Y-684083*X942922Y-684365*X942641Y-684927*Y-687739D2*Y-683802D1*X939829Y-685208D2*X939266Y-685490D1*X937860*X937298Y-685771*X937017Y-686333*Y-686896*X937298Y-687458*X937860Y-687739*X939266*X939829Y-687458*X937298Y-684083D2*X937860Y-683802D1*X938985*X939547Y-684083*X939829Y-684646*Y-687739*X931955Y-687458D2*X932517Y-687739D1*X933642*X934204Y-687458*X934486Y-687177*X934767Y-686614*Y-684927*X934486Y-684365*X934204Y-684083*X933642Y-683802*X932517*X931955Y-684083*Y-683802D2*Y-689708D1*X921550Y-687177D2*X921831Y-687458D1*X922393Y-687739*X923799*X924362Y-687458*X924643Y-687177*X924924Y-686614*Y-685208*X924643Y-684646*X924362Y-684365*X923799Y-684083*X922393*X921831Y-684365*X921550Y-684646*X921831Y-681834*X924643*X915925Y-683521D2*X916488Y-683240D1*X917050Y-682677*X917613Y-681834*Y-687739*X919300D2*X915925D1*X913113Y-688583D2*X913394Y-688302D1*X913676Y-687739*Y-687458*X908895Y-681834D2*X908333Y-682115D1*X908051Y-682396*X907770Y-682959*X907489Y-684083*Y-685490*X907770Y-686614*X908051Y-687177*X908333Y-687458*X908895Y-687739*X909457*X910020Y-687458*X910301Y-687177*X910582Y-686614*X910864Y-685490*Y-684083*X910582Y-682959*X910301Y-682396*X910020Y-682115*X909457Y-681834*X908895*X897928Y-685771D2*X900740Y-685208D1*Y-684646*X900459Y-684083*X899896Y-683802*X898771*X898209Y-684083*X897928Y-684646*Y-686896*X898209Y-687458*X898771Y-687739*X899896*X900459Y-687458*X895397Y-684083D2*X894834Y-683802D1*X893709*X893147Y-684083*X892866Y-684365*X892585Y-684927*Y-686614*X892866Y-687177*X893147Y-687458*X893709Y-687739*X894834*X895397Y-687458*Y-687739D2*Y-681834D1*X883867Y-687739D2*X884711D1*X885273Y-687458*X885554Y-687177*X885835Y-686614*Y-684927*X885554Y-684365*X885273Y-684083*X884711Y-683802*X883867*X883304Y-684083*X883023Y-684365*X882742Y-684927*Y-686614*X883023Y-687177*X883304Y-687458*X883867Y-687739*X880211Y-681834D2*X879930Y-682115D1*X879367Y-682396*X878243Y-681834*X877680Y-682115*X877399Y-682396*X880211Y-685208D2*X879649Y-685490D1*X878243*X877680Y-685771*X877399Y-686333*Y-686896*X877680Y-687458*X878243Y-687739*X879649*X880211Y-687458*X877680Y-684083D2*X878243Y-683802D1*X879367*X879930Y-684083*X880211Y-684646*Y-687739*X873181Y-689708D2*X874024D1*X874587Y-689427*X874868Y-688864*X874587Y-688302*X874024Y-688020*X875149Y-684083D2*X874587Y-683802D1*X873462*X872900Y-684083*X872618Y-684365*X872337Y-684927*Y-686614*X872618Y-687177*X872900Y-687458*X873462Y-687739*X874587*X875149Y-687458*X869806Y-685208D2*X869244Y-685490D1*X867838*X867275Y-685771*X866994Y-686333*Y-686896*X867275Y-687458*X867838Y-687739*X869244*X869806Y-687458*X867275Y-684083D2*X867838Y-683802D1*X868963*X869525Y-684083*X869806Y-684646*Y-687739*X864182Y-681834D2*Y-686896D1*X864463Y-687458*X865026Y-687739*X859682D2*X860526D1*X861089Y-687458*X861370Y-687177*X861651Y-686614*Y-684927*X861370Y-684365*X861089Y-684083*X860526Y-683802*X859682*X859120Y-684083*X858839Y-684365*X858558Y-684927*Y-686614*X858839Y-687177*X859120Y-687458*X859682Y-687739*X856027Y-684083D2*X855464Y-683802D1*X854621*X854058Y-684083*X853777Y-684646*Y-684927*X854058Y-685490*X854621Y-685771*X855464*X856027Y-686052*X856308Y-686614*Y-686896*X856027Y-687458*X855464Y-687739*X854339*X853777Y-687458*X851246Y-682396D2*Y-681834D1*X851527Y-682115*X851246Y-682396*X850965Y-682115*X851246Y-681834*Y-687739D2*Y-683802D1*X843934Y-684646D2*Y-684083D1*X843653Y-684365*X843934Y-684646*X844216Y-684365*X843934Y-684083*X843653Y-688583D2*X843934Y-688302D1*X844216Y-687739*Y-687458*X841122Y-684083D2*X840560Y-683802D1*X839716*X839154Y-684083*X838873Y-684646*Y-684927*X839154Y-685490*X839716Y-685771*X840560*X841122Y-686052*X841403Y-686614*Y-686896*X841122Y-687458*X840560Y-687739*X839435*X838873Y-687458*X836342Y-685208D2*X835779Y-685490D1*X834373*X833811Y-685771*X833529Y-686333*Y-686896*X833811Y-687458*X834373Y-687739*X835779*X836342Y-687458*X833811Y-684083D2*X834373Y-683802D1*X835498*X836060Y-684083*X836342Y-684646*Y-687739*X830999Y-682396D2*Y-681834D1*X831280Y-682115*X830999Y-682396*X830717Y-682115*X830999Y-681834*Y-687739D2*Y-683802D1*X828749D2*X827343Y-687739D1*X825937Y-683802*X816657Y-685771D2*X819469Y-685208D1*Y-684646*X819188Y-684083*X818625Y-683802*X817500*X816938Y-684083*X816657Y-684646*Y-686896*X816938Y-687458*X817500Y-687739*X818625*X819188Y-687458*X809626Y-684083D2*X809064Y-683802D1*X808220*X807658Y-684083*X807376Y-684646*Y-684927*X807658Y-685490*X808220Y-685771*X809064*X809626Y-686052*X809907Y-686614*Y-686896*X809626Y-687458*X809064Y-687739*X807939*X807376Y-687458*X804846Y-685208D2*X804283Y-685490D1*X802877*X802315Y-685771*X802033Y-686333*Y-686896*X802315Y-687458*X802877Y-687739*X804283*X804846Y-687458*X802315Y-684083D2*X802877Y-683802D1*X804002*X804564Y-684083*X804846Y-684646*Y-687739*X800346D2*X799784D1*X799221Y-687458*X798940Y-686896*Y-681834*X798096Y-683802D2*X800346D1*X796128Y-684083D2*X795565Y-683802D1*X794722*X794159Y-684083*X793878Y-684646*Y-684927*X794159Y-685490*X794722Y-685771*X795565*X796128Y-686052*X796409Y-686614*Y-686896*X796128Y-687458*X795565Y-687739*X794441*X793878Y-687458*X791347Y-682396D2*Y-681834D1*X791628Y-682115*X791347Y-682396*X791066Y-682115*X791347Y-681834*Y-687739D2*Y-683802D1*X785442Y-684927D2*X787691D1*X788254Y-684646*X788535Y-684365*X788816Y-683802*Y-682959*X788535Y-682396*X788254Y-682115*X787691Y-681834*X785442*Y-687739*X778130Y-684083D2*X777568Y-683802D1*X776724*X776162Y-684083*X775880Y-684646*Y-684927*X776162Y-685490*X776724Y-685771*X777568*X778130Y-686052*X778411Y-686614*Y-686896*X778130Y-687458*X777568Y-687739*X776443*X775880Y-687458*X773349Y-685208D2*X772787Y-685490D1*X771381*X770819Y-685771*X770537Y-686333*Y-686896*X770819Y-687458*X771381Y-687739*X772787*X773349Y-687458*X770819Y-684083D2*X771381Y-683802D1*X772506*X773068Y-684083*X773349Y-684646*Y-687739*X768006Y-684083D2*X767444Y-683802D1*X766319*X765757Y-684083*X765475Y-684365*X765194Y-684927*Y-686614*X765475Y-687177*X765757Y-687458*X766319Y-687739*X767444*X768006Y-687458*Y-687739D2*Y-681834D1*X756477Y-687739D2*X757320D1*X757883Y-687458*X758164Y-687177*X758445Y-686614*Y-684927*X758164Y-684365*X757883Y-684083*X757320Y-683802*X756477*X755914Y-684083*X755633Y-684365*X755352Y-684927*Y-686614*X755633Y-687177*X755914Y-687458*X756477Y-687739*X752821Y-681834D2*X752540Y-682115D1*X751977Y-682396*X750852Y-681834*X750290Y-682115*X750009Y-682396*X752821Y-685208D2*X752258Y-685490D1*X750852*X750290Y-685771*X750009Y-686333*Y-686896*X750290Y-687458*X750852Y-687739*X752258*X752821Y-687458*X750290Y-684083D2*X750852Y-683802D1*X751977*X752540Y-684083*X752821Y-684646*Y-687739*X745790Y-689708D2*X746634D1*X747196Y-689427*X747478Y-688864*X747196Y-688302*X746634Y-688020*X747759Y-684083D2*X747196Y-683802D1*X746072*X745509Y-684083*X745228Y-684365*X744947Y-684927*Y-686614*X745228Y-687177*X745509Y-687458*X746072Y-687739*X747196*X747759Y-687458*X742416Y-685208D2*X741853Y-685490D1*X740447*X739885Y-685771*X739604Y-686333*Y-686896*X739885Y-687458*X740447Y-687739*X741853*X742416Y-687458*X739885Y-684083D2*X740447Y-683802D1*X741572*X742135Y-684083*X742416Y-684646*Y-687739*X737916Y-683802D2*X737354D1*X736792Y-684083*X736510Y-684365*X736229Y-684927*Y-687739D2*Y-683802D1*X730886Y-685771D2*X733698Y-685208D1*Y-684646*X733417Y-684083*X732855Y-683802*X731730*X731167Y-684083*X730886Y-684646*Y-686896*X731167Y-687458*X731730Y-687739*X732855*X733417Y-687458*X729199Y-687739D2*X728636D1*X728074Y-687458*X727793Y-686896*Y-681834*X726949Y-683802D2*X729199D1*X724699Y-681834D2*Y-686896D1*X724981Y-687458*X725543Y-687739*X722731D2*X720762Y-681834D1*X718794Y-687739*X719356Y-686052D2*X722168D1*X707826Y-685490D2*X712326D1*X705296Y-687739D2*X701640D1*X705014Y-684365*X705296Y-683521*Y-682959*X705014Y-682396*X704733Y-682115*X704171Y-681834*X702765*X702202Y-682115*X701921Y-682396*X812157Y-695894D2*X811595Y-695613D1*X810751*X810189Y-695894*X809907Y-696457*Y-696738*X810189Y-697301*X810751Y-697582*X811595*X812157Y-697863*X812438Y-698425*Y-698707*X812157Y-699269*X811595Y-699550*X810470*X809907Y-699269*X805689Y-699550D2*X806533D1*X807095Y-699269*X807376Y-698988*X807658Y-698425*Y-696738*X807376Y-696176*X807095Y-695894*X806533Y-695613*X805689*X805127Y-695894*X804846Y-696176*X804564Y-696738*Y-698425*X804846Y-698988*X805127Y-699269*X805689Y-699550*X802033Y-693645D2*X801752Y-693926D1*X801190Y-694207*X800065Y-693645*X799502Y-693926*X799221Y-694207*X802033Y-697019D2*X801471Y-697301D1*X800065*X799502Y-697582*X799221Y-698144*Y-698707*X799502Y-699269*X800065Y-699550*X801471*X802033Y-699269*X799502Y-695894D2*X800065Y-695613D1*X801190*X801752Y-695894*X802033Y-696457*Y-699550*X795003Y-701519D2*X795847D1*X796409Y-701238*X796690Y-700675*X796409Y-700113*X795847Y-699831*X796972Y-695894D2*X796409Y-695613D1*X795284*X794722Y-695894*X794441Y-696176*X794159Y-696738*Y-698425*X794441Y-698988*X794722Y-699269*X795284Y-699550*X796409*X796972Y-699269*X791628Y-697019D2*X791066Y-697301D1*X789660*X789098Y-697582*X788816Y-698144*Y-698707*X789098Y-699269*X789660Y-699550*X791066*X791628Y-699269*X789098Y-695894D2*X789660Y-695613D1*X790785*X791347Y-695894*X791628Y-696457*Y-699550*X786285Y-695894D2*X785723Y-695613D1*X784598*X784036Y-695894*X783754Y-696176*X783473Y-696738*Y-698425*X783754Y-698988*X784036Y-699269*X784598Y-699550*X785723*X786285Y-699269*X783754Y-701238D2*X784317Y-701519D1*X785161*X785723Y-701238*X786004Y-700956*X786285Y-700394*Y-695613*X780942Y-694207D2*Y-693645D1*X781224Y-693926*X780942Y-694207*X780661Y-693926*X780942Y-693645*Y-699550D2*Y-695613D1*X777849Y-693645D2*Y-698707D1*X778130Y-699269*X778693Y-699550*X770537Y-695894D2*X769975Y-695613D1*X769131*X768569Y-695894*X768288Y-696457*Y-696738*X768569Y-697301*X769131Y-697582*X769975*X770537Y-697863*X770819Y-698425*Y-698707*X770537Y-699269*X769975Y-699550*X768850*X768288Y-699269*X765757Y-697019D2*X765194Y-697301D1*X763788*X763226Y-697582*X762945Y-698144*Y-698707*X763226Y-699269*X763788Y-699550*X765194*X765757Y-699269*X763226Y-695894D2*X763788Y-695613D1*X764913*X765475Y-695894*X765757Y-696457*Y-699550*X760414Y-695894D2*X759851Y-695613D1*X758726*X758164Y-695894*X757883Y-696176*X757601Y-696738*Y-698425*X757883Y-698988*X758164Y-699269*X758726Y-699550*X759851*X760414Y-699269*Y-699550D2*Y-693645D1*X748884Y-699550D2*X749727D1*X750290Y-699269*X750571Y-698988*X750852Y-698425*Y-696738*X750571Y-696176*X750290Y-695894*X749727Y-695613*X748884*X748321Y-695894*X748040Y-696176*X747759Y-696738*Y-698425*X748040Y-698988*X748321Y-699269*X748884Y-699550*X745228Y-693645D2*X744947Y-693926D1*X744384Y-694207*X743259Y-693645*X742697Y-693926*X742416Y-694207*X745228Y-697019D2*X744666Y-697301D1*X743259*X742697Y-697582*X742416Y-698144*Y-698707*X742697Y-699269*X743259Y-699550*X744666*X745228Y-699269*X742697Y-695894D2*X743259Y-695613D1*X744384*X744947Y-695894*X745228Y-696457*Y-699550*X739885Y-695894D2*X739322Y-695613D1*X738479*X737916Y-695894*X737635Y-696457*Y-696738*X737916Y-697301*X738479Y-697582*X739322*X739885Y-697863*X740166Y-698425*Y-698707*X739885Y-699269*X739322Y-699550*X738198*X737635Y-699269*X735104Y-694207D2*Y-693645D1*X735385Y-693926*X735104Y-694207*X734823Y-693926*X735104Y-693645*Y-699550D2*Y-695613D1*X732855D2*X731448Y-699550D1*X730042Y-695613*X725262Y-697582D2*X728074Y-697019D1*Y-696457*X727793Y-695894*X727230Y-695613*X726105*X725543Y-695894*X725262Y-696457*Y-698707*X725543Y-699269*X726105Y-699550*X727230*X727793Y-699269*X719637Y-696738D2*X721887D1*X722450Y-696457*X722731Y-696176*X723012Y-695613*Y-694770*X722731Y-694207*X722450Y-693926*X721887Y-693645*X719637*Y-699550*X723012D2*X721044Y-696738D1*X707826Y-697301D2*X712326D1*X701921Y-695332D2*X702483Y-695051D1*X703046Y-694488*X703608Y-693645*Y-699550*X705296D2*X701921D1*X726668Y-720079D2*Y-719517D1*X726387Y-719798*X726668Y-720079*X726949Y-719798*X726668Y-719517*Y-723172D2*Y-722610D1*X726387Y-722891*X726668Y-723172*X726949Y-722891*X726668Y-722610*X724699Y-723172D2*X724137D1*X723574Y-722891*X723293Y-722329*Y-717267*X722450Y-719235D2*X724699D1*X717950Y-721204D2*X720762Y-720641D1*Y-720079*X720481Y-719517*X719919Y-719235*X718794*X718231Y-719517*X717950Y-720079*Y-722329*X718231Y-722891*X718794Y-723172*X719919*X720481Y-722891*X712888Y-721204D2*X715700Y-720641D1*Y-720079*X715419Y-719517*X714857Y-719235*X713732*X713170Y-719517*X712888Y-720079*Y-722329*X713170Y-722891*X713732Y-723172*X714857*X715419Y-722891*X707826Y-719798D2*X708108Y-719517D1*X708670Y-719235*X709514*X710076Y-719517*X710357Y-720079*Y-723172*X707826D2*Y-717267D1*X705296Y-717548D2*X704452Y-717267D1*X703046*X702483Y-717548*X702202Y-717829*X701921Y-718392*Y-718954*X702202Y-719517*X702483Y-719798*X703046Y-720079*X704171Y-720360*X704733Y-720641*X705014Y-720923*X705296Y-721485*Y-722047*X705014Y-722610*X704733Y-722891*X704171Y-723172*X702765*X701921Y-722891*X696859Y-714595D2*X1122056D1*X878243Y-733521D2*X878805Y-733802D1*X879930*X880492Y-733521*X880774Y-733240*X881055Y-732677*Y-730990*X880774Y-730428*X880492Y-730146*X879930Y-729865*X878805*X878243Y-730146*Y-733802D2*Y-727897D1*X875712Y-730146D2*X875149Y-729865D1*X874024*X873462Y-730146*X873181Y-730428*X872900Y-730990*Y-732677*X873181Y-733240*X873462Y-733521*X874024Y-733802*X875149*X875712Y-733521*X867838D2*X868400Y-733802D1*X869525*X870087Y-733521*X870369Y-733240*X870650Y-732677*Y-730990*X870369Y-730428*X870087Y-730146*X869525Y-729865*X868400*X867838Y-730146*Y-729865D2*Y-735771D1*X861932Y-734365D2*X866432D1*X860526Y-730146D2*X859964Y-729865D1*X858839*X858276Y-730146*X857995Y-730428*X857714Y-730990*Y-732677*X857995Y-733240*X858276Y-733521*X858839Y-733802*X859964*X860526Y-733521*Y-733802D2*Y-727897D1*X855183Y-731271D2*X854621Y-731553D1*X853215*X852652Y-731834*X852371Y-732396*Y-732959*X852652Y-733521*X853215Y-733802*X854621*X855183Y-733521*X852652Y-730146D2*X853215Y-729865D1*X854339*X854902Y-730146*X855183Y-730709*Y-733802*X850121Y-730146D2*X849559Y-729865D1*X848434*X847871Y-730146*X847590Y-730428*X847309Y-730990*Y-732677*X847590Y-733240*X847871Y-733521*X848434Y-733802*X849559*X850121Y-733521*X844778Y-728459D2*Y-727897D1*X845059Y-728178*X844778Y-728459*X844497Y-728178*X844778Y-727897*Y-733802D2*Y-729865D1*X842247D2*X839997Y-732115D1*X840560Y-731553D2*X842247Y-733802D1*X839997D2*Y-727897D1*X837185Y-733802D2*Y-733240D1*X836904Y-733521*X837185Y-733802*X837466Y-733521*X837185Y-733240*X834373Y-727897D2*Y-733802D1*X830999Y-727897*Y-733802*X825937Y-727897D2*X825374Y-728178D1*X824812Y-728740*X824531Y-729865*Y-731834*X824812Y-732959*X825374Y-733521*X825937Y-733802*X827062*X827624Y-733521*X828186Y-732959*X828468Y-731834*Y-729865*X828186Y-728740*X827624Y-728178*X827062Y-727897*X825937*X822000Y-733802D2*Y-727897D1*X818344Y-733802D2*Y-727897D1*X816657D2*X820031D1*X814688D2*Y-732677D1*X814407Y-733240*X814126Y-733521*X813563Y-733802*X812438*X811876Y-733521*X811595Y-733240*X811314Y-732677*Y-727897*X806533D2*Y-733802D1*X809345*X801471Y-727897D2*X800909Y-728178D1*X800346Y-728740*X800065Y-729865*Y-731834*X800346Y-732959*X800909Y-733521*X801471Y-733802*X802596*X803158Y-733521*X803721Y-732959*X804002Y-731834*Y-729865*X803721Y-728740*X803158Y-728178*X802596Y-727897*X801471*X798378D2*X796409Y-733802D1*X794441Y-727897*X792753D2*X789941D1*Y-733802*X792753*X789941Y-730709D2*X791910D1*X784036Y-730990D2*X786285D1*X786848Y-730709*X787129Y-730428*X787410Y-729865*Y-729022*X787129Y-728459*X786848Y-728178*X786285Y-727897*X784036*Y-733802*X787410D2*X785442Y-730990D1*X778130Y-734365D2*X782630D1*X777005Y-728178D2*X776162Y-727897D1*X774756*X774193Y-728178*X773912Y-728459*X773631Y-729022*Y-729584*X773912Y-730146*X774193Y-730428*X774756Y-730709*X775880Y-730990*X776443Y-731271*X776724Y-731553*X777005Y-732115*Y-732677*X776724Y-733240*X776443Y-733521*X775880Y-733802*X774474*X773631Y-733521*X768850Y-727897D2*X768288Y-728178D1*X767725Y-728740*X767444Y-729865*Y-731834*X767725Y-732959*X768288Y-733521*X768850Y-733802*X769975*X770537Y-733521*X771100Y-732959*X771381Y-731834*Y-729865*X771100Y-728740*X770537Y-728178*X769975Y-727897*X768850*X764913Y-733802D2*Y-727897D1*X759008Y-730709D2*X760976D1*X761538Y-730428*X761820Y-730146*X762101Y-729584*Y-729022*X761820Y-728459*X761538Y-728178*X760976Y-727897*X759008*Y-733802*X761257*X761820Y-733521*X762101Y-733240*X762382Y-732677*Y-731834*X762101Y-731271*X761820Y-730990*X760976Y-730709*X753102Y-734365D2*X757601D1*X751696Y-733802D2*Y-727897D1*X749727Y-732115*X747759Y-727897*Y-733802*X745790D2*X743822Y-727897D1*X741853Y-733802*X742416Y-732115D2*X745228D1*X740166Y-727897D2*X737354D1*Y-733802*X740166*X737354Y-730709D2*X739322D1*X731448Y-730990D2*X733698D1*X734261Y-730709*X734542Y-730428*X734823Y-729865*Y-729022*X734542Y-728459*X734261Y-728178*X733698Y-727897*X731448*Y-733802*X734823D2*X732855Y-730990D1*X725543Y-733802D2*X726949D1*X727793Y-733521*X728355Y-732959*X728636Y-732396*X728918Y-731271*Y-730428*X728636Y-729303*X728355Y-728740*X727793Y-728178*X726949Y-727897*X725543*Y-733802*X718231Y-730709D2*Y-730146D1*X717950Y-730428*X718231Y-730709*X718513Y-730428*X718231Y-730146*Y-733802D2*Y-733240D1*X717950Y-733521*X718231Y-733802*X718513Y-733521*X718231Y-733240*X712888Y-731834D2*X715700Y-731271D1*Y-730709*X715419Y-730146*X714857Y-729865*X713732*X713170Y-730146*X712888Y-730709*Y-732959*X713170Y-733521*X713732Y-733802*X714857*X715419Y-733521*X710076Y-727897D2*Y-732959D1*X710357Y-733521*X710920Y-733802*X707264Y-728459D2*Y-727897D1*X707545Y-728178*X707264Y-728459*X706983Y-728178*X707264Y-727897*Y-733802D2*Y-729865D1*X705014Y-727897D2*X702202D1*Y-733802*X704171Y-730709D2*X702202D1*X696859Y-738217D2*X1122056D1*X1063844Y-769741D2*X1064407Y-769460D1*X1064969Y-768898*X1065532Y-768054*Y-773960*X1067219D2*X1063844D1*X1062157Y-767773D2*X1057095Y-775366D1*X1052033Y-769741D2*X1052596Y-769460D1*X1053158Y-768898*X1053721Y-768054*Y-773960*X1055408D2*X1052033D1*X1045003Y-770866D2*Y-770304D1*X1044722Y-770585*X1045003Y-770866*X1045284Y-770585*X1045003Y-770304*Y-773960D2*Y-773397D1*X1044722Y-773679*X1045003Y-773960*X1045284Y-773679*X1045003Y-773397*X1042191Y-770304D2*X1041628Y-770023D1*X1040504*X1039941Y-770304*X1039660Y-770585*X1039379Y-771148*Y-772835*X1039660Y-773397*X1039941Y-773679*X1040504Y-773960*X1041628*X1042191Y-773679*Y-773960D2*Y-768054D1*X1036848Y-773960D2*Y-768054D1*X736229Y-760968D2*X732573D1*X733979Y-756749*X735385Y-758999D2*Y-762936D1*X730886D2*X728918Y-757031D1*X726949Y-762936*X727511Y-761249D2*X730324D1*X720481Y-759843D2*Y-759280D1*X720200Y-759562*X720481Y-759843*X720762Y-759562*X720481Y-759280*Y-762936D2*Y-762374D1*X720200Y-762655*X720481Y-762936*X720762Y-762655*X720481Y-762374*X715138Y-760968D2*X717950Y-760405D1*Y-759843*X717669Y-759280*X717107Y-758999*X715982*X715419Y-759280*X715138Y-759843*Y-762092*X715419Y-762655*X715982Y-762936*X717107*X717669Y-762655*X713170Y-762936D2*X710076D1*X713170Y-758999*X710076*X707826Y-757593D2*Y-757031D1*X708108Y-757312*X707826Y-757593*X707545Y-757312*X707826Y-757031*Y-762936D2*Y-758999D1*X705296Y-757312D2*X704452Y-757031D1*X703046*X702483Y-757312*X702202Y-757593*X701921Y-758155*Y-758718*X702202Y-759280*X702483Y-759562*X703046Y-759843*X704171Y-760124*X704733Y-760405*X705014Y-760686*X705296Y-761249*Y-761811*X705014Y-762374*X704733Y-762655*X704171Y-762936*X702765*X701921Y-762655*X696859Y-753965D2*X1122056D1*X696859Y-765776D2*X1122056D1*X871775Y-759562D2*X872337Y-759843D1*X872618Y-760124*X872900Y-760686*Y-761811*X872618Y-762374*X872337Y-762655*X871775Y-762936*X870650*X870087Y-762655*X869806Y-762374*X869525Y-761811*Y-760686*X869806Y-760124*X870087Y-759843*X870650Y-759562*X871775*X872337Y-759280*X872618Y-758999*X872900Y-758437*Y-758155*X872618Y-757593*X872337Y-757312*X871775Y-757031*X870650*X870087Y-757312*X869806Y-757593*X869525Y-758155*Y-758437*X869806Y-758999*X870087Y-759280*X870650Y-759562*X865307Y-757031D2*X864744Y-757312D1*X864463Y-757593*X864182Y-758155*X863901Y-759280*Y-760686*X864182Y-761811*X864463Y-762374*X864744Y-762655*X865307Y-762936*X865869*X866432Y-762655*X866713Y-762374*X866994Y-761811*X867275Y-760686*Y-759280*X866994Y-758155*X866713Y-757593*X866432Y-757312*X865869Y-757031*X865307*X856870Y-760686D2*X861370D1*X853214Y-759562D2*X853777Y-759843D1*X854058Y-760124*X854339Y-760686*Y-761811*X854058Y-762374*X853777Y-762655*X853214Y-762936*X852090*X851527Y-762655*X851246Y-762374*X850965Y-761811*Y-760686*X851246Y-760124*X851527Y-759843*X852090Y-759562*X853214*X853777Y-759280*X854058Y-758999*X854339Y-758437*Y-758155*X854058Y-757593*X853777Y-757312*X853214Y-757031*X852090*X851527Y-757312*X851246Y-757593*X850965Y-758155*Y-758437*X851246Y-758999*X851527Y-759280*X852090Y-759562*X846747Y-757031D2*X846184Y-757312D1*X845903Y-757593*X845622Y-758155*X845340Y-759280*Y-760686*X845622Y-761811*X845903Y-762374*X846184Y-762655*X846747Y-762936*X847309*X847871Y-762655*X848153Y-762374*X848434Y-761811*X848715Y-760686*Y-759280*X848434Y-758155*X848153Y-757593*X847871Y-757312*X847309Y-757031*X846747*X838310Y-760686D2*X842810D1*X832405Y-760405D2*X832686Y-759843D1*X832967Y-759562*X833529Y-759280*X834654*X835217Y-759562*X835498Y-759843*X835779Y-760405*Y-761811*X835498Y-762374*X835217Y-762655*X834654Y-762936*X833529*X832967Y-762655*X832686Y-762374*X832405Y-761811*Y-759562*X832686Y-758437*X833248Y-757593*X833529Y-757312*X834092Y-757031*X835217*X826780Y-758718D2*X827343Y-758437D1*X827905Y-757874*X828468Y-757031*Y-762936*X830155D2*X826780D1*X822562Y-757031D2*X822000Y-757312D1*X821718Y-757593*X821437Y-758155*X821156Y-759280*Y-760686*X821437Y-761811*X821718Y-762374*X822000Y-762655*X822562Y-762936*X823125*X823687Y-762655*X823968Y-762374*X824249Y-761811*X824531Y-760686*Y-759280*X824249Y-758155*X823968Y-757593*X823687Y-757312*X823125Y-757031*X822562*X818906Y-762936D2*X815251D1*X818625Y-759562*X818906Y-758718*Y-758155*X818625Y-757593*X818344Y-757312*X817781Y-757031*X816375*X815813Y-757312*X815532Y-757593*X808501Y-759843D2*Y-759280D1*X808220Y-759562*X808501Y-759843*X808783Y-759562*X808501Y-759280*Y-762936D2*Y-762374D1*X808220Y-762655*X808501Y-762936*X808783Y-762655*X808501Y-762374*X803158Y-760968D2*X805970Y-760405D1*Y-759843*X805689Y-759280*X805127Y-758999*X804002*X803439Y-759280*X803158Y-759843*Y-762092*X803439Y-762655*X804002Y-762936*X805127*X805689Y-762655*X801471Y-762936D2*X800909D1*X800346Y-762655*X800065Y-762092*Y-757031*X799221Y-758999D2*X801471D1*X797253Y-760405D2*X796690Y-760686D1*X795284*X794722Y-760968*X794441Y-761530*Y-762092*X794722Y-762655*X795284Y-762936*X796690*X797253Y-762655*X794722Y-759280D2*X795284Y-758999D1*X796409*X796972Y-759280*X797253Y-759843*Y-762936*X788816D2*X790222D1*X791066Y-762655*X791628Y-762092*X791910Y-761530*X792191Y-760405*Y-759562*X791910Y-758437*X791628Y-757874*X791066Y-757312*X790222Y-757031*X788816*Y-762936*X1124652Y-730662D2*X1125871D1*X1126602Y-730418*X1127090Y-729931*X1127333Y-729443*X1127577Y-728468*Y-727737*X1127333Y-726762*X1127090Y-726275*X1126602Y-725787*X1125871Y-725544*X1124652*Y-730662*X1127577Y-529181D2*X1127333Y-528937D1*X1126602Y-528693*X1126115*X1125384Y-528937*X1124896Y-529424*X1124652Y-529912*X1124409Y-530887*Y-531618*X1124652Y-532593*X1124896Y-533080*X1125384Y-533568*X1126115Y-533811*X1126602*X1127333Y-533568*X1127577Y-533324*X1124652Y-334280D2*X1126359D1*X1126846Y-334036*X1127090Y-333793*X1127333Y-333305*Y-332818*X1127090Y-332330*X1126846Y-332087*X1126359Y-331843*X1124652*Y-336961*X1126602*X1127090Y-336717*X1127333Y-336474*X1127577Y-335986*Y-335255*X1127333Y-334768*X1127090Y-334524*X1126359Y-334280*X1127699Y-140111D2*X1125993Y-134993D1*X1124287Y-140111*X1124774Y-138648D2*X1127211D1*X1129930Y-629921D2*X1122056D1*X1129930Y-433071D2*X1122056D1*X1129930Y-236220D2*X1122056D1*X41967Y-730662D2*X43185D1*X43916Y-730418*X44404Y-729931*X44648Y-729443*X44891Y-728468*Y-727737*X44648Y-726762*X44404Y-726275*X43916Y-725787*X43185Y-725544*X41967*Y-730662*X44891Y-529181D2*X44648Y-528937D1*X43916Y-528693*X43429*X42698Y-528937*X42210Y-529424*X41967Y-529912*X41723Y-530887*Y-531618*X41967Y-532593*X42210Y-533080*X42698Y-533568*X43429Y-533811*X43916*X44648Y-533568*X44891Y-533324*X41967Y-334280D2*X43673D1*X44160Y-334036*X44404Y-333793*X44648Y-333305*Y-332818*X44404Y-332330*X44160Y-332087*X43673Y-331843*X41967*Y-336961*X43916*X44404Y-336717*X44648Y-336474*X44891Y-335986*Y-335255*X44648Y-334768*X44404Y-334524*X43673Y-334280*X45013Y-140111D2*X43307Y-134993D1*X41601Y-140111*X42089Y-138648D2*X44526D1*X39370Y-629921D2*X47244D1*X39370Y-433071D2*X47244D1*X39370Y-236220D2*X47244D1*X1123022Y-783615D2*X1123266Y-783127D1*X1123510Y-782884*X1123997Y-782640*X1124972*X1125459Y-782884*X1125703Y-783127*X1125947Y-783615*Y-784833*X1125703Y-785321*X1125459Y-785565*X1124972Y-785808*X1123997*X1123510Y-785565*X1123266Y-785321*X1123022Y-784833*Y-782884*X1123266Y-781909*X1123753Y-781178*X1123997Y-780934*X1124484Y-780690*X1125459*X926172Y-785321D2*X926415Y-785565D1*X926903Y-785808*X928121*X928609Y-785565*X928853Y-785321*X929096Y-784833*Y-783615*X928853Y-783127*X928609Y-782884*X928121Y-782640*X926903*X926415Y-782884*X926172Y-783127*X926415Y-780690*X928853*X732490Y-784102D2*X729321D1*X730540Y-780446*X731759Y-782396D2*Y-785808D1*X532227Y-785321D2*X532471Y-785565D1*X532958Y-785808*X534421*X534908Y-785565*X535152Y-785321*X535396Y-784833*Y-783615*X535152Y-783127*X534908Y-782884*X534421Y-782640*X533690*X535396Y-780690*X532227*X338545Y-785808D2*X335377D1*X338301Y-782884*X338545Y-782152*Y-781665*X338301Y-781178*X338058Y-780934*X337570Y-780690*X336352*X335864Y-780934*X335621Y-781178*X138770Y-782152D2*X139258Y-781909D1*X139745Y-781421*X140232Y-780690*Y-785808*X141695D2*X138770D1*X1023622Y-779556D2*Y-787430D1*X826772Y-779556D2*Y-787430D1*X629921Y-779556D2*Y-787430D1*X433071Y-779556D2*Y-787430D1*X236220Y-779556D2*Y-787430D1*X1123022Y-43429D2*X1123266Y-42941D1*X1123510Y-42698*X1123997Y-42454*X1124972*X1125459Y-42698*X1125703Y-42941*X1125947Y-43429*Y-44648*X1125703Y-45135*X1125459Y-45379*X1124972Y-45622*X1123997*X1123510Y-45379*X1123266Y-45135*X1123022Y-44648*Y-42698*X1123266Y-41723*X1123753Y-40992*X1123997Y-40748*X1124484Y-40504*X1125459*X926172Y-45135D2*X926415Y-45379D1*X926903Y-45622*X928121*X928609Y-45379*X928853Y-45135*X929096Y-44648*Y-43429*X928853Y-42941*X928609Y-42698*X928121Y-42454*X926903*X926415Y-42698*X926172Y-42941*X926415Y-40504*X928853*X732490Y-43916D2*X729321D1*X730540Y-40261*X731759Y-42210D2*Y-45622D1*X532227Y-45135D2*X532471Y-45379D1*X532958Y-45622*X534421*X534908Y-45379*X535152Y-45135*X535396Y-44648*Y-43429*X535152Y-42941*X534908Y-42698*X534421Y-42454*X533690*X535396Y-40504*X532227*X338545Y-45622D2*X335377D1*X338301Y-42698*X338545Y-41967*Y-41479*X338301Y-40992*X338058Y-40748*X337570Y-40504*X336352*X335864Y-40748*X335621Y-40992*X138770Y-41967D2*X139258Y-41723D1*X139745Y-41235*X140232Y-40504*Y-45622*X141695D2*X138770D1*X1023622Y-47244D2*Y-39370D1*X826772Y-47244D2*Y-39370D1*X629921Y-47244D2*Y-39370D1*X433071Y-47244D2*Y-39370D1*X236220Y-47244D2*Y-39370D1*X47244Y-47244D2*X1122056D1*Y-779556*X47244*Y-47244*X39370Y-39370D2*X1129930D1*Y-787430*X39370*Y-39370*X696859Y-653572D2*X1122056D1*Y-779556*X696859*Y-653572*D12*X734542Y-705456D2*Y-711361D1*X731167Y-705456*Y-711361*X726105Y-705456D2*X725543Y-705737D1*X724981Y-706299*X724699Y-707424*Y-709393*X724981Y-710518*X725543Y-711080*X726105Y-711361*X727230*X727793Y-711080*X728355Y-710518*X728636Y-709393*Y-707424*X728355Y-706299*X727793Y-705737*X727230Y-705456*X726105*X722450Y-705737D2*X721606Y-705456D1*X720200*X719637Y-705737*X719356Y-706018*X719075Y-706581*Y-707143*X719356Y-707706*X719637Y-707987*X720200Y-708268*X721325Y-708549*X721887Y-708830*X722168Y-709112*X722450Y-709674*Y-710236*X722168Y-710799*X721887Y-711080*X721325Y-711361*X719919*X719075Y-711080*X714576Y-705456D2*Y-711361D1*X717388*X711763D2*Y-705456D1*X709795Y-711361D2*X707826Y-705456D1*X705858Y-711361*X706420Y-709674D2*X709233D1*X701640Y-711361D2*X702202D1*X703046Y-711080*X703608Y-710518*X703889Y-709674*Y-705456*X1052315Y-759843D2*Y-759280D1*X1052033Y-759562*X1052315Y-759843*X1052596Y-759562*X1052315Y-759280*Y-762936D2*Y-762374D1*X1052033Y-762655*X1052315Y-762936*X1052596Y-762655*X1052315Y-762374*X1050065Y-758999D2*X1048659Y-762936D1*X1047253Y-758999*X1042472Y-760968D2*X1045284Y-760405D1*Y-759843*X1045003Y-759280*X1044441Y-758999*X1043316*X1042753Y-759280*X1042472Y-759843*Y-762092*X1042753Y-762655*X1043316Y-762936*X1044441*X1045003Y-762655*X1036848Y-760124D2*X1039098D1*X1039660Y-759843*X1039941Y-759562*X1040222Y-758999*Y-758155*X1039941Y-757593*X1039660Y-757312*X1039098Y-757031*X1036848*Y-762936*X1040222D2*X1038254Y-760124D1*D13*X883679Y-740992D2*X882695Y-748866D1*X879180Y-740992*X878196Y-748866*X872431Y-740992D2*X871634Y-741367D1*X870790Y-742117*X870228Y-743617*X869900Y-746241*X870087Y-747741*X870744Y-748491*X871447Y-748866*X872946*X873743Y-748491*X874587Y-747741*X875149Y-746241*X875477Y-743617*X875290Y-742117*X874634Y-741367*X873931Y-740992*X872431*X866197Y-748866D2*X867182Y-740992D1*X861323Y-748866D2*X862307Y-740992D1*X860057D2*X864557D1*X857433D2*X856636Y-747366D1*X856167Y-748116*X855745Y-748491*X854949Y-748866*X853449*X852746Y-748491*X852418Y-748116*X852137Y-747366*X852933Y-740992*X846559D2*X845575Y-748866D1*X849324*X839810Y-740992D2*X839013Y-741367D1*X838170Y-742117*X837607Y-743617*X837279Y-746241*X837466Y-747741*X838123Y-748491*X838826Y-748866*X840326*X841122Y-748491*X841966Y-747741*X842528Y-746241*X842856Y-743617*X842669Y-742117*X842013Y-741367*X841310Y-740992*X839810*X835685D2*X832077Y-748866D1*X830436Y-740992*X828186D2*X824437D1*X823453Y-748866*X827202*X823968Y-744741D2*X826593D1*X816047Y-745116D2*X819047D1*X819844Y-744741*X820266Y-744367*X820734Y-743617*X820875Y-742492*X820594Y-741742*X820266Y-741367*X819562Y-740992*X816563*X815579Y-748866*X820078D2*X817922Y-745116D1*X807142Y-741367D2*X806064Y-740992D1*X804189*X803393Y-741367*X802971Y-741742*X802502Y-742492*X802408Y-743242*X802690Y-743992*X803018Y-744367*X803721Y-744741*X805174Y-745116*X805877Y-745491*X806205Y-745866*X806486Y-746616*X806392Y-747366*X805924Y-748116*X805502Y-748491*X804705Y-748866*X802830*X801752Y-748491*X796315Y-740992D2*X795519Y-741367D1*X794675Y-742117*X794113Y-743617*X793784Y-746241*X793972Y-747741*X794628Y-748491*X795331Y-748866*X796831*X797628Y-748491*X798471Y-747741*X799034Y-746241*X799362Y-743617*X799174Y-742117*X798518Y-741367*X797815Y-740992*X796315*X790082Y-748866D2*X791066Y-740992D1*X782723Y-744741D2*X785348D1*X786145Y-744367*X786567Y-743992*X787035Y-743242*X787129Y-742492*X786848Y-741742*X786520Y-741367*X785817Y-740992*X783192*X782208Y-748866*X785207*X786004Y-748491*X786426Y-748116*X786895Y-747366*X787035Y-746241*X786754Y-745491*X786426Y-745116*X785348Y-744741*X772459Y-748866D2*X773443Y-740992D1*X770116Y-746616*X768194Y-740992*X767210Y-748866*X764585D2*X762945Y-740992D1*X759336Y-748866*X760367Y-746616D2*X764116D1*X758070Y-740992D2*X754321D1*X753336Y-748866*X757086*X753852Y-744741D2*X756477D1*X745931Y-745116D2*X748931D1*X749727Y-744741*X750149Y-744367*X750618Y-743617*X750759Y-742492*X750477Y-741742*X750149Y-741367*X749446Y-740992*X746447*X745462Y-748866*X749962D2*X747806Y-745116D1*X737588Y-748866D2*X739463D1*X740635Y-748491*X741478Y-747741*X741947Y-746991*X742510Y-745491*X742650Y-744367*X742463Y-742867*X742182Y-742117*X741525Y-741367*X740447Y-740992*X738573*X737588Y-748866*X728355Y-744741D2*X728449Y-743992D1*X728027Y-744367*X728355Y-744741*X728777Y-744367*X728449Y-743992*X727840Y-748866D2*X727933Y-748116D1*X727511Y-748491*X727840Y-748866*X728261Y-748491*X727933Y-748116*X721044Y-746241D2*X724887Y-745491D1*X724981Y-744741*X724699Y-743992*X723996Y-743617*X722496*X721700Y-743992*X721231Y-744741*X720856Y-747741*X721137Y-748491*X721840Y-748866*X723340*X724137Y-748491*X717950Y-740992D2*X717107Y-747741D1*X717388Y-748491*X718091Y-748866*X714341D2*X713591D1*X712888Y-748491*X712607Y-747741*X713451Y-740992*X711998Y-743617D2*X714997D1*X709607Y-741742D2*X709701Y-740992D1*X710029Y-741367*X709607Y-741742*X709279Y-741367*X709701Y-740992*X708717Y-748866D2*X709373Y-743617D1*X703843Y-748866D2*X704827Y-740992D1*X702577D2*X707077D1*D122*X343684Y-524344D2*X343309Y-524156D1*X342747*X342372Y-524344*X342184Y-524719*Y-524906*X342372Y-525281*X342747Y-525469*X343309*X343684Y-525656*X343872Y-526031*Y-526219*X343684Y-526594*X343309Y-526781*X342559*X342184Y-526594*X340685Y-524156D2*X339185Y-525656D1*X339560Y-525281D2*X340685Y-526781D1*X339185D2*Y-522844D1*X337498Y-524344D2*X337123Y-524156D1*X336373*X335998Y-524344*X335810Y-524531*X335623Y-524906*Y-526031*X335810Y-526406*X335998Y-526594*X336373Y-526781*X337123*X337498Y-526594*X333936Y-525094D2*X333561Y-525281D1*X332623*X332248Y-525469*X332061Y-525844*Y-526219*X332248Y-526594*X332623Y-526781*X333561*X333936Y-526594*X332248Y-524344D2*X332623Y-524156D1*X333373*X333748Y-524344*X333936Y-524719*Y-526781*X330936Y-524156D2*X330561D1*X330186Y-524344*X329999Y-524531*X329811Y-524906*Y-526781D2*Y-524156D1*X328499Y-526781D2*X328124D1*X327749Y-526594*X327561Y-526219*Y-522844*X326999Y-524156D2*X328499D1*X323999Y-525469D2*X325874Y-525094D1*Y-524719*X325687Y-524344*X325312Y-524156*X324562*X324187Y-524344*X323999Y-524719*Y-526219*X324187Y-526594*X324562Y-526781*X325312*X325687Y-526594*X322312Y-526781D2*Y-524719D1*X322124Y-524344*X321750Y-524156*X321187*X320812Y-524344*X320625Y-524719*Y-526781D2*Y-524719D1*X320437Y-524344*X320062Y-524156*X319500*X319125Y-524344*X318937Y-524531*Y-526781D2*Y-524156D1*X317063Y-525094D2*X316688Y-525281D1*X315750*X315375Y-525469*X315188Y-525844*Y-526219*X315375Y-526594*X315750Y-526781*X316688*X317063Y-526594*X315375Y-524344D2*X315750Y-524156D1*X316500*X316875Y-524344*X317063Y-524719*Y-526781*X312938Y-525094D2*X313688D1*Y-526406*X313501Y-526594*X312938Y-526781*X312563*X312001Y-526594*X311626Y-526219*X311438Y-525844*X311251Y-525094*Y-524531*X311438Y-523781*X311626Y-523406*X312001Y-523031*X312563Y-522844*X313126*X313501Y-523031*X306564Y-525281D2*X309564D1*X303002Y-524156D2*X305064Y-526781D1*X303002D2*X305064Y-524156D1*X301502Y-523219D2*Y-522844D1*X301690Y-523031*X301502Y-523219*X301315Y-523031*X301502Y-522844*Y-526781D2*Y-524156D1*X300190Y-522844D2*X299815D1*X299440Y-523031*X299252Y-523406*Y-526781*X298690Y-524156D2*X300190D1*X297565Y-524344D2*X297190Y-524156D1*X296440*X296065Y-524344*X295878Y-524531*X295690Y-524906*Y-526031*X295878Y-526406*X296065Y-526594*X296440Y-526781*X297190*X297565Y-526594*X294003Y-524344D2*X293628Y-524156D1*X292878*X292503Y-524344*X292316Y-524531*X292128Y-524906*Y-526031*X292316Y-526406*X292503Y-526594*X292878Y-526781*X293628*X294003Y-526594*Y-526781D2*Y-522844D1*D123*X354277Y-427844D2*Y-431781D1*X352027Y-427844*Y-431781*X348652Y-427844D2*X348277Y-428031D1*X347903Y-428406*X347715Y-429156*Y-430469*X347903Y-431219*X348277Y-431594*X348652Y-431781*X349402*X349777Y-431594*X350152Y-431219*X350340Y-430469*Y-429156*X350152Y-428406*X349777Y-428031*X349402Y-427844*X348652*X346028Y-431781D2*Y-427844D1*X343591Y-431781D2*Y-427844D1*X342466D2*X344715D1*X341153D2*Y-431031D1*X340966Y-431406*X340778Y-431594*X340403Y-431781*X339654*X339279Y-431594*X339091Y-431406*X338904Y-431031*Y-427844*X335717D2*Y-431781D1*X337591*X332342Y-427844D2*X331967Y-428031D1*X331592Y-428406*X331405Y-429156*Y-430469*X331592Y-431219*X331967Y-431594*X332342Y-431781*X333092*X333467Y-431594*X333842Y-431219*X334029Y-430469*Y-429156*X333842Y-428406*X333467Y-428031*X333092Y-427844*X332342*X330280D2*X328967Y-431781D1*X327655Y-427844*X326530D2*X324655D1*Y-431781*X326530*X324655Y-429719D2*X325968D1*X320718Y-429906D2*X322218D1*X322593Y-429719*X322781Y-429531*X322968Y-429156*Y-428594*X322781Y-428219*X322593Y-428031*X322218Y-427844*X320718*Y-431781*X322968D2*X321656Y-429906D1*X316781Y-432156D2*X319781D1*X316031Y-428031D2*X315469Y-427844D1*X314532*X314157Y-428031*X313969Y-428219*X313782Y-428594*Y-428969*X313969Y-429344*X314157Y-429531*X314532Y-429719*X315282Y-429906*X315657Y-430094*X315844Y-430281*X316031Y-430656*Y-431031*X315844Y-431406*X315657Y-431594*X315282Y-431781*X314344*X313782Y-431594*X310595Y-427844D2*X310220Y-428031D1*X309845Y-428406*X309657Y-429156*Y-430469*X309845Y-431219*X310220Y-431594*X310595Y-431781*X311345*X311720Y-431594*X312094Y-431219*X312282Y-430469*Y-429156*X312094Y-428406*X311720Y-428031*X311345Y-427844*X310595*X307970Y-431781D2*Y-427844D1*X304033Y-429719D2*X305345D1*X305720Y-429531*X305908Y-429344*X306095Y-428969*Y-428594*X305908Y-428219*X305720Y-428031*X305345Y-427844*X304033*Y-431781*X305533*X305908Y-431594*X306095Y-431406*X306283Y-431031*Y-430469*X306095Y-430094*X305908Y-429906*X305345Y-429719*X300096Y-432156D2*X303096D1*X299159Y-431781D2*Y-427844D1*X297846Y-430656*X296534Y-427844*Y-431781*X295222D2*X293909Y-427844D1*X292597Y-431781*X292972Y-430656D2*X294847D1*X291472Y-427844D2*X289597D1*Y-431781*X291472*X289597Y-429719D2*X290910D1*X285660Y-429906D2*X287160D1*X287535Y-429719*X287723Y-429531*X287910Y-429156*Y-428594*X287723Y-428219*X287535Y-428031*X287160Y-427844*X285660*Y-431781*X287910D2*X286598Y-429906D1*X281723Y-431781D2*X282661D1*X283223Y-431594*X283598Y-431219*X283786Y-430844*X283973Y-430094*Y-429531*X283786Y-428781*X283598Y-428406*X283223Y-428031*X282661Y-427844*X281723*Y-431781*D124*X285074Y-515615D2*Y-514103D1*X284230Y-513946D2*X284229D1*X283262Y-516205D2*X283269D1*X283277*X283155Y-516208D2*X283157D1*X282691Y-516047D2*X283104D1*X282537Y-515886D2*X282996D1*X282451Y-515725D2*X282929D1*X282407Y-515563D2*X282896D1*X285054D2*X285074D1*X282395Y-515402D2*X282892D1*X284978D2*X285074D1*X282401Y-515241D2*X282916D1*X284881D2*X285074D1*X282426Y-515080D2*X282973D1*X284758D2*X285074D1*X282470Y-514918D2*X283068D1*X284601D2*X285074D1*X282536Y-514757D2*X283222D1*X284395D2*X285074D1*X282627Y-514596D2*X283515D1*X284084D2*X285074D1*X282750Y-514435D2*X285074D1*X282918Y-514274D2*X285074D1*X283163Y-514112D2*X285074D1*X284079Y-513951D2*X284381D1*X284229Y-512127D2*X284235D1*X285074Y-512213D2*Y-510337D1*X283140Y-519810D2*X283141D1*X285074Y-519214D2*Y-516863D1*X283135Y-519810D2*X283146D1*X282084Y-519649D2*X284181D1*X281596Y-519487D2*X284594D1*X281230Y-519326D2*X284899D1*X280928Y-519165D2*X285074D1*X280670Y-519004D2*X285074D1*X280444Y-518842D2*X285074D1*X280242Y-518681D2*X285074D1*X280060Y-518520D2*X285074D1*X279896Y-518359D2*X285074D1*X279746Y-518198D2*X285074D1*X279609Y-518036D2*X285074D1*X279484Y-517875D2*X282287D1*X284124D2*X285074D1*X279369Y-517714D2*X281927D1*X284412D2*X285074D1*X279264Y-517553D2*X281669D1*X284613D2*X285074D1*X279168Y-517391D2*X281464D1*X284766D2*X285074D1*X279079Y-517230D2*X281295D1*X284887D2*X285074D1*X278999Y-517069D2*X281153D1*X284982D2*X285074D1*X278926Y-516908D2*X281033D1*X285057D2*X285074D1*X278860Y-516747D2*X280931D1*X278800Y-516585D2*X280844D1*X278747Y-516424D2*X280772D1*X278700Y-516263D2*X280712D1*X278660Y-516102D2*X280664D1*X278625Y-515941D2*X280627D1*X278604Y-515779D2*X280601D1*X278600Y-515618D2*X280585D1*X278601Y-515457D2*X280577D1*X278607Y-515296D2*X280577D1*X278618Y-515134D2*X280585D1*X278634Y-514973D2*X280601D1*X278655Y-514812D2*X280625D1*X278680Y-514651D2*X280658D1*X278711Y-514490D2*X280699D1*X278747Y-514328D2*X280750D1*X278788Y-514167D2*X280809D1*X278835Y-514006D2*X280879D1*X278887Y-513845D2*X280960D1*X278945Y-513683D2*X281052D1*X279009Y-513522D2*X281158D1*X279079Y-513361D2*X281278D1*X279155Y-513200D2*X281414D1*X279239Y-513039D2*X281571D1*X279329Y-512877D2*X281752D1*X279427Y-512716D2*X281964D1*X279532Y-512555D2*X282220D1*X279647Y-512394D2*X282546D1*X279771Y-512232D2*X283024D1*X279904Y-512071D2*X285074D1*X280050Y-511910D2*X285074D1*X280207Y-511749D2*X285074D1*X280379Y-511588D2*X285074D1*X280567Y-511426D2*X285074D1*X280775Y-511265D2*X285074D1*X281005Y-511104D2*X285074D1*X281265Y-510943D2*X285074D1*X281564Y-510781D2*X285074D1*X281918Y-510620D2*X285074D1*X282365Y-510459D2*X285074D1*X283029Y-510298D2*X284859D1*X284087Y-508399D2*X284103D1*X285074Y-508490D2*Y-506687D1*X283149Y-523386D2*X283152D1*X283231Y-523385D2*X283246D1*X283351Y-523386D2*X283352D1*X285074Y-523171D2*Y-521261D1*X283144Y-521629D2*X283140D1*X283343Y-523386D2*X283360D1*X281528Y-523225D2*X284846D1*X280866Y-523064D2*X285074D1*X280366Y-522903D2*X285074D1*X279951Y-522741D2*X285074D1*X279592Y-522580D2*X285074D1*X279272Y-522419D2*X285074D1*X278983Y-522258D2*X285074D1*X278719Y-522096D2*X285074D1*X278475Y-521935D2*X285074D1*X278248Y-521774D2*X285074D1*X278037Y-521613D2*X282786D1*X283553D2*X285074D1*X277839Y-521452D2*X281793D1*X284497D2*X285074D1*X277653Y-521290D2*X281234D1*X284999D2*X285074D1*X277477Y-521129D2*X280804D1*X277311Y-520968D2*X280446D1*X277154Y-520807D2*X280136D1*X277006Y-520645D2*X279861D1*X276865Y-520484D2*X279612D1*X276731Y-520323D2*X279386D1*X276604Y-520162D2*X279178D1*X276483Y-520001D2*X278986D1*X276368Y-519839D2*X278808D1*X276259Y-519678D2*X278642D1*X276155Y-519517D2*X278487D1*X276056Y-519356D2*X278342D1*X275963Y-519194D2*X278207D1*X275874Y-519033D2*X278079D1*X275790Y-518872D2*X277960D1*X275710Y-518711D2*X277848D1*X275634Y-518550D2*X277742D1*X275563Y-518388D2*X277643D1*X275496Y-518227D2*X277551D1*X275432Y-518066D2*X277464D1*X275373Y-517905D2*X277383D1*X275317Y-517743D2*X277307D1*X275265Y-517582D2*X277236D1*X275217Y-517421D2*X277170D1*X275172Y-517260D2*X277110D1*X275131Y-517099D2*X277054D1*X275093Y-516937D2*X277002D1*X275058Y-516776D2*X276955D1*X275027Y-516615D2*X276913D1*X274999Y-516454D2*X276874D1*X274975Y-516292D2*X276840D1*X274954Y-516131D2*X276810D1*X274935Y-515970D2*X276792D1*X274921Y-515809D2*X276785D1*X274909Y-515648D2*X276781D1*X274900Y-515486D2*X276782D1*X274895Y-515325D2*X276785D1*X274893Y-515164D2*X276793D1*X274893Y-515003D2*X276804D1*X274898Y-514841D2*X276819D1*X274913Y-514680D2*X276837D1*X274931Y-514519D2*X276859D1*X274952Y-514358D2*X276885D1*X274975Y-514197D2*X276915D1*X275002Y-514035D2*X276948D1*X275032Y-513874D2*X276986D1*X275064Y-513713D2*X277027D1*X275100Y-513552D2*X277072D1*X275139Y-513391D2*X277122D1*X275181Y-513229D2*X277175D1*X275227Y-513068D2*X277233D1*X275275Y-512907D2*X277296D1*X275327Y-512746D2*X277362D1*X275382Y-512584D2*X277434D1*X275441Y-512423D2*X277510D1*X275503Y-512262D2*X277592D1*X275569Y-512101D2*X277678D1*X275639Y-511940D2*X277770D1*X275712Y-511778D2*X277868D1*X275789Y-511617D2*X277971D1*X275870Y-511456D2*X278081D1*X275956Y-511295D2*X278197D1*X276045Y-511133D2*X278321D1*X276139Y-510972D2*X278452D1*X276238Y-510811D2*X278590D1*X276341Y-510650D2*X278738D1*X276449Y-510489D2*X278895D1*X276562Y-510327D2*X279062D1*X276681Y-510166D2*X279241D1*X276806Y-510005D2*X279432D1*X276936Y-509844D2*X279638D1*X277073Y-509682D2*X279861D1*X277216Y-509521D2*X280103D1*X277367Y-509360D2*X280369D1*X277525Y-509199D2*X280664D1*X277691Y-509038D2*X280996D1*X277867Y-508876D2*X281381D1*X278052Y-508715D2*X281847D1*X278248Y-508554D2*X282469D1*X278677Y-508231D2*X285074D1*X278913Y-508070D2*X285074D1*X279166Y-507909D2*X285074D1*X279440Y-507748D2*X285074D1*X279738Y-507587D2*X285074D1*X280067Y-507425D2*X285074D1*X280434Y-507264D2*X285074D1*X280853Y-507103D2*X285074D1*X281352Y-506942D2*X285074D1*X281992Y-506780D2*X285074D1*X283056Y-506619D2*X284456D1*X283609Y-504767D2*X283619D1*X285074Y-504853D2*Y-503396D1*X271979*Y-526398*X285074*Y-525036*X283354Y-525205D2*X283351D1*X271979Y-526398D2*X285074D1*X271979Y-526236D2*X285074D1*X271979Y-526075D2*X285074D1*X271979Y-525914D2*X285074D1*X271979Y-525753D2*X285074D1*X271979Y-525592D2*X285074D1*X271979Y-525430D2*X285074D1*X271979Y-525269D2*X285074D1*X271979Y-525108D2*X281757D1*X284660D2*X285074D1*X271979Y-524947D2*X280884D1*X271979Y-524785D2*X280273D1*X271979Y-524624D2*X279779D1*X271979Y-524463D2*X279355D1*X271979Y-524302D2*X278981D1*X271979Y-524141D2*X278643D1*X271979Y-523979D2*X278334D1*X271979Y-523818D2*X278049D1*X271979Y-523657D2*X277783D1*X271979Y-523496D2*X277535D1*X271979Y-523334D2*X277302D1*X271979Y-523173D2*X277082D1*X271979Y-523012D2*X276874D1*X271979Y-522851D2*X276677D1*X271979Y-522690D2*X276489D1*X271979Y-522528D2*X276310D1*X271979Y-522367D2*X276140D1*X271979Y-522206D2*X275977D1*X271979Y-522045D2*X275822D1*X271979Y-521884D2*X275673D1*X271979Y-521722D2*X275530D1*X271979Y-521561D2*X275394D1*X271979Y-521400D2*X275263D1*X271979Y-521239D2*X275137D1*X271979Y-521077D2*X275017D1*X271979Y-520916D2*X274901D1*X271979Y-520755D2*X274791D1*X271979Y-520594D2*X274684D1*X271979Y-520433D2*X274582D1*X271979Y-520271D2*X274485D1*X271979Y-520110D2*X274391D1*X271979Y-519949D2*X274301D1*X271979Y-519788D2*X274215D1*X271979Y-519626D2*X274133D1*X271979Y-519465D2*X274054D1*X271979Y-519304D2*X273979D1*X271979Y-519143D2*X273908D1*X271979Y-518982D2*X273839D1*X271979Y-518820D2*X273774D1*X271979Y-518659D2*X273712D1*X271979Y-518498D2*X273653D1*X271979Y-518337D2*X273598D1*X271979Y-518175D2*X273545D1*X271979Y-518014D2*X273496D1*X271979Y-517853D2*X273449D1*X271979Y-517692D2*X273405D1*X271979Y-517531D2*X273364D1*X271979Y-517369D2*X273326D1*X271979Y-517208D2*X273290D1*X271979Y-517047D2*X273258D1*X271979Y-516886D2*X273228D1*X271979Y-516724D2*X273201D1*X271979Y-516563D2*X273176D1*X271979Y-516402D2*X273154D1*X271979Y-516241D2*X273135D1*X271979Y-516080D2*X273119D1*X271979Y-515918D2*X273105D1*X271979Y-515757D2*X273093D1*X271979Y-515596D2*X273084D1*X271979Y-515435D2*X273078D1*X271979Y-515273D2*X273075D1*X271979Y-515112D2*X273074D1*X271979Y-514951D2*X273075D1*X271979Y-514790D2*X273079D1*X271979Y-514629D2*X273091D1*X271979Y-514467D2*X273107D1*X271979Y-514306D2*X273125D1*X271979Y-514145D2*X273145D1*X271979Y-513984D2*X273168D1*X271979Y-513822D2*X273193D1*X271979Y-513661D2*X273221D1*X271979Y-513500D2*X273251D1*X271979Y-513339D2*X273284D1*X271979Y-513178D2*X273320D1*X271979Y-513016D2*X273358D1*X271979Y-512855D2*X273399D1*X271979Y-512694D2*X273442D1*X271979Y-512533D2*X273488D1*X271979Y-512371D2*X273537D1*X271979Y-512210D2*X273588D1*X271979Y-512049D2*X273643D1*X271979Y-511888D2*X273700D1*X271979Y-511727D2*X273760D1*X271979Y-511565D2*X273823D1*X271979Y-511404D2*X273889D1*X271979Y-511243D2*X273958D1*X271979Y-511082D2*X274030D1*X271979Y-510921D2*X274106D1*X271979Y-510759D2*X274184D1*X271979Y-510598D2*X274266D1*X271979Y-510437D2*X274352D1*X271979Y-510276D2*X274441D1*X271979Y-510114D2*X274533D1*X271979Y-509953D2*X274630D1*X271979Y-509792D2*X274730D1*X271979Y-509631D2*X274834D1*X271979Y-509470D2*X274942D1*X271979Y-509308D2*X275055D1*X271979Y-509147D2*X275172D1*X271979Y-508986D2*X275294D1*X271979Y-508825D2*X275420D1*X271979Y-508663D2*X275552D1*X271979Y-508502D2*X275689D1*X271979Y-508341D2*X275831D1*X271979Y-508180D2*X275979D1*X271979Y-508019D2*X276134D1*X271979Y-507857D2*X276295D1*X271979Y-507696D2*X276463D1*X271979Y-507535D2*X276638D1*X271979Y-507374D2*X276822D1*X271979Y-507212D2*X277014D1*X271979Y-507051D2*X277216D1*X271979Y-506890D2*X277428D1*X271979Y-506729D2*X277651D1*X271979Y-506568D2*X277888D1*X271979Y-506406D2*X278138D1*X271979Y-506245D2*X278405D1*X271979Y-506084D2*X278690D1*X271979Y-505923D2*X278997D1*X271979Y-505761D2*X279331D1*X271979Y-505600D2*X279698D1*X271979Y-505439D2*X280107D1*X271979Y-505278D2*X280574D1*X271979Y-505117D2*X281128D1*X271979Y-504955D2*X281841D1*X271979Y-504794D2*X283056D1*X284439D2*X285074D1*X271979Y-504633D2*X285074D1*X271979Y-504472D2*X285074D1*X271979Y-504310D2*X285074D1*X271979Y-504149D2*X285074D1*X271979Y-503988D2*X285074D1*X271979Y-503827D2*X285074D1*X271979Y-503666D2*X285074D1*X271979Y-503504D2*X285074D1*X273074Y-515129D2*X273112Y-516007D1*X273227Y-516879*X273417Y-517737*X273681Y-518575*X274018Y-519387*X274423Y-520167*X274896Y-520908*X275431Y-521605*X276025Y-522254*X276673Y-522847*X278111Y-523855*X278891Y-524261*X279703Y-524597*X280541Y-524861*X281399Y-525051*X282271Y-525166*X283149Y-525205*X283227Y-525204*X283351Y-525205*X283354D2*X284218Y-525163D1*X285074Y-525036*Y-504853D2*X283619Y-504767D1*X283609D2*X283584D1*X282654Y-504832*X281733Y-504977*X280827Y-505200*X279944Y-505501*X279090Y-505876*X278272Y-506324*X277495Y-506841*X276766Y-507422*X276089Y-508064*X275471Y-508762*X274914Y-509511*X274424Y-510305*X274005Y-511138*X273659Y-512004*X273388Y-512896*X273196Y-513809*X273082Y-514735*X273080Y-514778*X273074Y-515129*X276805Y-516100D2*X276930Y-516682D1*X277106Y-517250*X277333Y-517800*X277608Y-518328*X277929Y-518829*X278294Y-519299*X278699Y-519735*X279142Y-520132*X279619Y-520489*X280126Y-520801*X280658Y-521066*X281212Y-521283*X281784Y-521449*X282368Y-521564*X282960Y-521625*X282990Y-521627*X283140Y-521629*X283144D2*X283637Y-521605D1*X284126Y-521536*X284607Y-521421*X285074Y-521261*X283352Y-523386D2*X283931Y-523362D1*X284507Y-523290*X285074Y-523171*X283246Y-523385D2*X283351Y-523386D1*X283152D2*X283231Y-523385D1*X274892Y-515129D2*X274924Y-515849D1*X275018Y-516563*X275174Y-517266*X275390Y-517953*X275666Y-518619*X275999Y-519257*X276386Y-519865*X276824Y-520436*X277311Y-520967*X277842Y-521454*X278413Y-521892*X279021Y-522279*X279660Y-522612*X280325Y-522888*X281012Y-523104*X281715Y-523260*X282429Y-523354*X283149Y-523386*X274897Y-514861D2*X274892Y-515129D1*X283622Y-506586D2*X282849Y-506640D1*X282084Y-506761*X281333Y-506947*X280600Y-507197*X279891Y-507509*X279212Y-507881*X278567Y-508310*X277962Y-508793*X277400Y-509325*X276886Y-509905*X276424Y-510526*X276016Y-511184*X275667Y-511876*X275379Y-512594*X275153Y-513335*X274992Y-514092*X274897Y-514861*X285074Y-506687D2*X284350Y-506611D1*X283622Y-506586*X285074Y-508490D2*X284103Y-508399D1*X284087D2*X283959Y-508397D1*X283344Y-508424*X282734Y-508503*X282132Y-508634*X281544Y-508816*X280974Y-509048*X280425Y-509328*X279903Y-509654*X279410Y-510023*X278951Y-510433*X278529Y-510881*X278146Y-511364*X277807Y-511878*X277513Y-512418*X277266Y-512982*X277068Y-513566*X276921Y-514163*X276826Y-514772*X276784Y-515386*X276794Y-516002*X276805Y-516100*X283141Y-519810D2*X283434Y-519797D1*X283724Y-519760*X284011Y-519698*X284291Y-519611*X284563Y-519501*X284825Y-519369*X285074Y-519214*X283053Y-519809D2*X283140Y-519810D1*X278607Y-515845D2*X278700Y-516262D1*X278831Y-516670*X278997Y-517064*X279197Y-517443*X279430Y-517801*X279694Y-518138*X279987Y-518450*X280307Y-518735*X280650Y-518990*X281015Y-519214*X281398Y-519405*X281797Y-519561*X282208Y-519680*X282627Y-519763*X283053Y-519809*X278600Y-515576D2*X278607Y-515845D1*X283959Y-510216D2*X283492Y-510237D1*X283029Y-510298*X282572Y-510399*X282126Y-510540*X281694Y-510718*X281280Y-510934*X280885Y-511186*X280514Y-511470*X280170Y-511786*X279854Y-512131*X279569Y-512502*X279318Y-512896*X279102Y-513311*X278923Y-513743*X278783Y-514189*X278681Y-514645*X278620Y-515109*X278600Y-515576*X284046Y-510217D2*X283959Y-510216D1*X285074Y-510337D2*X284562Y-510256D1*X284046Y-510217*X285074Y-512213D2*X284657Y-512149D1*X284235Y-512127*X284229D2*X283951Y-512137D1*X283817Y-512134*X283534Y-512146*X283252Y-512184*X282975Y-512245*X282705Y-512331*X282442Y-512440*X282191Y-512572*X281952Y-512725*X281727Y-512898*X281518Y-513090*X281327Y-513300*X281155Y-513526*X281003Y-513766*X280873Y-514019*X280766Y-514282*X280682Y-514553*X280622Y-514830*X280587Y-515112*X280576Y-515396*X280590Y-515679*X280621Y-515908*X280672Y-516133*X280744Y-516353*X280834Y-516565*X280944Y-516769*X281071Y-516961*X281214Y-517142*X281374Y-517309*X281547Y-517462*X281734Y-517598*X281932Y-517716*X282140Y-517817*X282356Y-517899*X282578Y-517961*X282805Y-518003*X283035Y-518024*X283266Y-518025*X283397Y-518030*X283552Y-518023*X283706Y-518003*X283858Y-517969*X284006Y-517923*X284150Y-517864*X284287Y-517792*X284419Y-517709*X284542Y-517615*X284657Y-517511*X284762Y-517396*X284857Y-517274*X284941Y-517143*X285014Y-517006*X285074Y-516863*X284215Y-514651D2*X284137Y-514615D1*X284055Y-514587*X283971Y-514567*X283886Y-514554*X283799Y-514550*X283720Y-514554*X283641Y-514564*X283564Y-514581*X283488Y-514605*X283415Y-514636*X283344Y-514672*X283278Y-514715*X283215Y-514763*X283156Y-514817*X283102Y-514875*X283054Y-514938*X283012Y-515005*X282975Y-515075*X282945Y-515149*X282921Y-515224*X282904Y-515302*X282893Y-515381*X282890Y-515460*X282893Y-515539*X282904Y-515618*X282921Y-515695*X282945Y-515771*X282975Y-515844*X283011Y-515915*X283054Y-515981*X283102Y-516044*X283156Y-516103*X283214Y-516156*X283277Y-516205*X283262D2*X283156Y-516208D1*X282401Y-515511D2*X282409Y-515576D1*X282424Y-515641*X282443Y-515705*X282468Y-515766*X282499Y-515825*X282534Y-515881*X282575Y-515934*X282619Y-515983*X282668Y-516028*X282721Y-516069*X282776Y-516105*X282835Y-516136*X282896Y-516161*X282960Y-516182*X283024Y-516196*X283090Y-516205*X283156Y-516208*X283817Y-513953D2*X283693Y-513958D1*X283569Y-513975*X283448Y-514002*X283329Y-514039*X283103Y-514145*X282998Y-514212*X282899Y-514289*X282808Y-514373*X282724Y-514465*X282648Y-514565*X282582Y-514670*X282525Y-514781*X282478Y-514897*X282441Y-515016*X282415Y-515138*X282399Y-515261*X282395Y-515386*X282401Y-515511*X283817Y-513953D2*X283906Y-513956D1*X283962Y-513957*X284040Y-513954*X284229Y-513946*X285074Y-514103D2*X284869Y-514035D1*X284659Y-513986*X284446Y-513956*X284230Y-513946*X285074Y-515615D2*X285009Y-515463D1*X284930Y-515318*X284839Y-515181*X284735Y-515053*X284619Y-514935*X284494Y-514828*X284359Y-514733*X284215Y-514651*X282319Y-515524D2*Y-515517D1*X286658Y-516278D2*Y-516295D1*X283245Y-523468D2*X283230D1*X283220*X283616Y-504850D2*X283609D1*X284100Y-508482D2*X284085Y-508481D1*X285074Y-516863D2*Y-515585D1*X283268Y-517942D2*X283415Y-517947D1*X283563Y-517939*X283709Y-517918*X283853Y-517885*X283994Y-517839*X284130Y-517782*X284260Y-517712*X284384Y-517632*X284501Y-517541*X284610Y-517441*X284709Y-517331*X284798Y-517214*X284877Y-517089*X284945Y-516958*X285001Y-516821*X285045Y-516680*X285077Y-516535*X285096Y-516389*X285103Y-516241*X280672Y-515672D2*X280702Y-515893D1*X280752Y-516112*X280821Y-516324*X280909Y-516530*X281015Y-516727*X281139Y-516914*X281278Y-517089*X281433Y-517251*X281601Y-517399*X281782Y-517530*X281974Y-517645*X282176Y-517742*X282385Y-517821*X282601Y-517881*X282821Y-517921*X283044Y-517942*X283268*X283952Y-512219D2*X283683D1*X283414Y-512242*X283148Y-512288*X282888Y-512356*X282634Y-512447*X282388Y-512558*X282153Y-512691*X281930Y-512842*X281721Y-513012*X281527Y-513200*X281350Y-513403*X281191Y-513620*X281051Y-513851*X280931Y-514092*X280832Y-514343*X280755Y-514601*X280700Y-514865*X280668Y-515133*X280659Y-515402*X280672Y-515672*X284229Y-512210D2*X283952Y-512219D1*X288312Y-516260D2*X288293Y-515906D1*X288245Y-515555*X288165Y-515210*X288057Y-514873*X287919Y-514546*X287754Y-514233*X287562Y-513935*X287345Y-513655*X287104Y-513394*X286842Y-513156*X286560Y-512941*X286261Y-512752*X285946Y-512589*X285618Y-512454*X285280Y-512348*X284934Y-512271*X284583Y-512225*X284229Y-512210*X282993Y-521544D2*X283434Y-521538D1*X283873Y-521494*X284307Y-521413*X284732Y-521295*X285145Y-521141*X285544Y-520953*X285926Y-520732*X286287Y-520478*X286626Y-520195*X286939Y-519884*X287224Y-519548*X287480Y-519188*X287704Y-518808*X287895Y-518410*X288051Y-517998*X288172Y-517573*X288256Y-517140*X288302Y-516701*X288312Y-516260*X282965Y-521543D2*X282993Y-521544D1*X276886Y-516086D2*X277010Y-516661D1*X277184Y-517222*X277408Y-517765*X277679Y-518286*X277997Y-518781*X278357Y-519246*X278757Y-519676*X279195Y-520068*X279665Y-520420*X280166Y-520729*X280692Y-520991*X281239Y-521205*X281803Y-521369*X282380Y-521482*X282965Y-521543*X276876Y-515997D2*X276886Y-516086D1*X284085Y-508481D2*X283470Y-508497D1*X282859Y-508566*X282256Y-508688*X281665Y-508861*X281092Y-509085*X280541Y-509358*X280015Y-509677*X279519Y-510041*X279056Y-510447*X278630Y-510891*X278245Y-511370*X277902Y-511881*X277604Y-512419*X277355Y-512981*X277155Y-513563*X277006Y-514160*X276910Y-514768*X276866Y-515382*X276876Y-515997*X292079Y-516852D2*X292057Y-516141D1*X291974Y-515435*X291831Y-514738*X291628Y-514057*X291368Y-513395*X291052Y-512758*X290683Y-512150*X290262Y-511577*X289794Y-511042*X289282Y-510548*X288729Y-510101*X288140Y-509703*X287519Y-509357*X286870Y-509065*X286199Y-508830*X285510Y-508654*X284809Y-508537*X284100Y-508482*X292077Y-516893D2*X292079Y-516852D1*X283228Y-525122D2*X284012Y-525097D1*X284791Y-525003*X285558Y-524839*X286307Y-524607*X287033Y-524309*X287729Y-523947*X288390Y-523524*X289010Y-523043*X289584Y-522509*X290109Y-521926*X290579Y-521297*X290990Y-520629*X291341Y-519927*X291626Y-519197*X291845Y-518443*X291996Y-517673*X292077Y-516893*X273162Y-514780D2*X273171Y-515676D1*X273260Y-516567*X273429Y-517446*X273675Y-518307*X273998Y-519143*X274394Y-519946*X274860Y-520710*X275393Y-521430*X275988Y-522099*X276641Y-522712*X277346Y-523264*X278097Y-523751*X278890Y-524169*X279716Y-524514*X280570Y-524783*X281444Y-524975*X282333Y-525088*X283228Y-525122*X273165Y-514741D2*X273162Y-514780D1*X283587Y-504850D2*X282663Y-504914D1*X281749Y-505058*X280850Y-505280*X279974Y-505578*X279127Y-505951*X278315Y-506395*X277544Y-506907*X276820Y-507484*X276149Y-508122*X275535Y-508814*X274983Y-509557*X274497Y-510345*X274080Y-511172*X273737Y-512031*X273468Y-512917*X273277Y-513823*X273165Y-514741*X283609Y-504850D2*X283587D1*X295583Y-514499D2*X295320Y-513494D1*X294973Y-512515*X294544Y-511570*X294037Y-510664*X293455Y-509804*X292802Y-508997*X292082Y-508248*X291302Y-507562*X290467Y-506945*X289583Y-506401*X288655Y-505934*X287692Y-505548*X286699Y-505244*X285684Y-505025*X284654Y-504894*X283616Y-504850*X293967Y-514849D2*X293985Y-514919D1*X294010Y-514987*X294040Y-515052*X294076Y-515115*X294117Y-515174*X294163Y-515230*X294214Y-515281*X294269Y-515327*X294328Y-515369*X294390Y-515405*X294455Y-515436*X294523Y-515461*X294592Y-515480*X294663Y-515493*X294735Y-515500*X294807*X294879Y-515494*X294950Y-515482*X295088Y-515439*X295154Y-515409*X295216Y-515373*X295275Y-515332*X295331Y-515286*X295382Y-515235*X295429Y-515180*X295470Y-515121*X295507Y-515059*X295537Y-514994*X295562Y-514926*X295581Y-514856*X295594Y-514786*X295601Y-514714*Y-514642*X295595Y-514570*X295583Y-514499*X293967Y-514849D2*X293740Y-513981D1*X293440Y-513134*X293069Y-512317*X292630Y-511533*X292127Y-510790*X291562Y-510092*X290941Y-509444*X290266Y-508851*X289544Y-508317*X288779Y-507847*X287978Y-507443*X287144Y-507108*X286286Y-506845*X285408Y-506656*X284518Y-506542*X283621Y-506503*X282841Y-506558*X282069Y-506680*X281310Y-506868*X280570Y-507120*X279855Y-507435*X279169Y-507810*X278518Y-508243*X277907Y-508730*X277340Y-509268*X276821Y-509853*X276355Y-510480*X275944Y-511145*X275592Y-511843*X275301Y-512568*X275073Y-513316*X274910Y-514080*X274814Y-514856*X274823Y-515603*X274899Y-516346*X275041Y-517079*X275248Y-517796*X275518Y-518492*X275849Y-519161*X276239Y-519798*X276684Y-520397*X277181Y-520954*X277726Y-521464*X278315Y-521924*X278942Y-522329*X279603Y-522677*X280292Y-522964*X281004Y-523188*X281733Y-523347*X282474Y-523441*X283220Y-523468*X283245D2*X283880Y-523449D1*X284511Y-523373*X285133Y-523241*X285740Y-523054*X286328Y-522813*X286892Y-522521*X287428Y-522179*X287931Y-521790*X288397Y-521358*X288823Y-520886*X289204Y-520378*X289539Y-519838*X289823Y-519270*X290056Y-518678*X290235Y-518068*X290358Y-517445*X290425Y-516813*X290406Y-516246*X290339Y-515682*X290223Y-515127*X290061Y-514583*X289852Y-514055*X289599Y-513547*X289303Y-513063*X288967Y-512605*X288593Y-512178*X288184Y-511785*X287743Y-511428*X287272Y-511111*X286777Y-510834*X286259Y-510602*X285723Y-510414*X285174Y-510273*X284614Y-510179*X284048Y-510134*X283579Y-510147*X283113Y-510200*X282653Y-510293*X282203Y-510425*X281766Y-510595*X281345Y-510803*X280944Y-511045*X280565Y-511322*X280211Y-511630*X279885Y-511968*X279590Y-512332*X279327Y-512720*X279098Y-513130*X278905Y-513558*X278750Y-514000*X278634Y-514455*X278557Y-514917*X278521Y-515385*X278524Y-515854*X278619Y-516279*X278752Y-516695*X278920Y-517096*X279124Y-517482*X279361Y-517847*X279630Y-518190*X279928Y-518508*X280253Y-518798*X280603Y-519058*X280974Y-519286*X281364Y-519480*X281770Y-519639*X282189Y-519761*X282616Y-519845*X283049Y-519891*X283349Y-519886*X283647Y-519856*X283942Y-519800*X284231Y-519719*X284511Y-519614*X284782Y-519486*X285041Y-519335*X285286Y-519162*X285516Y-518970*X285728Y-518758*X285922Y-518529*X286095Y-518285*X286247Y-518026*X286376Y-517756*X286482Y-517475*X286564Y-517187*X286621Y-516893*X286652Y-516595*X286658Y-516295*Y-516278D2*X286648Y-516068D1*X286619Y-515860*X286573Y-515654*X286509Y-515454*X286428Y-515260*X286330Y-515074*X286217Y-514897*X286089Y-514730*X285946Y-514575*X285791Y-514433*X285625Y-514305*X285448Y-514191*X285261Y-514094*X285067Y-514013*X284867Y-513949*X284662Y-513903*X284453Y-513874*X284243Y-513864*X284033Y-513871*X283911Y-513873D2*X283972Y-513875D1*X284033Y-513871*X283911Y-513873D2*X283781Y-513871D1*X283651Y-513879*X283523Y-513899*X283396Y-513930*X283273Y-513972*X283154Y-514024*X283040Y-514086*X282932Y-514158*X282830Y-514239*X282736Y-514328*X282650Y-514426*X282572Y-514530*X282504Y-514640*X282445Y-514756*X282397Y-514877*X282359Y-515002*X282332Y-515129*X282317Y-515258*X282312Y-515388*X282319Y-515517*Y-515524D2*X282329Y-515596D1*X282345Y-515667*X282367Y-515736*X282395Y-515803*X282428Y-515868*X282467Y-515929*X282511Y-515987*X282560Y-516041*X282613Y-516090*X282671Y-516135*X282732Y-516175*X282796Y-516209*X282863Y-516237*X282932Y-516260*X283003Y-516276*X283075Y-516287*X283148Y-516291*X283220Y-516289*X283390Y-516293D2*X283305Y-516286D1*X283220Y-516289*X283390Y-516293D2*X283395D1*X283399*X283404*X283408Y-516292*X283413Y-516291*X283417Y-516289*X283421Y-516287*X283425Y-516285*X283429Y-516283*X283432Y-516280*X283436Y-516276*X283439Y-516273*X283441Y-516269*X283443Y-516265*X283445Y-516261*X283447Y-516257*X283448Y-516252*X283449Y-516248*Y-516243*Y-516239*Y-516234*X283448Y-516230*X283447Y-516225*X283445Y-516221*X283443Y-516217*X283441Y-516213*X283438Y-516209*X283435Y-516206*X283432Y-516203*X283429Y-516200*X283425Y-516197*X283421Y-516195*X284178Y-514725D2*X284112Y-514694D1*X284044Y-514670*X283974Y-514652*X283903Y-514640*X283831Y-514634*X283759*X283687Y-514641*X283616Y-514653*X283547Y-514672*X283479Y-514697*X283414Y-514728*X283352Y-514765*X283293Y-514806*X283238Y-514853*X283187Y-514904*X283141Y-514960*X283100Y-515019*X283064Y-515081*X283034Y-515147*X283010Y-515215*X282991Y-515285*X282979Y-515356*X282973Y-515428*Y-515500*X282980Y-515572*X282993Y-515643*X283012Y-515712*X283037Y-515780*X283068Y-515845*X283104Y-515907*X283146Y-515966*X283192Y-516021*X283244Y-516072*X283299Y-516118*X283358Y-516159*X283421Y-516195*X285103Y-516241D2*X285097Y-516098D1*X285079Y-515955*X285049Y-515815*X285007Y-515677*X284954Y-515544*X284889Y-515415*X284814Y-515292*X284730Y-515176*X284635Y-515068*X284532Y-514968*X284421Y-514877*X284302Y-514796*X284178Y-514725*D125*X1076651Y-595801D2*X1077473D1*X1078220Y-602819D2*X1089402D1*X1079502Y-599394D2*X1089529D1*X1076629Y-611382D2*X1089516D1*X1090512Y-591337D2*X1092381D1*X1089520Y-590196D2*X1094174D1*X1088529Y-589054D2*X1096000D1*X1087538Y-587912D2*X1099106D1*X1076645Y-594660D2*X1077872D1*X1076641Y-593518D2*X1078271D1*X1076639Y-592376D2*X1078670D1*X1076637Y-591235D2*X1079069D1*X1076635Y-590093D2*X1079469D1*X1076634Y-588951D2*X1079870D1*X1076632Y-587809D2*X1080272D1*X1096034Y-603961D2*X1097563D1*X1096615Y-605103D2*X1097679D1*X1096187Y-606816D2*X1097852D1*X1092422Y-607957D2*X1097968D1*X1091865Y-611382D2*X1098316D1*X1092802Y-610241D2*X1098200D1*X1092948Y-609099D2*X1098084D1*X1091143Y-594827D2*X1096628D1*X1092927Y-593686D2*X1096509D1*X1094698Y-592544D2*X1096388D1*X1092513Y-602819D2*X1097447D1*X1093178Y-601678D2*X1097331D1*X1092306Y-599394D2*X1097098D1*X1093120Y-600536D2*X1097215D1*X1079930Y-598253D2*X1096981D1*X1080357Y-597111D2*X1096864D1*X1080784Y-595969D2*X1096747D1*X1081212Y-594827D2*X1089620D1*X1081640Y-593686D2*X1088469D1*X1082068Y-592544D2*X1087370D1*X1082496Y-591402D2*X1086297D1*X1082925Y-590260D2*X1085226D1*D10*G75*G1X1092154Y-591480D2*G2X1091126Y-592044I-4083J6222D1*G1X1095546Y-589330D2*G2X1096877Y-588600I5999J-9364D1*X1096919Y-588584I124J-268*G1X1097154Y-588516D2*G2X1097237Y-588504I83J-283D1*G1X1097412Y-588502D2*G2X1097521Y-588523I0J-295D1*G1X1097658Y-588577D2*G2X1097716Y-588607I-108J-275D1*X1098180Y-589131I-795J-1171*G1X1098179Y-589132D2*G2X1098191Y-589158I-262J-135D1*X1098324Y-589629I-2241J-888*X1098533Y-591086I-16875J-3169*G1X1088908Y-600029D2*G2X1089661Y-599284I3991J-3281D1*X1089721Y-599246I186J-230*G1X1090334Y-598959D2*G2X1090436Y-598932I125J-267D1*G1X1091087Y-598880D2*G2X1091192Y-598891I23J-295D1*G1X1091835Y-599076D2*G2X1091926Y-599120I-82J-283D1*G1X1092512Y-599543D2*G2X1092571Y-599599I-173J-239D1*G1X1092900Y-600014D2*G2X1092943Y-600089I-232J-184D1*G1X1093193Y-600720D2*G2X1093214Y-600822I-274J-109D1*G1X1093229Y-601482D2*G2X1093212Y-601580I-296J0D1*G1X1092992Y-602207D2*G2X1092942Y-602297I-279J98D1*G1X1092488Y-602850D2*G2X1092434Y-602901I-229J188D1*G1X1092119Y-603131D2*G2X1092051Y-603168I-174J238D1*G1X1091411Y-603416D2*G2X1091310Y-603436I-106J275D1*G1X1090642Y-603448D2*G2X1090545Y-603432I0J295D1*G1X1089912Y-603211D2*G2X1089822Y-603162I93J278D1*G1X1089270Y-602712D2*G2X1089235Y-602678I187J229D1*G1X1078751Y-604184D2*G2X1077748Y-604138I0J10877D1*G1X1092365Y-604221D2*G2X1093189Y-603547I4386J-4522D1*G1X1093894Y-603260D2*G2X1093994Y-603240I108J-275D1*G1X1094662Y-603222D2*G2X1094759Y-603238I0J-295D1*G1X1095388Y-603456D2*G2X1095478Y-603507I-97J-279D1*G1X1096031Y-603959D2*G2X1096082Y-604013I-187J-228D1*G1X1096312Y-604328D2*G2X1096349Y-604395I-238J-174D1*G1X1096597Y-605035D2*G2X1096617Y-605136I-275J-106D1*G1X1096630Y-605804D2*G2X1096614Y-605900I-296J0D1*G1X1096394Y-606533D2*G2X1096344Y-606623I-279J97D1*G1X1095896Y-607174D2*G2X1095839Y-607227I-229J186D1*G1X1095474Y-607489D2*G2X1095402Y-607527I-172J239D1*G1X1094761Y-607759D2*G2X1094660Y-607777I-101J278D1*G1X1093998Y-607767D2*G2X1093895Y-607746I5J295D1*G1X1093264Y-607498D2*G2X1093179Y-607447I108J274D1*G1X1092618Y-606965D2*G2X1092804Y-607036I192J224D1*G1X1089044Y-607837D2*G2X1089063Y-607822I193J-223D1*G1X1089494Y-607508D2*G2X1089556Y-607474I173J-239D1*G1X1090225Y-607200D2*G2X1090324Y-607178I112J-273D1*G1X1090998Y-607149D2*G2X1091094Y-607165I0J-295D1*G1X1091717Y-607381D2*G2X1091808Y-607432I-97J-279D1*G1X1092363Y-607892D2*G2X1092412Y-607945I-189J-227D1*G1X1092643Y-608259D2*G2X1092680Y-608327I-239J-175D1*G1X1092927Y-608967D2*G2X1092947Y-609068I-275J-106D1*G1X1092960Y-609736D2*G2X1092944Y-609832I-295J0D1*G1X1092724Y-610465D2*G2X1092674Y-610555I-279J97D1*G1X1092226Y-611106D2*G2X1092172Y-611158I-229J187D1*G1X1091857Y-611388D2*G2X1091789Y-611425I-174J238D1*G1X1091149Y-611673D2*G2X1091048Y-611693I-106J275D1*G1X1090380Y-611705D2*G2X1090283Y-611689I0J295D1*G1X1089650Y-611468D2*G2X1089560Y-611418I97J279D1*G1X1089008Y-610969D2*G2X1088973Y-610935I186J229D1*G1X1098427Y-611744D2*G2X1098334Y-611558I201J216D1*G1X1092022Y-594272D2*G2X1090571Y-595142I-7886J11515D1*X1090529Y-595160I-136J262*G1X1090324Y-595228D2*G2X1090065Y-595193I-94J280D1*G1X1089930Y-595102D2*G2X1089900Y-595078I165J245D1*G1X1089899Y-595079D2*G2X1088622Y-593844I12675J14374D1*G1X1083562Y-588576D2*G2X1084082Y-589071I-2706J-3363D1*D11*G1X293828Y-383000D2*G2X293828Y-383000I-2828J0D1*G1X299828Y-488000D2*G2X299828Y-488000I-2828J0D1*G1X0Y0D2*M02*